<mxfile host="app.diagrams.net" agent="Mozilla/5.0 (Windows NT 10.0; Win64; x64) AppleWebKit/537.36 (KHTML, like Gecko) Chrome/129.0.0.0 Safari/537.36" version="24.7.17">
  <diagram name="PÃ¡gina-1" id="sMAgcbeIfFbRTYpGwbQO">
    <mxGraphModel dx="989" dy="509" grid="1" gridSize="10" guides="1" tooltips="1" connect="1" arrows="1" fold="1" page="1" pageScale="1" pageWidth="850" pageHeight="1100" math="0" shadow="0">
      <root>
        <mxCell id="0" />
        <mxCell id="1" parent="0" />
        <mxCell id="E4g3zkUV0fPsjV3zWIB0-32" style="edgeStyle=orthogonalEdgeStyle;rounded=0;orthogonalLoop=1;jettySize=auto;html=1;entryX=0;entryY=0.5;entryDx=0;entryDy=0;flowAnimation=1;" edge="1" parent="1" source="E4g3zkUV0fPsjV3zWIB0-1" target="E4g3zkUV0fPsjV3zWIB0-4">
          <mxGeometry relative="1" as="geometry" />
        </mxCell>
        <mxCell id="E4g3zkUV0fPsjV3zWIB0-1" value="Bing API" style="shape=image;verticalLabelPosition=bottom;labelBackgroundColor=default;verticalAlign=top;aspect=fixed;imageAspect=0;image=data:image/png,iVBORw0KGgoAAAANSUhEUgAAAZAAAAGQCAYAAACAvzbMAAAABGdBTUEAALGPC/xhBQAAAAFzUkdCAK7OHOkAAAAgY0hSTQAAeiYAAICEAAD6AAAAgOgAAHUwAADqYAAAOpgAABdwnLpRPAAAIABJREFUeF7svX2wLdlZ3td7nzujDwi6igOGBMy9+JMIrJkYjMZCzB2cVCCuCpB/k7IkVyqVP5KScP7xP2YGnKTiVMqSSMVVTiVoZDsflTggXE4FfzBzhWMjY1ka4/Bl0MzFfAiQQBdjRjOaObvTz+953tW97xlhzdHMPfeO3uecvbt7rXe9a/XqvZ+n37W6e+/meZ4ajUaj0Xix2N+a0Gg0Go3GZ4MWkEaj0WicCy0gjUaj0TgXWkAajUajcS60gDQajUbjXGgBaTQajca50ALSaDQajXOhBaTRaDQa50ILSKPRaDTOhRaQRqPRaJwLLSCNRqPROBdaQBqNRqNxLrSANBqNRuNcaAFpNBqNxrnQAtJoNBqNc6EFpNFoNBrnQgtIo9FoNM6FFpBGo9FonAstII1Go9E4F1pAGo1Go3EutIA0Go1G41xoAWk0Go3GudAC0mg0Go1zoQWk0Wg0GudCC0ij0Wg0zoUWkEaj0WicCy0gjUaj0TgXWkAajUajcS60gDQajUbjXGgBaTQajca50ALSaDQajXOhBaTRaDQa50ILSKPRaDTOhRaQRqPRaJwLLSCNRqPROBdaQBqNRqNxLrSANBqNRuNcaAFpNBqNxrnQAtJoNBqNc6EFpNFoNBrnQgtIo9FoNM6FFpBGo9FonAstII1Go9E4F1pAGo1Go3EutIA0Go1G41xoAWk0Go3GudAC0mg0Go1zoQWk0Wg0GudCC0ij0Wg0zoUWkEaj0WicCy0gjUaj0TgXWkAajUajcS60gDQajUbjXGgBaTQajca50ALSaDQajXOhBaTRaDQa50ILSKPRaDTOhRaQRqPRaJwLLSCNRqPROBdaQBqNRqNxLrSANBqNRuNcaAFpNBqNxrnQAtJoNBqNc6EFpNFoNBrnQgtIo9FoNM6FFpBGo9FonAstII1Go9E4F1pAGo1Go3Eu7OZ5vjWt0fgd8dD1m5efmV59Weuvnp65+fi1yzdvtWk0Gq98tIA0PitINJ6fXv2OaZqv+WXM/O9u7HfzB56bP/3dP3rt8o1RqNFovKLRAtL4l+KPXf/UO06mwyPzbv+6aZ53StNbfXJI8Pa8n6b3PTe1kDQanw9oAWn8jnjL9acfWRYP35ou6JMzxEOfo92O7eX11LL40z9y7bXvX60bjcYrDS0gjc+IrXiUWHjISlJxFptPUsx377pnevZ7eo6k0XhlogWk8YJ482O//fbdbvd9iwxozGroxbzbzcuHZnfrxwZxie2B1Z3CEi2e2k2HP/V3r33h9eMSjUbjbkcLSOMMvun609KDJ5ePxhUEY9GDwyzt2OkDg5hYJByJ8AmS0bxks6q3XUUry9s8nUy7d590NNJovKLQ94E0zuL09NsP0+4rzf4OOBRKlHgofY9kjBKSF1YqVOHERPaz0pYYZJ6/83S+98MPXL95ZZRqNBp3NVpAGi+A/bctjO9RKYlEhENQkCFBYM4823OJCyFHglrlV1mHIvMSxVy9NL/qyTc/9vTD5a/RaNy96CGsxhm85fGnP7Iw/n0EGZIHTWfsFjnYCMkYutpsr2satHKwIhuNbq32kZ3d7snnd8/+8b7ct9G4e9ERSOMsJB6OHiwejiZ2HoxSAjZeZ47EEYmjD+nMKiiWka14ZHWev+rk9N6ORhqNuxgdgTTO4Bt/+OmjD0ViBq06oNCglMeymCAZ8cg2SjmKWDA5zrO38vXU6UlHI43G3YaOQBovjEQWRA8i/M2UuaMRzj6kDIkv1kl2NolCxqZEQsNW2DG/gm0FI45G3vLYMx2NNBp3EToCaZwBEYjkQxSvIalFQHTV1VAKwWtEFbv9jhnyRBab/AhEVuIDQfF6edxpkiSfxZ2ikW/uaKTRuPPREUjjLCIeuveDkSou5UUDPNnhNZRhRCnh/5ott/g4ipFYKFSRPwQDf7aL3uwOh+RN09WT01c9+ea/09FIo3GnoyOQxhl849/51PhQlCCE7+cl2PBNhWL+zIXIjqu19nvPc2zTkSObs+J5eW5ExH8URFEIPuqGErRqfupw+ulv/tFv6Wik0bgT0RFI44VQkcI0i+mzLvLPFVaeEamZEaUhCxaM2feQAM+D7BGLveMSi02iEk5g7D8zLbJ3BLS8XdmfvOofLYL2zvLXaDTuHHQE0jiDN//tTy2RBhHAmliSgFh4eIt5C0UYIv7Sj0x4lLmHslhxhFFzHUzSI0hUgqAgL/KSSsqRHTx+es/uT/3otVffiOtGo3HB6AikcQalBQWT+ppkfg/BH3yzurTA4lHz5LxtAgxuJiRikdrUUBbCkSqZc0FQSknKE8WunTw3f/gtf/vZdySn0WhcMFpAGi8IJrynkP1kMdB2LZnrAM4fl/CSksjEGoH1rT4kLIdDMi06AkW0YeFRui/Wivi8/jAf3v3mv/Wp73/gh/qZWo3GRaMFpHEWMDijTdPB8UaetAuhm9htY3GJMthSU+XQvsbAsF3LGkQfS0ENk9k2JjOzJdEfapIPRAiRokWsf8fJ/lWPfeMPP/PW8tloNG4/eg6kcQZv/tvPSDcIH8zkIXSIPpdUOd2qEWi+naf0WlZGusWDgESDVEpaQxPeN/lsrdGNLKpOMucUzp3uy+f30YN+i72v1Go0bjs6AmmcAQQOQZvCFRXscmUV6iBGl5VuHhTYhuF1R2BtaZYdDxaEZR0fEp1RlXJrzZf4Hg+FDdhjxENrzL3of//W/W6JRv5WRyONxu1GRyCNM3jz33IEcuuVWJC45yh85dVWCZJ3mMmweCiKib0dlAh5cKrEgh+nquEsT5fY3E7t58y2fZRt0h49naclGukrtRqN24GOQBpncQhBZw6j5jhg9trQKpfmatPRSm4wzLaFABeyd/SRfLw6gkBOxojWZAlR+hqBbDLxs7dEEX8gOl7VZcJvO9lNjz3wQ//i2rZIo9F4edAC0nhhoAw+xa/owMIQOg9xRyV2h0QGTGUoGlBBbJAZFyrRkC/yE5EoaqkHLGo9wjBsS2hokqwrD52hnv0QrPnqyXTpsSWKetiZjUbj5UILSOMFwdDT8s9VUabvED6MPoXZpwO0HqHAlPiinITsK4qwyNS8R6IG8u3EvpQUgbCo2Hhpz36WUJSCRFSsMrRweF4sp4ff/EMtIo3Gy4kWkMYZiIa5R+NgPs7TTGZ+AAQxqUEmPkAIQlF3RMJehqgkgogtvlLCg1rRgJoYt97Yb6mLfB4O0QdXjvggQCU8LkpjZ6KjFpFG42VEC0jjDGriHBafchVWwgpPijsI4IGIkHVI3ETvCIP1EpzcmBhblpIO3pxUz9KiHsrWPyISVZFfZMi3vy/LPTMirg9xcitSP+1uEWk0Xia0gDTOgvhAZF8vBxVwMpfuWlp805+J25Pi3sJFynpjRB7lm8uC5VfioG1numxVVqJVW+VO6Vy5hZLxxlJ2+NIA1hSBs+/v+mN/sx+B0mi81GgBaZwBc+Zm+0rxQjSudd8TAmMzvGWGZ1sq4v+BEZkkHOEBv6jIpDvdEYIxTFaX9FrA7MlRicvXsNUQl1HfKlyIk/1Sy5K735/O73rgbzxzbW1Wo9H4XNEC0jiDVRAg3zU9BK/1InDPYZBpQudqLPN/pdsd1mw7cnDiiGIOTt/kIQpaIgaY8bK2MUGf2rH0siblqYdlKpj0cyXT9z30/umyNxuNxueKFpDGWYiQRcDi+zC4SNgT5s6vyANuL8LXNnMgQmibco4pymbYLrXIz9EN7fjgVXMhTLqUL4vMzlGQGzCwo33V6LhhGbGZp6vP3vOp7zoq1Gg0zo0WkMYZDF7OUuwNCc8mcKftLB2xkUiIq3kLc2u9WLyGneDzRAeau2CCPnVQCe+UJMqopX2y5SS9rAxu06yLtKpM9Mb2PEIldavd73zgb/SNho3GS4EWkMYZ7Pb+LXP4dxUBWLmuvNJrJX9NbKAspRk1jAUcYdSQU6bczf1DExACiiuCsE8JTDKjL6u2yadlwWXYnKilmlHYWYBG0u5kd6mjkEbjJUALSOMMRMLjEt2KAgaplzD4hj6EwOxvNdCqbJijMJXvPOiE2MipHVsUShnGwrJCyFEKYzHbbYe3pr0K5u51z3tEaxAmym7sI0TJXzxe+8b/ux++2Gh8rmgBaZyB7i5nvkMzCpvfNz/MYmKTOVftSlwqOjhEDApcNWVf4+Rfabo5kRsUHYusP1ylbEcxHggLSpi8qiIIy3oHvGtVexGtDFfVDY5EPb5Q2GIkcZw1qjW1gDQanyNaQBpnoctgxew1ux0ijnLA8CJiC0PyVKyihEQtkLc2IW3xvsg8+QoRMuxlC4nWzmNReC27RDjVlIOij52jD+qQjzGEJdGLYCk4ocGOUDQ/onS/VODaW/qy3kbjc0ILSOMMchnVEAJTf11dJWq2hDBUNfIIDsTgjjSw8xBT+Rk+YPtNlEFkgm1EJyGILu1VMQsRKlEaYz/VItla9PC8S2SjQox1baIQQWK1JJxOU8+FNBqfA1pAGmfgcaKJM3U/YkR8vpK1zug1RCQi19m+bLQuIeDsX8RO5kYkuPMcLQL2hr4gQSOFQp5st0usUASq3PjQBvLFdtpH3SibBSf2jpzWfTjgb//Gvi+k0Tg/WkAaZwDhJkIw0ToosQZ4uKmIHfGYmdSG+CFqczgBAAKkeQkigAiFh5AQIKWOelWeSlXRKj4VPTjBgYX+VbCioIpesHCTeY12aJ1Lt+xfbVkqef1z9zz3bVVPo9F4cWgBaZyFSDan9jW/oKQ9soK0ICgQtohb/yJqzD19ghvnWS8iB0qSx1A5S5TH5hYZMsmhjP1ZoVLQ3uKTPA+OUUFEzXMnwbq+8xxK1GZp7IPDqNFovCi0gDTOwMJh8XBCXknVhDQ/XasNW3m4CAskgDN+xCfE7WiBM3+4e5SNeGiDK6kkFRViRCpKsNyUKmuvq1jZLuuObHSbolywvbP8LRuJqlxynr89rhuNxotEC0jjDDLvUSfpItmhJOSUbDgl0hEcb2GngalIgUWk/PHQQ0+Q28RCoDRvr3VUusqiCb6si8uNqy6lD9GbcIptms28jfaN/fOEvtIvP/D+Z66MQo1G47NGC0jjLGBoaDuTHX48+qx7z8nTv8jcJB11cLCRlUH6EQKUQut4It1ClIn3kPmIPogm4hfRwNnBAqC8MZDmdlDWdayN8br1kOJeln2t7/f7Nyal0Wi8CLSAND4D6kw+UYDINr8ICMcnishj2MXotksZhEWUHtimnCJIY65EdoiSBcb3jFh5EICyKcLHFwLjaGboQQbSxk2Ekjn7SP42WvKDHEk/nF5d0xuNxmeLFpDGGcDRg5Wh98xNmMtFvCUveRw7DyzUtjewFjOX2SoliEBsEzFodsKiwzyI010Cw4iAr+SqbZabbdppf3X/45hYVzbesu79Y87Fu3Xyh4dho9H4rNEC0jgD7gif4GxuwIN8nQBE3PU493FD4Y5y2CIqRBCRjSJu7FfxyTBUBpscSSScsaJopSIPHPhVYuCwJetqa8qW7Si7Sfe+uAUbUel7QRqNc6AFpHEGusLKxOtJaIcLqxgoIhk/BFVDSDKckxhYAYrRQ9tRFUSH51blsmD5VXYJUtmscyQTw1IOMqIzKYOtHgCpobCIg0prkn5tN3XZbyIqMlRmbgFpNM6BFpDGWZidkQqT+c433yld7I0G7LbrPpkvZjdle2mB4DlZennYKU8dKdOUQygOfm5WfLKMNwubSvPnoaqjCGXSB5rgxQLjNbcfmwx6yasWKddfgkbjfOjvTuMMQrI5+5/zUMWIBIRNuucn1lN+MTaUjF3IGaImqlDUUldT6RLaERm4qM1Z0yVWzsultrsSH6fpRXBR2yw0dJZoBdHyuopTJzYZ8tI6794XXZzVaDRePFpAGmcA/Q7CrsSKQDZjRJC/SZhEJtItK+Nsny2XDaFbeDznAd2zgm+TvDaqjNcXCck9I/jnfSNcWRIsqaStaEFd6VWRz9Z+0p6OVjYajReLFpDGWUDrdQYfZLaC+EDpiTZg9QQWPCJErCzCdyGEATGqK6LmDD1RBwYj4HAR10HdqnPbBkcftrEMOTcSERFyI6hXbVmFKA0ZPuWDqOTU241G48WhBaRxFjXfMZlz68wdMla2qBeilsb4ybywdQgcqva6NxGZ+CZasU/PZUD8rFPGY1O2Xss7L9GCQxFn+iquREsxdBPsK5GHXzO3QqrdZBvH+tVoND57tIA0jvDA93+as3QijBINn8UPkaiQw5GGz+JZTrkW16EB5/wpv1K/12w2rzciljciBO4Yxy8tiUtKVD0RlDm/GWInQ5Tsm0uQseXdbWTd22C73mg0XhRaQBpHqKgA0YCK6xWSD9tqXWt6MGEouwxsYsEZPjQXITGwnSOBhCb++VmJknwhI9glqpgyiU/VQ8Rk6YgoG7J38czvu84ISzx53XsQMclQXKPRePFoAWkcY+XqUgq/Jp3fZ0hI5/kRA8175CR+naC+FeJpinvgyZGAhcCRhjcjXHEm0Ab9euC0xhWkqhAKZh9DqWoi3x6x9QR/mcqPbngESswd9I1G48WjBaRxBFG8lcAn95Va9OuH4DpnfZYVJibiyg2xDwuW4fjJ0UURu8qmRoadBoZQaKRKdnWPSGx52d5Sc1R0RDy5MTLRy6Z9myY3Go0XjxaQxhFExD7DT0KI1voRUmaIiA8PTySMmUvkyb0jAtjkaV1DV3UX+5bwPfxkUWJO5TAq5WWBWCMf2rSWtiYkQTY7tTZ5ytzIUuZdch3XUU6j0XgxaAFpHAMm9koRvycSdhkeEjOblPV/HDBM46GKJnUNJeFA/L/OX+dVtE651GvyF/1rc53yUEoFPBVFWAD0IXZ7ylk1SZGHhSJaVI2YNIy1GQJrNBrnQgtI4wjhWdj7JFy8W2IGrQz+3ZAuQ0qJQohIcmYvVFQB/Y/IwcjVV2OYyZKwgbeGsDAJP1x4WfeTnA6hWP2QRMRi8VpLqi0Rj906lNZoNF48WkAaLwRY91DX2NYvB4rsFRSE6okWIgA8yfCgNJPzFo5SVmERNIw1hqM0XHULjYf0SfRVWnLtDH1oox2+kEovN5k2bedJIkC706QNAVQZnr6YGhqNxotGf3MaxwjhjkkERqL0QXEAgGgoPQw+hrB2YvzwsfK2v/7Ha3vV1Fqm1n1JLvklCkQOMoL8U4+ihhKocW1WsP5CFK4dbGjehvazJ2qwh91SkIWUstFovGi0gDSOUNwqkuZqKVG31n0xlAMSEzVcPa7EKmFQRoaGKt0GBAhHH7gQPqXqBkIRPxGFHOgmwdn3iUQUEq3gzfeO2Dle9h5Ds3ikLQhTbFhDxdYyQ9QajcaLRgtI44UBAWcinG1O3Le33flEfsQGGO32MlLaTlui77raaUQYtiS7IgMZx6HzHN2w7hqrkop+sNPyljJje2NDkTlDYbHw1Eij0fhc0ALSOMI4Iy/GztCS1ydEQasWhWzD3iZliqIHuVPcwmO/SkteiUYRfQ1hgfiD7WF6op8hBBSpcqy6DWWnIqMNKUO8QsSzEcRSk0ajcS60gDSOEfJm3nzzI1Ki8qP4Y9bVT7uZy2FDyicOWRj7ssmGwCMoCAFiAcvPFhWTeUUFJn9Gq0pfjtYrUkkG/kiKKMg3bZjrv4Qoy+zTcNhoNM6FFpDGMUTAO0+ae4yqzv5n3zTIuijagqBLacmbVpInTeKTq7ccIawRRgmLqd3w466GxlTimLBnEr/qjtAgB2xHDPKi2Xtv7m7Rm6QNkdo0odFovEi0gDSOEP2A5Afx1zAVJB6GX28YHENYRADxA3NTRGkb8RD5xweRg/yzvnwYow7VBtV7OFjABhAI+3NUsUZF1W6tS7vqFwrrfpEzipHtjkQajfOhBaRxBOYJiDQyHLWJHrbicqwIJn/z/zGR26bExORfeRYpl9E6AYu2DxYAxGUqv6u/EgPaUaLFtkWFMpuytbRArW2p9b3ClUaj8aLR35zGMcSooeBt9ADZi6QjAiZ7Rx+VFwdeHbbm6vKhJcNRJTCxkc8RqexsU4Iw0lMXPhGAzJ1QptpiOy/UlojS7Dkb7CmrIl73D5A0Go0XixaQxjFEzyLajXB4ZTM8RZr+TeA1VFQEjiDEvtJLUCittxHhOJ37TBAkC5Pvak8+6akj9iDzM/a/zpdYFJy2bfe2Pc5ORqPROBdaQBq3AGodZC1mJ9ooUuZM3xGECXk9y9cpvYRj84TeDCEdDz+tQrKZ78DK6oX4JLHExnWsw1pg0w5vj5wjHAlFxENY6+6vQaNxHvQ3p3ELoNV1YpyU2c8Mga7rjL6iDp/lJ0oYYuByyrKNlpA/BJ4oI2IyhpkwzdVcI88ZJRwjIsqS4bS0l8nySleZzb5QRhP/2ge9xT/oR5k0GudCC0jjGGZujwblLvIxl7Ahd1O0YZreRC1TyDkJQ1QUveTy320kIasSF010a0isbCF/ZkESfVQ9jj4sGAiY66nHtJOXfXEd9odptWtMoDQajfOgBaRxBMUQCEbd5zH5clhSlrzxY1BcxmthKfLWi6unhq96qwQLwCpCydf9HsMkReSo6kgikUZgVbAWOOqwh/LrEEof8OTI16znarl5euPhXpsyjUbjxaEFpHGERSwcAcCsa2SBUEDYIl0LjAjZUUEikxENOHJgWZCvihg4+ffZv5b6EFYdVa9QolLtqHWLisus6TgY9dQwFT8qVa1IGe+L123faDTOgxaQxhESgYhdB69qZQiD1hUxHOV78lwGJCTPNpz42wsSQyQQ9t7NelR78fvWJ95WH5YF1UGm7UZ7Us8oG6EbUDRVMzeTRM7GejsSuUaj8aLQAtI4xiD3lVy30UVFB9sooxh4XTrPg0dma0wtTpaRCQIfQ2Pla+OElyfIIzrT2hZtluBs23JmiYBNEZW4JkFrJUr9NWg0zoP+5jReGEXQWeoFcRMZmHjFwUr0b4IgCqwxBBZIHOp3RSDwJY95FDQh4iJyx1fKxQ6J2fgawjRzwTDeV1tyHVlElNx+q4aa6zTb2J9zD30jYaNxLrSANF4Q4yweVcgkdYTE1CsrT5jviSSWF5PhEoxIjpRFhO8J7NC1dMfrnhQ3n1tIUjep1DfqZsmketWOMZb1Ia5hK6pCovyHleVIb4lyKvrIHjQajReN/uY0jiFyDZEDrsYS15r8IfeV4FGD7ZyDJq0plkumIhda4yUer6up+F30Sfl4HOqwZ4JdmbrqS1dtRS3SFty5nURIDjTW8vhUoVmPL+G6Xj8ZWO2MCEXMbN8BSKNxLrSANG6BiR5i3hB28bZVIcNSSve26B7q3gwTJXKwx4KiEudbOhCeXGKrNIkLQ2IIg6MURwmq24I1ykesAtIqKRVMJ7R23Scu60W2vH27cf/16fIDPzRdeeD6dEXrt+Y3GncTcmbZaBhv+ivPi11PkYzMPzDvUUKycDTPvkJcbs2Xhji6KDaPlhBVMOdR4qMMSiRGyXCSZYQiYBUgr3loCg1afBysZ64NQXFb9NO6KYXi2FsEiDZWNVQ9TY9/8E/e881svwyQUNw7Te9Y2nJtOWO7VsGP2zs9sbT10Wen6Qc/cm26cUvRRuOORkcgjSPoQVYiZhg6W1oR3+mlYadohU7lSV3ztQ6FM7FePIkwQOR7n6/M4vAwuEjdrO4GUM48b263H79SeVLt36JiY/tQ2vgNEG2rfWTSwtFey4qWL98Y1pt+eHrHvYfpqaVBjyz1XhsdIDg2uu8wz+++Z54f/4br08NHhRuNOxwtII0jmJ91Fg+le44CMvZwU0jdptoYEUdO81nzxLoHuVYi30a79gm5exJ+5CjNkYI1JpPk+FqHqIalcqw4FQ5RPwnapNoxIkalWj/4wVnY7F6m3wN54Pr0yNKYdy/tuUzUQ8MiXxGSIXK73ZWlgY/80evTRxcheevWT6Nxp+Ll+eY07l6Y13KCjpCs0YWSfTY/IgFfYeXJc6UTedjH8Fd8WWXwb/J2vMLKWl+2nTT5Z3ORo/j0pLojiSxZdx2yn6dD7JXuH4yysHDWn3K4jc+XGt/w2PTIEtg8TKV6sU9VsaOnDdaEef6qxe7RP3p9biFp3PFoAWkcofjOpOeTZrhPE+VMlpvq9Kb1ukKqCBAi92rxZujeFH5EnAeJ0Yg2imCB5kpKcPRv0ifDEUedutc8TN6cunlmFyazVYd87wM+U65cvVR44Pp0dWn+d9H6VOYOSJOypNrsFTJM/7oxy8pXHab5vV/3+OHJr2shadyhaAFpvDCYFhChecJZl0bpaikNN5kPd7CxydyaQQQgY62XjkDaRdJJLVKNDlg8cGwxcIGKVixK9sNwlOSkxKVEoOKTUpNSicJ+jyaxDyrLEJvs11IvCb7hhw+7w+nhYe2qdzeNYFtbm0YNyEzdnPtSMiyotGXr6tL5j3799fnxr78+XTsu12hcLFpAGkeAtwcZm8QtIh4C0u0UiMvKzqLG8LgFgfIlALYYS63WLIX886h2lSQ9ZcO7ES9s857J8Io6ws+8kjaaJR7mnTTNeWzzRjtd6ZrxOWJ/sr+yqNWftHxUKjuo1k/ZS1IzqKbtHdFHBGaITAmJcW3p+Me+7vrhvfdfn65s0huNC0MLSOMI5r0aJeLE3/dphLT1OPQaiYH4BawYoKqoIOVXYVgRAg3hm7z5EcM5gjHM5Y8hsq04qGgJy+z5EYQE+y0px1ZeR4KF0G6Y1I7IHbfwc8JhuoYs+bWKgJURFSu9OhIKRRs0yDGIM7SBbLIf8rlkvO1kOjzVQtK4E9AC0jiCz8zHhqgrRJ+8kLXW9eFZzuxtDsmvmsAPO5m/NzDth7dHngomFljnNhJdJJ36S7nkm0hI8yHkbSKSTVlHQkkfekUCTutRKy8V3vSY7ks5vNFVUo3bxrjeTjvHugMRi5lN0ggKVtO1kp2Ytasqhy5Vi9+2n05bSBoXihaQxhFy8uyTYxO4tzdn0r47fFLSPBrSAAAgAElEQVQsgmrUQJPpDsp39FFKAZtmNWGNhUGGWwLNMnemK7owySpa2EH4mB3wbccbIsZ3QpIkcFYPHbND9e4Vn+tnX18KMLOyf6PWhjhG9LRv9I26wL06KlYr1lZXq9KpdpJystdriIi69a27/eGj9//I4eEWksbtRgtI4wieNjeBi8l8I+HMs6QgchEcp/9TiH69rFZlmJzWRDXEHaLz40uGPWP9IUVvh0vNoi4TisRWYnJQljg13OwaKaxAYohIygx/2p/8IVzyEFvyhti8BHCdN1gvbVRKVcyOWjA2pQpqCrPm7CCxn1tHx9P31S3pMNlYaLTy8LQ/PHb/9WffuXXaaLycaAFpfGaExL0KZ40hpgwhhd2IKuC0ihIOeooha+a3lTK1vgtx1+zJpEjCEc3mzJvHkWToRrnWAwuZ8tcaPMzD2hHRhsFni5yFESeQufOjSy8dfpNmzARNEeLqg5qD2XRsgUiITk2mF1EgtquvtBeIYI7FpCcHKGk6XJn3J3/h/h85ffL+v3f6Vmc2Gi8fWkAaR6izdfOXiV7/+5y2e7Gb9ZBCX41lW3Oa4xc8RCTgP5mxEuKvq7jg7hAhJWFX7PTiyilfPpxIyPYjIoJXV2LWlgrTTnMuIuQWq0kh8tq3o+3PHR/8Zu3a6T+uNhTBE0XR0nXY6lawTxGe2oOkVfvSfrZRSXqApSxxjeQuvXV1Pj08et+PPPfkG3/kubdWHY3GS40WkMYRwruiK0iPTZ0ZM7cwi8shMF81ZWJ0SZ1sm6jzSHePVCEKLgs54ho2X8tq3RvyIE6ECBGhkPz4kSp8i4ojRrRP/Mvabh+OTV6Zs5E5c2hW9gyLxe6lwnP7k/dvuoQ9YWccQb0g3I9owbqP6vMSj8zTRIhwlgyLiMtYi2vTfq8u3/D3/uG/++kn3/D3P/1tZDQaLyFaQBpHCNfDQxny4aRWHB1yB2s0oDeYy3McsKC2Gc5XoYx6YZ0KLBjMlZBTZeLb7XCdpkrWy9eYu+A0vCrAp1fd7NlPAJ7GsxJpc4kYDc3eHGqvPne8appuLir2aCKCSQ1M28/Anaw194CN5iGOYE8Xjo4fCyz0wBY6U/nafTK9jG/2d766P53f/7X/77OPffX1Z67YRaPxuaMFpHGEELqJPyf22lbeIDiv5qQ/fKVyJSTxBD9HaAxl+qzZypHAocof1aNG+Py60hEN+YUtTcwuh5n+abcLm5CrZqemjFWm9qIyXxJ88Bqjbu9zQ1M7Yur1ah99kP2IES9PnEyaTbfSIQ7eT+uu23zUYufb3OFd9jZDW/Lptjx0cml66mv+3jPv/errN6+sDhqN86EFpHEEiFmk5uhgV5RnGpLBLkRuxqr1QejhY20edLntcOyyntOYuHPQBRzdUNzlSMYv2+b7GEKOm6u+0gr7R1rK7qCzcw9bUffa4vFy272LLzE+sLh8wkQvLXAbVyGdsu9TEbtWIP/qQPTFdgPV12MXAnaRvfWWch3F0OHsoP0OvG1/6VVPveHvPd1C0vic0ALSuAUh10QTmasIudU5u4Ui2yZpSF//Th+Co7J54T3n4tqmJs6RI1amcw+FySb1297DQLLlUmGfoadx8V8NInJxBFKT/4B8KVsaySY8/pLixx5i/3+waq7IwfpXO6l9c3uq4fQf+4mgep8YCvPke4lEdpOSA7osbpNfAoT32u+4ZMnR2b1td8+rnvrqFpLGOdEC0jgCtLJNMFNZIuBvWNs0CA3lTB5VCRlru8gTMlt9FushCrBbqqj1UNzGV+w8GOOkpRmoVsh15oNs+uTMW/riehLp+LXgRFPzEkWsfN5/yx6/JPj0fnpP9ZXaODJo79iRwNk0P307FFXlR+mxzjsCxF473f2j8htVzHBWKjwqT4Yre+t076se++q///TDV1tIGi8CLSCNYxTZipZEz4OcdeYek0NFHbLxgq1MiovKShAiLvaXe0S8bhZTCg/KFfXJvohTGUMycjqt4SudiFfEomGq8iifrMkJzdKa04tEl3fuT0l7yHOhuHnpcM8831zacX2bli5j/6oJScjuaqm+cxsP1TovskMFz/eoHyoZMdnsijdWAXKdiK7X0ukKw5aVq8vaI/fee+8P/8EP/vZbVy+NxmdGC0jjCJBUSAiSdtBhIp4dZihPoqIVveBsYhELi8+6428zHFPDYvE9iHwzXqN5E7Zy5l5Cw93mEgw3aG0kjZn9I1L6hxcPMPSQH370KuJnaIpA5XCzPcV/yfBjDzEU9Z7sLlVVPdveKVRUpFz6SWnZvc0iHTVnHTXwQXIqpjZafY8NBObgZsiODvO684ldri7pj/6BD/72k3/wx1pIGr8zWkAaLwj4mAlvJqNNxLv94CLuqfDNIGJ0ETh0xDh+cVfyWBsi4XT9Dw5XemwzFDVO0al4ThRkvpwGA+rukMxn7AcLEui4NPWxcBWIxcQ+VXNowymGLzme300fWNp6U+tqPCLBnEbtArHUmcpp8d5NpJkie0cXTI57t4gabG+pnN1HTjnylW21AV9KqZ1P/bLTQUK4qW++cpgPj/7eH/utj/6+H/utt5a/RmOLFpDGMQZteUIXlpnrLBc683aEwfSTu6ZJgqHMRmLs+KKo/eAe5yxDoclPnpbwmdIcXTgPy7TBRqrSQ1tERYo8Nuf4YkPS5JfqlKFdUXnXexScvIS453C4uSjc+2rbdU+0ckxG0DdpyKB9bWaYbm1z7UAKorPpEcRkp+CNbovIjF5ILLatf91OU+rQ6eXerS68ql9G/Kof+80nr37o5jUnNRpGC0jjhSE+K3ITyYqXhhCEAEPwEJhNzW5FfnCiObDI2i+LAgXQkRIIhMjElrq2ZVV/zcOYV1XPjh+4Iq/0RG84nh2OOIM3tQcj1gMSXnr82Dfrh3X376fubeRAW9mRiEEKVDs2UQGJdTNhmYTkK622JCoDPlJOcN/EsnzNo970j5a+/DdxSmoXVOjqkv34lQ/dfOzLPtgT7Q2jBaRxhOK3wRyDZSZO1UVATGXASOKlnNunAFSmt7x8H0YRXcpRwiTpc+GsE9DI1NvYHzSsZb5zKQsFYmaNkJX9+zHwrluJaYPbU2JSZStv1nO1UttLj6WyDyzN/oDIWdtwPMEDnUhC2htCV9+nfYkUnElHumx5lijZl5cRANS85lFGPKYdj3j42MULtVULJs2RVLc5zd2Yw6xufOieS9OTv+cf3Xzvlz3RQvL5jhaQxhHMb1mHXcwtUNRCQIyzZ95BeTyjag6/mIyxU7aIvy6vxQI+Mi2F8ux/PBhRLxJzxiw+lEioKMTq4pVvexiSdbfa5YqwR2rWUm/VpfT99gFaLzH+4TV68QfN5xY3t39O42pZGP2nZCmIdnlrsa5XJ1V6iYjz7L088e6O8u5LUGyPD9WpeReLjCxGl7l+d1varIPx1pPTw1Nf/uHfaCH5PEYLSOMInKXX73YU24T8lV4z1MUmuqkcDSiu0kuX8x42V0aJn1S28inr8uKjrbiYDyUA9lPiUoLDqbXaUmkRliqvJ/iqTNVlu02dNk2qrgTmoYovK56b9u+jRlSElc1o05F6gNEZCBxk7eZvhrbcrdkXJACTlfJdIikHPRjMcqME7Oljd00JSR4Ln5KuZeec8odtIpnsw9v2h8NjX/bEr781xRqfR2gBaRzBXGRkfMhEHq4Rc2hkH1vOV7lySpS/lgt/QZceVjJzbjjt6AY/iNJ/sq2oJ1jFRck+dcehUGxXTd1FjJKPLVnyW0NwXOaLOFH+5f4SXJrmm0tt19krka/oOLvIYt3XI5i4sy+U0/CSjdPbGaDylXLuGu2vbYZ/GXIM1o6hP6yhWR/2eh8iQitGNOKHN85qx4gM9Xe4uqQ/uohIRyOfZ3i5vzuNuw5iipAwpCTKEGfMuoiX81ymDMI0ymdEa5B+zmwhvOHNGkGJUZZClqU4ig+VL9sShiMkGvHL4kYB2Cyrzq+RI/utspWWInn8/MsGDWNNz59+j9ozFfcrAshuqpG1zp6pjclyC53j4SUEMdTNbpLtzlZebq6ULb2U/mAb5/ZWa24RKSMqSlnXR07qXOtRLtsROezmw9sO03M//CVPfPy+JDVe4WgBaRxjMwRkxvBwlKnDxOFM2ZpzeJlyHHFoKw8zlCiIoE198ucX/2GmkFGstjYWo/KjBT/IbguzJ3WKNNU22woyYrRttIP6jtqgl+8fKeZ8GXGyv75UyD0hBVP49mxfmyUUq4U62fucaCCisPPSjY8IFNxb1nLKIpybmqjDneBaslUChseIbb1XKmK2LHR1WMSObdt91eL6w1/847/2MFuNVzRaQBpHMAdDxuEL8w5L7gTfQ/TQk5ZeyXAGZ9VSDLjNxKUUM4srMFllGIlNLCRGFVlgF1v8q1WJbMx4rFT7dINjRTAVxehfE/y4tC+L1eqeMrlKbM14mfAPHyJ+e8+oS0IcxtUyNE6mOs+jbRYSl3Anbls69nRsaF5i09fUMMRADjFmIGrrzz3vFiAObg195DT/UccQHnnZ+RJjPKViLJX3yBf/+K/+hdc/ceOy0xuvRLSANI7BRAHDIHCxGcYbFpYDE9uwkghE60WGkPQMA4ptRPiwSrblqwTJRGrOcdRCUu4s18qcuZdRv8Ul0VGG0awZzGXYti75LZ4ux1WX60aAaHOVuy14/vCBNCtRhbdqOaG2br6J39tudEGNn+zAu+Ge2blvuZjB/W1Ptdta6vi4c/xUGVtUrteU60VtO9/DWtSoun3UlRWfsU18yg4cpvk7T/av/vDrn/iVKxg0XnFoAWkcg2+/xaHiDL17xL6CAAUjytJqcZJStT77yim7MRmNIbHtDYSjHohPSUXqMqmzc8pPOilGP2hFPrSKIHwWjHCZ2yoKUft5d8Ncj1bz4pYQt19DcbcF86WT68seXmc9/Tjy9CZiTnP1z7o7wC/PY2BBD0Y4sE/8NgQxkYj92em8j712ORW5GvXOaI5lwkNcq96PVqRJ6t80cY16ZFV+hihdufdkfuzLWkRekWgBaRxjsFWRz87DTSKLOtmcIetieIiajUQmDL8oTULiOREbKzVF4hD/UBj6YfapM2l8QJmumIpkvUY94avy5zYrXYayUUSCXTU3xLkXHadNtwsfuqb7aOYfDKmP/V3JuZopNU1elub9Qcq2QSzsR1dGQepkkZ6y8pliGK4enBYflI6RK6NdG2GpNXU6uXamBwFkD1zNKixLavr56rSfH/uSJ36pJ9dfYWgBaRwh3DGVKGgcgrP603lEFnBIuEkmuXeEdE5M4RdnFieFa0zwRAzOJxJIls+hbSTxKbsSroos0i4lQJFrOVxW1ZTLc7R0Ca+Hx2SltFxGTNrLfSPIBtwTsptuImvpHq+FfSc3i31jQ0tFCLVbEQmX4diUH0MdstmKDR2ouEKHJjakZpnWqHdTl2xSR+zsXbX7fcJj2kwxW1CrMu3VTdpNV+852T325S0iryi0gDSOYX4IycMprFa2yXpCWMquzu9D5HnpJj3bDP6Cacq/fXCGqjTuSHSe6/XS9cQmeaYqtAV42kZJnBy7wfh0W123yXPyeA1Q+8boy23CyU6/E7K7rp2qXVnJ2a/JxOxVd4TanvP6oNL3ekKyu8YHIUEIbzkWTHT7sCEY8bSKhexphXMtCo5sqi5ZaAissLf35OA5tdHFbsrYB0yXtNfvJSI/8WtvHH4adzVaQBpH8Bn/enWSz3B93Q7bTHL7juWik2IVl4VPlImNyYXf8bBhfOJXPONIIvWYyqg59blcpa8v7Cs/FMbM+qyRs5WTqy5HSfGVdsQiBHl78KEHJXCn3zvBrxD2un8mYBq2Mwu7kbUzJnyvey+8bzYZVo7d5EtedAhM6+TZA3KkbQquneWVOm50Y9ZsYB2XPT5Z5xEoOTvAP5+NSftgfeZxNtrW2zS//tLhucev/kRHIq8EtIA0jqAvuV+JPMIp4ZjiEJbioIpEeITI5LkFc3wKhn34oajYFEToNYRlTnLaXOTkk+AhPhl/gf3UOObmceCoI6JFXhEZ595pg2uKM/OzGfk0ybcJ86R7QqabtCbs7eZF99hN7boI3py/0rjW/OeDgghEgvSnXar9rLQF9byvdKbqqjxeES/SqC9p8aMt26Rl9mKP+TAosQ4W+uQD4s9T8vRss50ikXl67GpPrN/1aAFpHEHTATX0JJooAghjeF1DTwsPYJez1PCGh4X0qAt8rAIke5+kri9tKt2+LRe2nXxllB/RgU+/PFfhqMKnuW5ABCd0ZxbMfkyb9mPtxVFUdJvxoWu6l2Z6z0hIQyBaRM2dQ48gItodegdBSZFMMKioj4GTxNnJQFSVKDeM182bKKOWKcuS6CVs77qVXu4mNxWfBgpfQqLDzUq1kY8PvqcdNx2yc6lvev3JpedbRO5ytIA0juCzRBMEZEZEMIVjtG6yqWgi5O9J6nDSKgUWB09gl61FxafVetmJx1ScV3wULl3EyrzlkXXnu401WIMLpTJUhaDgcyMsEZUBmdRE+iDV24fDtH+PGpheYIfWXbeNdnht9Og4RyXeHTIpB2mry9IV2K2+sEkavbI5M3C9qcePc8cjv4q4ttF10eM6KFPCDNoz5fdNchTnRS8coVYTlKbjkc8XNS42V++957lFRPpmw7sVLSCNI2RCOnwiYpg32xVpiNih8xA1TGReMBUqHXrxyayLma9MRQgGzGS58c2A26jA0Yd8wbBzzGkLT9CladQYCobOYDe3JOtrW2WSeZBq7Nr+24uT3enNpTUfIMoSspNCtce7Rc9mB2MBGe+8g2Fp+il5vJQ9SaiGNIx9LpEZTivdHU46r/KFSFSzbulcWaihbgNZdunPw/ZFZCnTOhVgB3dXXn3Ppe+nYOOuQwtI44URFsmXn7Nfc5zPJJVXZ+5mI0cLNlQZmGWT7/KUnTYxCvqgGnbTaU5+LTLwlf+dysMcKe9UhkjChrrs1+0LeGAsjcqEP3UOAUSwxpzMtuBtwocePFl28/CDJQ686ZEsdOVgYvaYOOCYndPJoxdF16ufpFXH5YDkWbqkeKiqrNQvCQ08hKVkyihDR5wjEk/0Fq+0abRZwlDHZpJgWHN40fEWEUcods8E+2568A0/+YsP26JxN6EFpHGEfOGhKABjmE/YZJuYAfrIiSn0EDY3NaQM5CQiP4jL7UTvPGAxGywPvumsJuPNpCZ5LWSTpIoiUKzRMPsywyXRfnd61qKbg/nG3k4vDIfpnvctffObNFpQNCIC30QQ3iktnLZtv2nbkQciMyWy0ppI30NQtvXB8RYsn87CXgJRnYdNlAmfO3Uix5DSrsedm9Z5Ikvyh9yVWHgPokcumDQt6vhL2A+Lh8PDb/jJX/g2ZzbuFrSANI4Rph1km++7WaWYAS4Sf3lISaSfMvB6XRmF6ZRhdZWJp8w9KAlHVY+Yx5xDetULqaUM7XATqL/SREPmSLVzrYuTYg/0jN3xpciui/308P3tx+55XYn1aHaIHfH/pjsSEdButZcfhrJ0ONXQdiIF7xZ9wE567yM0lM2Bsl9Sd/5FEftOW+JLf/Y76qklB5ta9RBHTFjXUqVYekP/CQUV7bBkZ3npOE27S9P83q9+4saVVNW4C9AC0jhG+MMsxGtwihMmz4nYGB7g22/OgLBZznWVlghwPSn1JHfWB6OH+Ig+LEorE2aJ/fpSIfGROYzMnSIN1V/5FoqJiYC1ASa1qtuXhl0MPvLgJfXtX6eNRbvV4VpGAMgoRiZNS6XtNBOdTd6zMyZ0C4e3nY9F9Z5FJmlYa029qrThKxZOjUo4lSbnabxDOHb+ICgSiZEKu5cjNNRVIpLmZAde/+pXnXwfa427Ai0gjSMMgq5X6ILNcJvGrQc5a3GoGw+1vrpCV0QWpyUIJhUTPLaD/FW2SAZqjF2RkoTChXgV4WA0GohorPmr2Oxol6Ml+0Ly0vZqz4VgP19fevOGm+y/caouWEi0RhhHUm3B+xm2QgDSv44k1m4xq7tTNmUrjS2/OMQlEJaU8hlfrDtNXenow5V5XqPgoavxpAHWVbXnP/QZooxeSXPZw7U/8lM33jncNO5otIA0/uWoqCEMM1iGd595Mhm6shGnmMVFCAmwUIh2yAtp+PQU3/iHKbN+iPiIiDSf4TqkS8qkmEVDKzjhRT20M23UMpcDy2BchrwS3sXgI990j9T3fVpP76QTvSZU/2BxtJ1Ud6b2mA7S/qaj1DvurtWn5WOoppwNuSJ+PKp/9eRtvRiTtLxoe22eO17bCITaJBdbm/LhI3zrAVDjlpTdn72/h7LuCrSANI4xvt8bQl7WTOSIhU5v66QTHhqX1BbvLDaHPC+cyfOtL9HGyh0MN5mPbFNpggh/FZ9yoG0HN6TUcFrKbNivBlFG+8pvlVmH4i4a925uKqxWsx6K1h6nzWjn0S7LcOIaq0CRgfyoL8nKpcLlqzqa2CClLCEMPdEGC0n0yPbjqNOevCurookMB0aNLGREFjlaZRN3ulfE5bFh1/CwnCz8q5deNfVQ1l2AFpDGMcwL64u0edrrueg5sQ2XhSNYgV60Ggoxec1FNEXiSvApJsNXiQJUQOXGpbVKZqhJid6G7FNfzaPI36okftFIi5kW5NGWDcxXvNWQ14Vi3j9/c2nNdW/UWJ33b7QtVA/lZ2+8E1FuMbA7INrBQRgu7Ga8x6tz8l6ypFKU5xI2a3vapZJDhjwkFUf+APjYchCc52UpQ9KF7AQHS/62cyjk73YPvqmHsu54tIA0bsFKN7qktq5Ymk9Jh1z4H1GHvvzmPJO3knTGOxO1KIoI4ZPNQszuU12qYg6l5kMSN9iNcncVKVCwUI9bUZ44h3pJK35TW9OyvDbzNjOXC+tfXi7qKqzgiW+6pMe0fK9JukiZXdfpOU0UsdJ0BwWmXbff1nSqN7OLSszpPrLjPDF9eFwlKF7vo7ydOkLJ8fC8itvkgxnX+PO6LuedNhHJOMAc7tnpPgvgxedkJ7GI4EQl+UTJfP6uh554ou9Sv4PRAtI4Ao+fypCShhj8/Tej5MutLzq0AUMX58mOez1ydU24K5EDTiBIEz5C43T7VZpKwCjmQtVuSsM3TcCPh0GsQVpKqFauMjs6srCgKWNEGmZcml713wk4me69vixuusuLwtVcr7Gkl6cciFhth7yUSo+Z+IeW1sGY3M/pEcr6SK6l8YpYaJP+O5oXSa0+xi6AWNQNglIIlXYksYrMaM3MI0yoW4+iP5p4Z1/Gj1Ap/fXPvubyd1V2485DC0jjCFwhAy+LdMNXOn1EKPS1XvkGTiPPxGCO8+lxiJt1TBZhYcybk0soiAK+Csrrm5cFCR/2WSSD7Rh2UnlIB8oTT2ldRuvkiXlr4SrS7DK2aWNcXygOJ8/pd0IedYtEy06HX2vbB4EO2/QIO3osFjKJLeYuy7qSNgKhKlynhIOO4RhRlFx8uIbUAf97SYpFzx2JoCifanDNhwe72SclS9v8OzCH8RgXpVqAqNLVarmfD+98oCfU71i0gDSOoKEdhq5mrYtVJkgeBckQkaMMf9kzxAXX58m6KeMlpAeh6/HrJvwQRITGAlC0QY6z2MKXPbFOvaIjGC8k5lwDf64f/zVRPvYj69jBteOpvReJf/yWe+bD6elfZ8PETlenOw33UpHuGN7y9QrsDrtGeRQSKXF6Xi59qAclulxqKHv6jVT+HIHosCeZYqjMzgd22g5bxZeUhOOe4y3nee05gtmefCuLktZoRG2mWh2h3aVXzz2hfoeiBaRxDDMNLFAiIV4ZJBa+geS5wkokYvIYPEaCOCxRQATGXBbhqGEyJudTGIExR7kFslOy8jZ1M6eCoGW92hT/zGmE51Kf65aN26L0ulKMS5DvBFzaXV+ad31sjzhEq+4Q3nWIeDx6cXkSIxHpulU8UlbwgYitO8KHXCmjDslGCuhIuB4sd67Ojy1ZDqLv86jPyehkF53UtyOqmNN6C0N9onL0t2X8SgtYma899NM/d80FGncSWkAat4DvM19eq8K0nrnrF5y0zvmtTz45B07EIhsRlKMSpQkYUQRf4RjVwebpKgDwj9gpdvNpSAiBMtNUtFD8I2tsU36kOwLid0TkoybpEcW1HRtlvHj8k298lVr1AXeVd8g768lmWq6e9w7XKbp3FTlIJ2Td5wLWE2yDSAdlLSik2sDs7RRFKREp+3WV9B7N8QnCzu0YKjMiiRhzTJd/nStU3FNl/YBMjnGqdcJI43NGiZ4LuQPRAtI4Qkhg2uXsXlhvwAtMP44i4A990Z2s73y2QysSHUUrVcZMNchDKylruol79Mecpm2umvLw17j01vlEGHMJFJf/DrEIT2XdrJpqqh3UcOfg0vO+J4T9SedE8tRo7aSGhSYkXX1bBUXMxAJs1RFzdrqG3fewF37M+DaMXXWRgc/10BBxLPYIwbYkBXwisAoElWSBa9tkSMvr7NQos/qwvZuXq7d2U0chdyBaQBqfEXyr55y9j0td53XYSE9p3Y2ze9OIsmsbJcCDaai4SasoRJUJvSVdGyINT+ZPoz7IyEb8i6D8IEeXC6O5jsmiM+ZiJp8kV7gSfnPNXKJ8Z+D5S8/eXBbX3Wi3i3bDqPs0v9ov2EZS4t2k49fSFanIgudWIR7bnnRZeUOV9F5ai8VO+UXolMIwy8lKcqJ3NYqDgghYH1RhVqwmPNk3xxNhyIE1GXn4M5+9NYu1Rbz+ZJIbdwhaQBpHYDiKISnuzRhkBbFAOSaMEgCRtPLF0+aJugzTX3yRkBjMLOB0s6C3y2eJiNc9QaI5Cv2MrT6k454UWakNKUsxF8I+FsVl4kLq07/rlLPUN5vM7iR4GGv+Hq3TRvU18xBeK+Zld9x77mn21iIx9kj7HhswzvS1ri7Kdgxka296rLy3ScvB3LyIdrw+8yyrNDB64JWdGiBBYBjK0aMcl42r9BzUOFj2k3UytFS6bnbWTpsAACAASURBVDP59r4v5M5CC0jjCCbbcYaYM/hwCGyV4SSM9TU3OWvIq27O09w0V1zJRvMmGVMyz7jsmCfJsm7mkx3z6vLJyaiCjBApTWEdJ3Kbdo77Sxjmoc74TZv9fA8qcB0wlk3uNCwtvL6867LeJMweSsr+1C6x86NQ+sW27iuXLGub8ZLtvH00fDlBGCT5Lo2V5IuWOELw52JL9P5wcLzqeFCLNn2oNAzldXktH5sJdmq0vevwb4vIjX+LREKyFL586bVf+A7cN+4ItIA0jkC0IK0YxGrhsAY40WymLPjKpDWNZxvp+26OUnSirz98bjuXM2lwegvLiTTkwnmnEq3MZbhNkybUZ+ZAVIe45gDR+IcIEbTZD0hMu33+Kh8yCG9pfdCV4TJjfO6OwP/3ja/RPo3nY1XXhLknbe186ZhP50XMsqmIAnb3Gb8PULqW7vae8z628IDDdHj8WDlGtXKLmX9JMNEB7UA76vPBxsZeG6loiIYNVr9y4ibQLvJU/3qgyFrqbQG5g9AC0jiCiIS/Imb+TdpEA8yHkFh6go2+3YdTJ2rIIkzkq6a0zhklnlzEaSs5lZJMGdIQ0cSPUiEeNcOC4Mrn9a7lqk8v1zFbF2wrLiIwyZOFfQmw5j4Y5bnzvgb7/f4D7MPkiE79p3RoepdROPLd+V6qx+hY7ahVHKTsZivdtZMQAaWR6OjN9cRZHc2wfEhdhjlGPo45buWOSJLj6GO3HmvvxhCMIUQ24IBSKGn1uXHy7vK3/vRPX7ObxkXjzvvmNC4WUIZeOVPUq6hqKw6hFyhFJ//FV7P+TQjhoZ0pa5f7RiB2k8OkYS/4CoqA/RypWCTw4RVoSeuKQsx0zNGQx9VgLqeXb4asqMd3wAvhJO8HNbKlxrN2J+F0N19f9uY6HayE0WDvQyWTUssSGRLE9BPKaxv2OZMMOT7VvaUI/JU7i8N4VaJ6etMmTUzkRkD8VnLaazFIo7cvtS/mG9Qu0rKYlbisx2s6uacn0+8QtIA0jqHvdFGIT0ZNSCKOjUmRgCKCmjTPCWrx+CAB+RlCYoGADhTI6JQSb0QGtoEqRjtqlKaEJulpj8lyxlnFHpATJW26REZYw1flx0NklGcE7A7DT775NZK592k9zaPhXs+7NJetNd0C4VzydAzSGeSRlZ+wzWT5sN6UK/igiuxr+Mk1sh1xwW72b6JnGHPWJdoeZeOgKsnN8IY/LxyvJV3DU9pb1ROximKxjXrQKB042c/f1pPpdwZaQBovDCIKU044hqfrss2X2cMTfKcnvtcRG8q5gLkm3/tiKnHCpOEjUmZm2+0kpH5cflxCDJdYgZKtNlgaWPXwlmxr6E15zkdgEIrskwnJZe/cL8H8vmUfro8DIISy1S3edpp2yB2KAJSI2D57y27r8JjBCQEsPvrb6AadhginiC2VYSFRYYSJznT0QZ3ZlqmcZq6kmiPMZWoTixOX6OKzyuuYZNjSTVKaxUlOXv8Fr/1Xvq1cNi4Od+53p3ExGORajM9QEZPaJCRV8x2223GRlTjJS/87T4YQSSa4TVL60MEF4o/wSIF7PxIdGG6HtsNP4iBf2BWh4HJjJtxhPk5tNV6WhsCS0N+QPnys+7qp/07CTy1RyHSy+1OLMt+E+JWYyWTtBFKw7GRFGVyw4N7aoeZi3eTRcwhBSkZ5xziSlZ9DRF+ZzJkiGUQva/Uidfl4qDrZjptC7RyZ83aVdb8PQeAtI2p64a/Syob2E+lw0GkudkvW4cGYNS4QLSCNY4RQc35b8xX+LosrmHfwl3yQsNMhGA8HzZQjIrCbYJY4cKNhZYi3OEUOy1e9GlevPAHy9x8EkpdJyS+RjIQqbdm7jrTP66FXKvLu6P3OmwFZ8VNvevVTy7f0e6KAm11y50Q8SFKXs2H6lrAM4UiWO6tAf+RgJr10R7U42SKRixXoOGXafBVkDBEd3QC6VsXLYkJTRlXeZpgrNseihP81ciGtNpz+7bXVuDi0gDSOEFLyFzePKoHIKwIhXzPUWR1kbEogBvB3HRrRGW8RRF1uS4bpG+ewFlllMzkCmX0GDG2lzjQhQ11rGxyBFMnQYFbZl/LtcmSrDZCvcCcryIKffuAL3rUo6ndrh9Pi7GxZRBymmtvYCIOWlDPZZ9pnZfPhIb514Or4bwjfLx2PSNRkUUk06ePodTp6XfIoEn8m9GY/JUjUUW/OO9KzIWaTIhPXURdFXP73f+7nHoxZ44LQAtI4BuySV77kKIP4ABHJ1xtiDg3Z3kSu/wPTEJYFv8tMPGZzfOMCO/gBr/ZeYiADRqkOufEvdWFrrSIt7En7LGje9mPpZealuUib4iJzqIfB0qA7GD/zptc+suzod2dP8xq7Ou6T1BAXXRoCxxLxUAe488jTNvvtA8DRTAenf3OzZc4AlKYcnRG4okqkHsTBH5QcS50oFOn7SFEOGydVXTwsU+UrO/6ZW5Fdhs8QEVpPO7XseZALRgtI4wjm16zAM34VW0M6NUldBVwSWtISYtA6N17IREStc2MRgv3x2JFDiCBuPOwF34XcnKblKRP4Jnx0gTbZl0XDRDXILc3SNtlJRzvUjkMR1d2Dn3nTFz6yxBh/mj5VQlGte9CHqJhY22bkkVcikTJ0VvnRfSNepXyKRkzGa+3fTXpOMkZzEBKWkL6Op7g/NnWceC5XyvhY5yjxmRi2JR7b7dSyLA/3eb1xUWgBaRwhRMCX1A9FNEHDPCHswRhJgbwhgWyxzpCT+QqhEFxeg/Ub4SiVMeEsnnkE++wq9jsPRekhfJDLTh9aBmpSj/xV3RaY0SrqP2g2YNKloogOD/ODLD1HU9HOXYKf/YYvetfpdPpVS8tvsNcha52ds9PZcVKT54NQr9oOd5f9lIsbJvVVacCqQSUKHAOv1BJ2x0YEP4ayRtmQ/1oWg4N+SyTx7E63ckYkEBt7tl8dr7JLHVXXtHvwO/py3gtFC0jjCHAPLxO6uWWnBCiEM/hEIJwZZjiIs/qUrSGK4RO/8LfoxjloTjm00XCQ+ok2xPupj3STPuWGr2C44xVqLZdEHWVHOfK9j0du7ng89abLTz35Da+7ukR1b1925ufTb5rYCUMjxfSBxQImNgMj0o4CsoZcmLKL4L0cE9zaFmHvSmSyxC2fE7+0zY2FGl90Hfj1J2esU95tkRMrTvyqWYLLVGrKkhw7H7jd9OpXdxRygWgBaRwhZAA18P1e0rYEnu8/X+a6+1xnj1AENj6jhc+KnJ1etJaAA2IrZ37PDK/LKcUjIGRqLYKx0l3eRtvcHsguaSUeEbqaIrAQJb/83W1YhOTRp/7o667uTqe3L7twfSpFNfnqVB7GpdcndQe5gO10stMlACHrnOO789cy/kT4M4GJepbNCJerolO16auxfBluRRi63Jc6ePmzg82ow1dm1Q9NufmVpzfXpX8b7FpALhAtII1jmEvynChYKNxwnO90f7e5LLe4pl6IgOdtJ5/sJl10402W+h+PQamJbpNFiU8iDq/P68R78myGjc+9ycKHSQvHLL1e6X7tmIG+myEhufF1lx86eX53ddmfty0h2wc8ZqT9rhOC2p7GU3iNlcxN5EQPJvbogzrLjyuhz3KMVIbe8xCWjxll3L/2n/5f13frk5C9cN05ukM1UkZpNq48X13Hh031neynP+z8xkWgBaRxDBjG32HIOmfqlV7r9ROx+Z7XGT+MsxEOnaMyWF33ftTlt8qH+EVlEQfPl7qM2yCqKBJyPkSF8Cg9BKc82quoiFaU66O2K912Cox2vhmx6n8FYBGSG//sj1x+3y/+kd/10On+5Oq8P3nnsmc3Rjdw9u4Oln3tNUJQcxYyIa1eCIWPkPo8B8Vi4h8Us2iwjD+/RUTmCI2FKBkWA9clbB+K6fKbyXPaUHn6K1Eh88Gx3rjtaAFpHCNkK90oEdBrkA38Y9IQ97pMvs9iGrZN8Frqy64IA9pQki3lY0QRCIx43FHEIAiTe8okr1D2bkeJnM5u5c5UCfm4jvwd/BReP3upLg468vtKwcfuu3zjl++7/J6P3f+vXT3dzf/W0qOPLvv/86UE/PloucPVH7Xpw+mz/PB9DTUh4NjomCIt7mfZ5SCPfo8IHDP+auP8zfp6BnFrEdvYrLbzIZmu9kT6xaEFpHEEuD8jH+FkKKfEBGFx+sTXPVdY+THvU27cqHNR29V3XTYieBE+XDOMIITwwZS5EPG960e0Ul5t4yotc0hcrKseTjOwl7/4n/WIP1mrtNxXdPUKx6/d98VP/Op9X/z2X73vS64uB+ihZZcfXV43lGdRQEzZ8MKrSiNi4Hihtk6TgR8Vg38uyfUxRb3VuRIDT7QvS/uP79Q3Ze4MqIg/eFb1VVgoF9WwQJHq44+zab7nC77giv00bjdaQBpH8Kl7zjYnyGIleuUv3+fMeSxbepqrvvfehFeQGj9d1cNVkENe4h2lyTBnwbHZDGX5jeEmDBEcCAreyLOgivlDXLJzG9S+SlOyWcq/ouh2KZHNGHw+4eP3fen1T7zxd7/919/4pVcPh8N3LOz//kHW4urYsaRrLAYs3b/J30QPHJvyoc9QIg+Jgo3leHymcFKCM3lOhDLxsT14fBzxOUl4SNs7+EnUpDpOeyL9gtAC0jiCfoNcLwvAgQhDyIQBL33X4X8XSEmTvc4q13mFdWlO8L0Y+tdvTylNZCATYh7RVD0sMI8uiYi4bqIbvXxPiO0dSRR8D4lvVPSQlfJ830dc4aLILPmj/OcTPnnfv/7+j3/t7/6O/WF3demRty+v6yZ1RGAjChmmSp95WdFCPXE3SHShNY6vt5Eg0nd61Hv580tH1zb5rGzy/UZyvPgQbm12h7mHsC4ILSCNF8Q434wYSCeOJ8ItInzlnQrXm+R9dmoOcQBhYsdYZ6K8TOYjWlBluNWSIZNywQlnEQ7blh+X9fBLfDFElrqLe5QnO/uHiti2uDU+dt+X3vjY137po7/8tV/20POn+6u7/f5tS6c9kWPofreSGxli0geBzkZREkEk+rDA5Jj5SGc9wpSDo21fsqu3Os7b461PIpP1+GVYjI+H62NzP32lvTVuN1pAGscwYUOz/JQqabz4AvtrnS83YrAbooHQiKz5/sPX4hjbK9LATXgb11YgVQa3z54jIQCqSmNcQYajjUQ5pMzUn8jG9vE/mu/1bKkp8Ruhm0+T00BMfv4NX/q+G1/zb9w/P39ydemr9y3H84b6iUt5pzruJn/EYPaPSUH2Ee7YeWXYTzq4fIBqWEy5+UhxyFTKC6X7QxNhwYc/hBGjSb8jsrRrv3udPTRuN1pAGrcA9t3ple81BFxfYOXPjj6wZL6B80NHGyIGyBxRCWlLEHiyL+NVJhCEx/4rMoE1Zk5HzSYRMl9t5dEyTmtpj5fjp3TxeRYWPfkaS1tv6nyhco1pemoRk5/72q942z99w5dfXaKEb550Jdc03yDKqA/DxAeDg62kSq4Pz0r2I6MORJ60LD2wTf2ypVItUjblA+iq/PnJUFbS9Nm44u3G7UYLSOMI/j77zK++tzUqVNt1I5hJWH/5Iuv7rYcUUsYT8HVGOnPiWIRgkWHV0y2By4YX3Bi0SRsIha/0IksiNU5Iqy28PMQW8WE7Zb1fQy9wsZk/aXxm/NTXfPn1n/o3v+LtP/mG33N1f3r6Hyxk/yiPc99xZNbhqrwmHczFQGTPsJNWncTnoT4k/oD4E5Ji456QfFgqAom56itxyQHezVdSuHGb0QLSOIK+80yET0UG+p56qKq+0utj0v2lHsRtTjAxS0sy7y7zyvcyEYx9WEvggTo7VSW1DOOrDW6MGzHBJq6bSv0aWhZhUf3OlG10Ed85i13LND5L/PjXXnn/r/65T37Px//b337i5g88Mz39keem+VPV8RC+RENxAkNbXvMniINh9s8xq6EvFdDxH4eX/PVnbPN51LYT8FHC1bgYtIA0jhEi5pvOxLmChaiAJyfWL+yGeCmS6IDvtB85AYmLTGr83GIxhjGKROLKwnIrLDbVBpchctlcAOYmH/vFrTNMPn6l+Zzlev3z8yKsc+Mr/sOffvhkd++Hp2em+5554nT65PufnX7hz/32/In/65n5U0/p1IHDkNCQD8EqEnohKhaAI4GgXIlJPjx1ZOtg5djqM5VijQtEC0jjCJo4Z/LcTC4S8Be1TtjFymdexfyMTSEkBBn2YZ+Z6DYhcEe4M8v/GZ8OQbSeMGOEHquf1JVLd6ssVAQRQUiOPCpv2Gnh7XGxQON3xFe8/aevfcV/9DMfWfr34YU6XrfTA9kRgD1jWb/94ed3v/yXPjU9+eefnv/5h55bBSMvwdEDx9Lz6ENkkl/L2bajvA/rEJcc3Mr/yhRr3Ga0gDReEDAwv2nrL6041sv6wq9nixB0FUq5/OaG7eZSCcM2LqeNkQefiNRVTkGMtz0UxpVYgzQsUjq11dms3fseFFRl52edyBeVuT7cZXXcb1I5jc+Eq2+/cfkr3/5z7zqZ94+f7Hf3+Yc8OAocDGnIfq9LKSwkpzfn3cf+j2d3H33X0/NznyS8y3FTjBgB4FgPAchrjVJ8kKleqEPIGycU/kEwH/jNR6hxe9EC0jhGSHcBz7CKTvDFVxQh7vAktRI0zxEmMKEPYrCvKcNam8iEsqqijMquCJ9pipEvIRFH1YR8RRIiLW9Pugx3PBixIia3xXREWbbTlERIiMvy31+Cz4zf+x8/+Y79yelTSx+9gwezo9Z0/tK5ejSMH9DOZ0TJHpyi55/95Xn3M//V09Ov/s1PD4ZXpoaqiC4cjpyBI48MW1Gggo4UcV2tGncA+rvTOALPGUQ4zMAiW4mEhnn47urL6+83+fpGe048V84oHoCcQ9BicVz55e/99ioaD3HBR/HvyEPZebrugkMeL7+d98i2bkLAp5tc9TgYwcep25+RrIiP96EEp3GMP/Cf3Lj/9/+nTz2+iO+7lw66rAjjhEhDJC5RXl4ZwWL7hKPPcXf63j8stfz9yg89N/2T73l6/vQnpwpZ8wHi0PogRBD4EJHuI8SoFQd2CEZdTZEkC03jYtAC0jgCZ34h1YxLrSeKGSHSlzbfaSIHE7G4Wmf3Lg+TbNLLAcbZzjTH4BH8hJCcWGe6K5TFU07cEGNTHgGauXhLpYeJm5TViJIFZTefSpwa4Oo7b1z+Q//ZjXftTuYPLz10zUHcStecMHggasociMeS5j2RwiIkHD/9E634gE7P/cY0/ex//6nd07+U8MPuePmKrUQcHEDlRms2dkqUiY+wVsZx6wN4QWgBabww8j0uQvaVSsv3dxMB8HgSvtl19p9oI/kmlo2PLYlvl44MSMmQFzcIKtHPtHJjJDiZFxGJRKBmHtHuxprMeEkZIm7xz0p2Kme1FQk1hD/4n9/49lc/P31k6Rr9jkgE2GJv0le3SRS8aRsLvv75HcHJP2mroS2MMHCk+ulPztNP/Pmnd5/4B89RXx2rsSGX2NcxRCyGnbNs4iL5m+ffLDeN24sWkMYRao7B927orFAk7C+xWXj2fAVfZJ58G4JPHmY691zJXxPqFoZ6mKKXLoMqmZnY9gMQ917yaJPyHbFyLYhDXUE1T6es2K+rpQKZuH3jSbzrgxXVPkSQPf/8xVd/542rX/POX3h8CR5+YCH6K+qPullUw1Gicm3umUxCLDhc1hQNZe3zmBMHHDriNdSlRyc6UhHTu/xH/9fn5o//A4d9KDqfEQOXefmYl4CxnTIup9MABGU33XTpxu1GC0jjBTF+q4FHkHiegmUmwaMrZovi/pE+rphKZKKSQ2dGedIXJhpiFZ96MTdPeZdTY7Z1S9mkQ+UH/go8wFLc5GhFbXR9VWc9RTbR0+chrn7njctf+1/84sMn08k/WnrrmnutRMIvpWn+I8HAxBVYSVNPc/6vnmXTUYdeOppalpDw0p+WS+ZH/5dPTx//4PO0w+Lgg1QH0TVzEN0MeRymZeOt5bPSAnJBaAFpHKGGiTjB19VKPsnjq2oiXwnXaSL4ilCQgJ3OOpPNmakdD1LIOSX+HK2IicoMkdga2O/paU44hx3CgB4I4RheWtTkO+0iz+0026123vr8u5Pw/j/ziw990T2XuKdjt9+9nm4YvSuK34pIHUdTdn6/AxMJBJfwLmU8/UH6pAl3HVeMVHLcjc4nAGdPfv/z89O/5M9OjDksHNiJ6IO2IEdHnxyKa4xS/jVk1gJyQWgBaRyBr6xWUA5/ZR1ekFZffn/FZ3/pZcd8wxCXWXMlXC6bx5kMIWBZvvBmuthSAy1gu5Z5TDuX+ro9aUaiDEySt/qyCFaFOlV2Gywmbh95R3W/snH/d954/X1/5pd/YOmHx5b9vkKgMKkLau5CqrDjPAECV3+STDr5gtL2ehxiHQiiFHVw4j/GtORzzIXIA/eJ+Oqs/Xx4Zt79xP/43Pz806rdukEp2Var/DFMC0eEQuJMlehLC8gFoQWkcYRxlh6iDtGatJd8jTfxdQ5ba7neyR0GNyuLEHb+gmeba4Rt4zvTVbx8qB4TSNmI8blMV2RRLE9eDWdVGyIEZNQlx6IXn8WWUND+mAkwmqZNPk8CkPv/7MfeMb3m3ieX/f52Enz2Tnd4aKr0IMGC+kxHUWKyFY79ljZ0dHwaoXDE0YhS86f/zJ0wnxJhqtezv3HY/dO/8hxtcbnxGfIxrc/CqI6IRK3yMXZUcqOyG7cXLSCNY/Cl1RfZd2on+uDLzHOxtKFnYpUhRJ+ijjawHeITkUAMiuaHT5d3GRv7Mqv4m8wXTt+mTjB/bYtIqFrRhhUo7ixUTORUpZSjHpRFeRvnr0h8/SO/eO3r/uzHHl+O07sWfr+8Hgd3IZHHhtgdWShjQhxE/C6T6MKlbD+OvnPUsxWpkD1yXHbcxU6O6/vEjx+mX/zh51fhUba1P8Nl8UK6nnIQASKV4/vPbNG43WgBaRxBfEs0kHNOn/AxTDDBMmEf6HjWE0MY5IL8OSPkO64E0ndJkyf5sxjgynkwiWkJM/u2jYWjhGXy1V80J23QdqIjs+EYnqItbCMwqTvt8lyNHGQfQ0WvNNz/3Tcuf/13/+q7punk8aWbHjTzTnmy5U5kDtRlvtpqxRjOYrmfFVnkpR7NzYI2geTrCi33qOyT5kt717hkvcEwtvzd+H9Op+c/xcGKvJHl4+eB1E0Ds86HQP/zEyOrcVvRAtI4gr/Sk1kFNck2aSHb+uLOefQ76YpQ6kSfIQZxeGmAo5cIgX04rya7t3lEMmO+w3Vps9qVc9nRVgY/uCIrbfEIhwMM6okIeScQxM1cyCbvlYNv+C9/7W2X9q9+aumMd4bQt/w7yH70YkUgGPjYmPS1VJePIM4nFYCbBzEwNMexCQ4QDm37cTIn3MruvBPNuNd8yLI8/dQ0/cLjp6qFavXKQ1J8zGkjdbkRoy27+dLck+gXhRaQxi2AsfniFoGTwlBQZYekazNFfNav7RIOkTX0pNcQFIlJkcwejrGdiSxLHJksTHMWh4gJlaqe+s0RD3XhnxYzmmXWsW88FfGp/au/kfgKwAP/za9cfdN//auPT7vDe5f9uuze8B4OefCYlfs0pK8FfQd7u584bhEHAooMTVV0YtQnQeVIX3z4V87rGDvZZUodOBwplpqmX3z8sFuiEHkQNi33GYESdNxGUa3Nh917f/8bOgK5ILSANI6wPgsr26UgWT8UY+uvpkImRMHpmXMICaScXiJ3OYcNuAHRYuIqbHcYE+BSAEc3iR7WZkAqLpOTZmbCoRjT3+wPtm5EHIWIOExONc2C62VxWg24i/HQd9+4/MCf/7WHD4f9R5ceuZYhI3cQlKudF+mKi7W/2vDjR2yj7VIFqYXLmdqLs2PHQxQtPH4KLxEGdlXMJYgVuRk0osNphu25l4T5FiKREYU45LX59gRCfyruCgCflV2LxwWiBaRxC/SdFa3Crpzu6QXdb3nWRI8N6zrxHHmTuUNiIoOIihk+d68TGcDmOxXwXev2q5f06NRzHFaa1Ff5JSzk7aQhbLhsiVxNmKvi3IkegbJ92nC3fwne8t/9ykPPvva1H1l29hGGhpLOsBXErnlt76X2uu4o1/6vZGxyL6LXUrbQN5PpGa4iafZDFeWZo+ZPiY5tMjgmiVo2jF/Qh2MRIe5Sp4kcCqX9wvXDVJf1Otrw8ZML2+mwZR1Xuxu12rj9uNu/O42XGCJXEQ68nGXuAIe//SW2LV9tREJLfbc9ryCb8RRdk5DFQSs5wUwZCERpIhsmueVT9YR2bBttoI7wGpX7ZTEQ5zhzS2yHU9qOXd3JTh5GpK/P97rL8MC7f+XqN/6Fjz9+2O0fW3j6inbL4Zx2Tn1AT7HtHWe8MH1kK+YxtF6T4krRsVDaYG28QfWOYFK68nKgWNHx9+ORve0ohDQLl5bxmjoREYcuu+ef3k2//MH1gPiiLX+u/KHgTIUd0/ryofmRYdy47WgBaRwBks7Q1OAfCwlbpGljDF+tY9ITcx45c82EBENJq6N1PSTmYEH+KISIaHMVEzWkBIGE1cZv8lViMF4zZ7DUsSvhmLwZQaEci5reuZvwlvd84uFL06UPLztzbT0APAFgMmmHmNllW6z3eqi7LCb0OcIScSDPx0bbNfeehZeEGtoqMXDZdW4EoXD9ZA0fFqbl7wTjHKESsdTxiR+3UGTTFRg6Ygl2K+LtK7AuEi0gjVtgBmaOosjdioAgFJP7jNZ8ZQGAk47SVWSsZDgqBaqc6Aoi0eXARXcSifIbc4gDH5P5S9vakCH1QygVrAxyYUN1xMdGqNS2ap4XdwPe8u5PPPRN3/vxp5ZGP7K8LjPUpOBr0tAU3Yc2FOVC07yUoDx3LSfvJSK7iCyrIfJi8/KxoXEFC6OeXIm1CpDb4eJVnwVKmbQxR73W694QRGhx/hs/O82nT3OMJx9DHyCGtdwgPiBL6iff+/u+5rpb1bgItIA0jvAT7/0SQuL6XQAAIABJREFUvq0MYyAYEwwOE2/mI/jPuqlh3mm4SOsiI3NNPXVX63qrJ+KqGJQeH7o5TCSvCjx8UaGMhclP83WJaR2WUsmRXkQjX/inKoiy8rLEPm2zCt35Y1gPvefG5Qf/h0+8a39pfmzZvOL+1S5BpiHbKSTvriS/kpJBnrolnG0R8UR3CVF1fflyMR9lnnMG2XtiHC7HW9qiI5kTh2jCEm2wJBLxnzxt331viNvoQr/0o7U/bp/3QcdQFt5clv/YRo2LQgtI4wxgEXFGmMRUVDyRLznDVU73PRuQsSbI5YFoge97JtLt2C/Z2JGHT5wuO5MVZFTjSqpH93jopBnisH9nmVvsS1kIzpjr0HuJTdnARaNJbrv3487Fg3/xN94x3/OFTy1tf6d5dkQS9Dkd5je2taNjfkEpJvR0FMexzH1MlUsh07ueVII4RBtS1aacO0yCMzkMsaOdJusdZVQhNw7nceJ6qtzWeV2NpQu7fuuXslspEps6Utp/HeW/nu3GBaEFpHEWy9f09PkEBz6BH0KQIEHcDQcrqfSBoiFvl/OrfBZpa72GTMqWVUTJv+1B2REYiGvMIUqT9SD+OTlRPRHSXib45YQ462pXlUGPcpYuEal67iw89Bc/fv9Df+kTj+/3h3fP++l13l2Jh/OjEFrLGbrX8/K+JhttoIx0hMtwV3u5kS+l7pWOXysC6XUc63Htoo3Mt6h/+Vc5Ryfxi89qL7ku6wcqMmxlfzXkZd8u/8mfjZd8JgQd1+FemKfrm63GBaAFpHEG6zCSXhVpFGlDY6IGnrirZ5m4DIQt/vB3XF98ypq0h9roOVom8zxaRBkeolI52+FAxG/LusM9PraoehnKYt5G/4dBj7Rp8n6s4jYKap9Iu5Pw0KM3Lj/0P33iXbt7dh9eGn4NAqZrPckRPt5gG4XQixix546/MBgE7ahNtiizLrVVd2wn2fGE+KpziuQT8bkRfAZylS7+EAUJTRJU3L7WViu6cH9LPyrLNmkTUcinbu5n3VQo8AmsT2GO/2L7830D4cWjBaRxFoPAw+D62org9d0PYYdz9bW2CEDGPhO2kIScJ/94E2KTIvFNXuhh1MdGiB2RgpFyD0eN65O/rmsEzfGQ/azul+xTrfr+DzezuKh880rZi8e//T//2rfvDl/wkaWv3xHO1X4M1eCM3nueVpt6a5iqtIIclRHxT1xplv5yhLJILPMeUgT6Cv/WC2+vTsYlvvzOy+iumUhktkiMSLParDcVdR1uJdoxV6LLJt32iYx2vqLrmU9mmCsucYsvjt31SmtcHFpAGmcgMoAvFIhsLtdlfkPDQlAV6yYb25q5c7WVAg0YhD+XH8RnsjHnu3i58xBVilUaRarOLHQmfDglzPF1uGJC6rBQyO+8DmHZLotxPwhRS+VdLL710ZtX/533feLxJRz4gaXJV+gktZH5DttAvtll7VgCBjDureCSWHc1pO/EnSayWXX0sdMjZGygPqqjVBHFpiDv6sulwJ42YU8ejuy3rqjKFVoplXMQ29GgEg7S2HRdbgPbtF9Jv/ULboBKaPhqQn8qrpr/MgUbF4oWkMZZcPI/8c31mWuRP1/6EL3POPne25Zv/akjA1PMnOgDMs/ZrQRCDDJI3f7KP9uZ55AZNgQN8GkFD9IG5ZE+yTzCNXOHc06HU7XKb24iHFWFz8a+XQQeevTm5T/+Vz/x8PO70w8vzX6QncnL1Jl1LdXYnL3zFGT9b8i+SmkXded5dcOZXawi8Y4QJI0uUt+Wu53Kso0Tnoe1lld/5gqqJLtTPbehV2XKZ/ZBNtYbv1xmn31Tkst++l9MN48aPtZ3N/ry3TsDLSCNM8iJHuwghl5pSelkTDVvwSmmIoDMj3BmO2XI6KjMYXBdrsIy4ZvReZNtruKyT+qofA9jpf6FQccjUEKPURltKwfBwCd2PjN2HXgj+sj2BeFb/+onHrrn0vMfOZmnR5bWvY79Ym8SdWiHpmzstPt0BN3hy6zlZVYea56TdoThfsqRyz5j43cVoiS9Mu8xqShA0USJCM1wMh1rN4pGrPGZP3GoR8fTHA61y7nWutdDh6guGVY2+8r6RJ7rofB8+ik7SIrOYkpvrttv46LRAtI4Ax6MOM7YTeZbEvLP1TrNRA8P2yTELSqoMhEBjHgSrwskJMl66iuK4j31MYvuITL4vib5KTOMRiGetcW1v7b3fnjynhe8TAbOLX63Ed/6v9+8+u/+b7/+A4f99NjChlc8KBitmCDt0tpJDYY91zzIlQKmaYjVDtgmP2aczXNlFcna7crzWb5L2I68teI0Kes7X0WFK6TA5enPnBqUCNUzriyEcRBx2J/ULkz5pUL5nexR/24SzX32t/aXq4FpBZ4Op/P3brYbF4gWkMZnwIFhH+gJoRDfR0x8Mui36ICQFaVhxxnm+Oqb/LnEdvKEOESeckUcaIPnXVyf8yA5WJOoxbxGGYuP69HLUQVtsGC4gbJRnevlwz5L1m+YnG7p6WXGt/yfN99xmE4/vDTv27St1mpZVM6+0nQTb7h58tSAj4XtoyhVLn0p1GGIwFSyKxoTJ+kGk7xLZLI80UcOvf1wCNK48H3KUlIfiYQH9mMx4d8/IJUN9bfXs1/xa9dll5fzscGa47l7oq++unPQAtJ4IdzQl9UkIRKvIYbNy6eUEJeYvoYtiA5Cco5kZgcQIe8ic8rJHqFRkVyKW8KxiXoov9bLh1a+/Qh52yvdz1S0UCnR2iFy015Y8DTEZnvXLdyOL8G3/rWb177lr33y8aXSdy87/DqElKuOoF9EVX2oVe9FuldvdBBuZsapcl5vCvahMd06sa58YrdjB+lHVMzN7v7kOxqIA8QK4pep26QcHxwvU6P9yG3EZwiDw4pxU6E1wdupO6pQAkUrpZJxNE2XXmu7AV04vpvfc5TWuFDcju9O4y6Dh3tmTs91pZPDj/ot8ZXkwyZOzhk+6yYaEfYkAtrt/KgS+1lPlYkm4lBr+v2Po/FzJ8/U7ZXUZV4p/zQKIXJ+Ci6u/LvnKsaQFruyttv+ln3MkNjLgYfef/Pyt/y1m+9aeufxpcJrS9JQiT1tNHcqKXpIOfdbEbd9wc9h3yQNwvZ2vVssYy+r2Ek8q//N3vSzVtx1boyInv4vcqctODvZeI2prCNp9lpOy2zbVgsEJTkq/J4INtLTiSuDla2o5d7X+LNALuI/3fi+3/uG98Vd4w5AC0jjDBYqf4KRqskEwdpgLX2pE5DkSiyRdaIBvvg1BIJmzIo+dpYT7JWQezq0dari9l0+FEnw+yDxXcNWtkvkggC43Hr/Sczz+JJ4kI542sTbLlOrlM/GS4w/8f2//rbXzvNTOz2CZDK5mnRNxit8yi/xhD+VIoOZZPW4CLqaPMjZuzF7I2GAFUhvSBP76ezUGwd1DMuhCu0oY0VjhbIrRag8nvFT0YwFQcFTdNGHCFuLRHZo1OW28E4bh4/Uwe0liyhdenUOoEtq7QNjtXFHoAWkcRaH0xvik4oq6qwYcvcJPYnrkAbX6cPUFoFFAE4PEQFUhDSf5lJ6spooqoGTVqIL0UMtGbcqcqFauRqRTl5ThrMQGq72suipwGG9Moy/VO/y5tiVoF4afMf7b179995/8/Gl5vcuVVyudDrDrFpNN5nCsh6+oZtiW+UkKkO01eZqMM3PSvE0ruBhIFUa+xwD91kEwvZVxm7M//7DNwbxkNZt+tjJRAi5j4T1NWufCXuKjmEqhsi07XMCV2r/znjN71q7QQ057Pffs3pt3AloAWmcwT37+edreOkkRBH28uWjHi4yqZmduN+D/2VFQ1ETFO9hI7OEUhyYjInsA4aQFPVFMFyzbeSeXxisoSfbmxUlF4jJSq4iIjeFdNqNkNk1aURXtlCZDdV9bliE4/Kf+Bv//JFP76YnF4J8UMpFiybvjPjRO5yYYhDzRhTUo0rTexLpCEjXZOx02Br/kG9ZYUaNVRw/Fox65RHstne3prDXR2MSZZDCv9XZNajto6y9jfZoJb+hjkDUqy7njT8+EPh3NXWIlw/afn7N6/1k5eDR9175QzfWzcadgBaQxhl80dd/0VN8x2cebAgx///tfWvMZdd51trnm2s88XzjS4jdXMZx1aYkoY4dyg8utRMq+EGcDEowllAdTH+UIpHEAqniB7aD+IFAta0CFQLhmD8t/MCJQCShrWcMVA29xJM2bYIg8UAFBIQz48SXGc+cs9nP5V37fPY4iU8ce2b8PDPf2Xuv9a53rbXPOc+z3rX23qdPL5HIFYngpsE1zgfAfLx6i0y1I09EXTcWdla0LxAmfM06QdHBficxsCDJRWV1zApMX/RHUaNftleVV1s4jIadRETtqDWV7wXv/7enbjm7NTw2VXh3VSNexJ7ah/ohHFVGIlgH5mT3oe6/0xmCI5I/O2U9tAgUGetcyRX2i9xVAQMcFlGkoKKoyhEGVmRQwM56I401Juf7QZFrEon1jvq9kmjBHcHmr/1+uiphl/34knUVgchg4PL6axGOqmurs2cTfVyAiIAEL8B1f277i4s9phGSkmhPjKS/zhkwEJ+ZEEUsHPN2Ghp7BLHGQ7Q3izNCEes7WRasTgJGPhoxRYULu2xqviuB6w1pvPQLjqtG+GAyX3BcnavbSjbCkc+euu79n/nW0YkeH5l8HeZZo2f1ofZ50KFW6wxjWE529xn1frMPRiLsuJO1YXErFQ9AvsqkoQ/HssdWQuHzhuigl9NZkmgp6kBmPR4FNxqqvB2pa7BXZFm/KOi/ZnGhHihB0Uc1hXmLtQc0qpiCE12ZduAHVidpr8/MJx98+w0n5tLBhYIISPACnN7XTh38wb0kZH7BQXIepdfiN6aFSjCQjzQRCCMAM6ZJ3VNWSOPzq4Y+PJYdytKNyyOJl/+SQ8Wx8mui0RwJFYJtoCvVh3aixWilh+FoKFwN/Zgm7Av8mrNeMt7/2afuXratL0yub1aKAh3uSUnZPMjvGne2anBfKEC72FXlsKV4tbjQtkphQQcN5tlyep3OtW8z60WuWZ0OCT0ri5EkNdbnyk0pMqcL6rrfG4mRRQA+9F7IHg7YJlVibyUaJSRwVhdZoKtD6d/g9LWoZvttq0M6c+3x1dZWoo8LFBGQ4AV4+HA7ddl1e0/wWw6ewejfWkBSE+2AEji0RBm84NvPqaFipRrZgyk6gTUuzltnhJERhiKENd9cZFV+X2MhybqgKprbSEpCksVObUYB8RztzWSoD4nMfokRyJFfeeqWWz/3rccnT/dMVeERJGwW8kB+OCedh02KvaveAugTh99kZbZcTWQzlcZUSh/JlKrEfKrM6AVqvQfI7Q9VlIU8jmhXpZOVRex6HInsLAh0YzsdlYCpiEXBzUIOhYORBNs78NJcONdAQb89gjDD0Qh9axBAv+wN07W8g/3FePUfPkv3i2HxQNY+LlxEQILz4tA7Xvfo1j6SIcmDiV0FaiGaMkCbuomvWF5C4uPy4X0S7tqWPm0z+9J6i/KxeA+OYz6L+gov5U8KAL6sy7OWo4ROdaKY68N2Vrh+rAZ8Zxw5durQrb/89IPLVXtk8v5Wl+w0qiaCD3lWkEvSVWlt6pVEO0Dr5IXp8FbNwdYn3ufOnE6yJ+myHlaEfRZidSzKKI/EXXYGGjWygM4r0txEQ+2SD1W6Fllxnkkl5J/agJyxhAzpFANfZlURDN9h+K+FdGRDaKhpvqlyOti1fxwOXc9rsU/8s7f9SG4cvIARAQnOi72Xbx2/6sbLSE8SCw5+RWwiPP4HASo6ABl7UOl8EfdcRiykNGSRhDwlJiOla0tX2l/1RXzrAJlZlxm7CnOa/am5qk/eu+953+2Bj+8cgnzgV5/96Gq5+2vT7kesVqS/ol7TOvZ6GWRSEGsUD9IeRMYllKUBMvAf8vXCgg6oUIjRA4xkhgYgzQYWCpF+IzeXb7Zl7jIPyky+dDNgLd5XDbRDNUh3EvNoWylKZoxiUUGnlI328qoverbY8ICX9ra1SJNRS2uIPiaD1bhc3bXmP7gAEQEJzouzY/vioXfu94MJxcYaEJP+bKVnjPDbT9LWHePI56EChk7+Tq/8uoTL01sanRb5yKXvficJla2G9bzslyQ18kZDzukb8LHC3Yu97l7/rCpMVt63w5FfeermW3/16aNTX++faj7IRBO5WdIOJBIF5NP1RIqYrkGjcEzq9YvOm/JEq8Wva744xGeeDtEHFtMBib/n8XUmbpC5slizLpiiADEM4RaW9C9T6S8CAjihqNBuxMmzX709Gh9gCyGo5RyVY5uZQuFwBIIUnBc+il6Noh8IbIU62L7xprPw/tCDP/SuT8lrcKEiAhKcF8sz7fiB6/a1y6/fqyEz+VzEq5v2JAL42tf6AyiByZwW0uNLkCpyAdHbEdYfinfJoCR8OO6iUoKgukX8+A8SVN2yw/68VlK2qtP8XjwvcWMHXJZuqh07ceTYqe0PHHv2vuXW4pGpEzcjbeA0kgBR4EWm1k/3da0dZEMTM+uVOLAxDAxYigIx5UF6nSJfIGW7m2uBuf5mFFeX6OhxMWRqeeyjfwWRPA++411CyFwlMNsqRtsSFreVryjGK6hwGZYrxh9L2YB97+0cKCwojctzlWzRRFYXmSny3V617bedy8L5RYIISHBe7N3XTk3f6GNv+oltsQNIjuJAOiAPaj0BPONCEhHxkPWCfyU45KxehX9sSrzuJP6R1FEeerJUnZoxchlRXadcaYkWpRWZKPIA0I4SOUqVR7+uiWRIwzXcevTMB1dt72PT7kfFq7MN+ztAHjuzzlyNfXIyiJHN4+haZ8wAY/ZGaGjOtJUFpvzQLWtmo12UfaVAOJu2ilhsI3c4IsnP/miCttIP9mjI02BBUx22dK78IZnRaPmnAAz9lnOl+73A1l7YPbnEPpP9QMVWC+w8f3ifpnKH33caNvdm4fziQAQkOC9+6YfJ448eeNu+duVNl+mLT77D40q4aK0RvK6PBQOQ1LheQTrSgwz5Rzoh8xlOo1c4YZ73UYbpoCGPTKUKFQKhfia4rPfsSn7JeKAmts0Pg+x1UGBoynyLzRR1XHfkP5w+ulisHp7sDoPo2RKwG9zOU0u8kFbjb4/qlcwaSJvgWtghj7ztkiRL71pIaG/yZVdKkLDHIqq32rC+9sCTz3M1p1SuxUwu8Ce+H2ray82Ay+qLLVWXHoPF9tKPLsHFvk+l+13KJ38SgrW09UWOqkMPTizTyQQ/ubv30Gp8w7vP3Z8HJl48iIAEL4pxVzsG8nvLn9keFnsXfhw7GV26UMRZzIHoBARBIkQEIYYgkYkclcF9vDg6ETPWWomPZ3EA8YB6VJfJiBWoYtppTUQGDX51PF/JRaJXO+WXDYXNrn3DoQ/8p9N3j4s9X5hSbqZTj5bNrvpNCwsKOXqArKlLahPcsbsoW+TseqvteFn12z9Ipc6qDRLQNq2bqAiqps8SEnhlHTxPqqwTttpC3xRPvF/lXKdNDSobdmsWNXaZ1fXO1XuKIrKnYrl9pY1MqBNg333dRRX1ZrC4fwoXfdKNim/642ceb0+dydTVRYQISPCiGFbt0Wnz5K7trXYtprLAlOAs7HXiIJFrOou8zFxQCx7V5EX2GmlrK5N1H0wjXZFT6oC04gL8U2Idwp3Ehulm7YFRkQXCxc2kMIXoWNCAxZ7h1Jv/7MEbJgq7ezEstpkLL3xpmBejAvY1ik7UJknU406Y4DtNAsyv9paddxlrMdcjeuZLoM3etJZQMl3CAn8suiYNdlDHFi6KyNpx6aHJX+mOBHheKljoQtArkD/u+Q/2A+9S73a9LvpG/kKXBOutlxjJd9c9BihXv/O5k9fc9M33PXjDDafoKbgoEAEJXhT4yk9/vBLm2j91+XD1ew40TU3pXw1b59G8rnwqhsc+IoC1K6HIWqCPvl7R2dBEx8iGTmksV/Ch+rhgb+oDIcGA3EeS5bQZ28BGqp1qC6qwa5abcNV7Dozv+Ktv2D74Q/vZEV5WaxJsNbJvM5mCaeUQtVuEelTAgmyKGFZ6RVGBcrryztxlD5bFPucHPUqHSfkdmYe9zuVkfHqSh3KJ+vCOoZFdFAzytqqkDVtCP6pfNmv7VdBJJUR2JJmpRjBBkCCobnQB7zFFiU1e6AKL2ZYVbe0bV1e+4+zH87iSiw8RkOBFgXWQiQP+RdHJW2+9su09tBtMDpaaR/RNRKeddQ0p8pEHCY7ExGynZRIYUmiUyvTuw8JDsTDJ9Tpct+i7/1xtlUcZ18myulpsbAfesqe9/c6rT73lT18+bO0F+1IARXqtdKPzJSMFygB9ix0ZWcCIEciOfiqcwKL42CMGl1WXvC+QRauP6IWImsQ+JaIu5rkOW6mP6jeds01sJrVlrpDRAO3gDSnwCAeoqJO/e7tDdXxCbCLhUWv19uMsqBYaq/+lCnStgMMGvNFQYqjnbLmucdf+9olP33r9QzQLLir4CxYE58eRL7ZDe/a3rzX8rsX0WTnzxLn2+7/w9fHMN54zqayPYJtJa0anI+f1fdCYxYc2g9iVxGbCIseBqDgyxtaf1zqsgoQq3vFprhaaw3btX7RrpkjqDT92wCqEYi4Egl7x90mEERrQcEWA0vw9cRv7tBLy2VATv6ZrWFjMDSFhOSZ3fzuuLWDUNVCpKo/mI2vg043RCdqiTC2+8AXldJUZuotXXoFGO0kHc+q6BTSt8nF6cbykBTJ5TnD6cZ2CGqFziGN0BD8gr1rXn6fFJzDr/Z+2S/qjSJVo6w1g/egIprVWDBZ3v3750O/8wzf+ZWQHFx8SgQTfFnte105N3/dPkmCmIeTeq3aP7/iZa4Y9UyRC4iBhclccwVeTyRpHk0w4qLYGgGRoI3umgYj7iNUEPKAOC1VFOyanIqQiOme6voHtEoeOwxvec+DJd/31a9of+mMHRG5N0kNx4XjcHWgoM2p9wqKw7rcS1relcjxeKwNCXx/RI0mRgs+Pod/NYIVor84FrZXPItVo9obqifhmZAZ6wcgMp8Phjgu63UzkaUFTeaDTi8KKBngiqMoeVPYm1I70ReVloyK9KtaFn/JAewdq1vqjTwivmWDhfGrz8Zt+6usfr6zg4oO+zUHwbXD7V9ot02DxEbMYeefM/zs7/N4//t/j6SfO2grc0+mmkVzIUowcmO+oYxS14n8NfGcCeh7fIncWB6TAh/hwh/2aD/rXnP3Q9l2x6+ThD1y5feAte2iKv3r+FMQFl+P274AKCzVXj43MLTKDogikw4Hz2FtEMN2vxBX+cY2BfVo9XdUKpwD+ueGxog+Yya6hq444WAbdYt3quteSeNMhr26mAumkMIqop9r3qEX1aU1pxdPE6AHJ8ut6cF5M/OwTXmYfap/a4qlHvp39iQBciuL7xD5zaUrrZ9yfDE6s2vK9X37wjSdUILgYkQgk+I6YvvbHJh44zgMQwLTZd9Xu9s6/ds2w94pd5BiLRBGdyKyI0IzG3yonJzGDBMVsWDgAqDT9OdOoOkiJvdy8r+kSjI5Xw9beRbv2loPjuz567aHLD2Ohg63Y4RH+6o9uPKJnK2FvbbFcKB0RBtKQLJ52YbN2Q6AmU5InvGB3rWIYMu7Blg1oqmy95rlpLI2tLol1PdXM6jubKX+qmwaKEKh7am81Q4dytdZev9RWgtrz2ES9TwxZUE4mhjvF+vhrgnLJhtVUHoO148+0p2+MeFz8iIAE3xH/8oc5kv40p3VMYNjZe8XudsPffHN7w48d4KNHVpgf74SCjUfkvpt8wLEpqdQDEYmIBcf4Zx+VT3PtQyB4RRdrRxH54ghX+5iIGbZ/cP+pSdzam245aNIS4alaN6+RCoclvCCfPIehsb2LgkXgo8icCVW24SrnIlPbGUiE8Xoak5zZHaFJve0sNldUCQIrqqbDRGcAB7ZdOUpwEq8oq3bJpEcU8zmAoiJZ81ASfDI9S+hhhwU74QzW3D7dEIi/yuffwBiMTabP7mOy++TT41PvffzBw7lc9xLAji9UELwYsJi+d2/72sQB2/jMeKQL9iM7/K9jT45/8NknhrPPaA6lkyQJSiNqbVGOo9CZhbgxGaPsILKs4TPTndbdatJIL0od91yx1a7/0NXD9nX7RJJiMFYrY7hTMtvtfaY3RDC9MdUAHY5V56gFbrTL01X0z+9R8yI88sjEnk6qOuq7Nm2WWqxnH/CCqSY0hz54CqBq9DXSF08dH3eir+uAdrBfnKZCFZyukkioXfLNmmnnnsKPyrExtHU73Z8d5fuxp8JQL95crGHxySbI9gL+XBZ91xvGU4o/bMbVvb/7T6+6R0fBpYAISPBd47avtHsmyrmbpIEEspF1YXrBesgffPYb7f98/lskG7Iu7WAmgqQgON1kSNv19RO5lQ2IDouysy0WnftztKxFrb3pJw61a//EwbbYy6BaV0dpj/95YMKrNRD8UQ9QXw2T0Ugce1ckqk2VZ1tKHORX/rgLp3Ne7zP2vWZCtell4YunT2sW6GOJm4UFhuxOrb2gdcxrbVllKq/q1RqE0xbySVu7XyIDQuQtokQ2iPXpdLhfukps9s1d169jCIaO1T7loz+YHpva+I1VW931pX9y5UPKDS4VRECC7xq3f6VdtxzaV0sXWgUUI2kHT6flo8tP/ddn2v/4d0+0J//bs+QiGlo2aDxqhRs3STz/46fPo37NTgkNliS3Pn2i+ph19R+9fHzz+7aHfYd2ubzyNNNVhCu3HI53UZD8oECRYJWnRSXpsluUoi2TSZZMInGjkppZs3DpBfZrW+ahHWt+KqKpBXVN9amqWXBsh2L0h63MIQrQUE7t4dExXaxQgwUCSXRYx7MP2brJ6FOV43qVIkm2gw1WGV8GjCMt+ldU4vbWOVR/h68tFsP7HvuF7RPsdHBJIQISfNeYBARk+uDEN3eQqkQrhKabFDiAU8Ac3/rqs+3rn/9m+794HBzJAAAX7ElEQVS/8U0toFsUwFMgJkUZ3G2ifZARxUY2ICU556WuNcfP+zmmaOPaP7nddr1ui9M8XAge5YW3KpDESM3mcoZJIleyXBGd9kslVAUIvR5eMvsFcYrcWcajfhixbZy66n5pUccjFY1asTNSoIhxtI46itD5J3GaRcpXTtEJGgOZtRbNpK5yPfJwVIN3g/V2/3IMS+ZrX1s1XmLjd6XaZIHgaRzrxM75dMxy8jFVed9ib/vEY/dtZ73jEkUEJHhJQBQyUetX8akBCSEN/CH67zNPIi++tnbu2VU79bvfat/4L88wKjnzBG9CLMu5gPRCgsKSIz3icM/27vHKP3LZcMU7LmsHr98vEiQzzp74UTa/O3JQso/ZTs7NqCb+9K2PbdkJUX86ZjkdSpBIpMrgz79CPXDcid5OOQK3A2/7fo88ROzr9SoK8Nakz3SnKSLAWovEZ7bF3kA1kj+RufqPOGWKEpf2db76zpfW86oBEjK8gdyyTu13m9ZOTSHMXY/9oys/qdLBpYoISPCScNtXuAD8YBsWd4gs8AKS8+eok78xQgOK1cE/wwgBOfPE2fbU/zzdTj9xri0ngVk+u2xnn1m1fVfyUSlt9/6ttvuKXePrf2DvcNk1e9vWfqxtYHSN+RaEJiLRVgKAlRCQcU13STA0tFcz1MqKAJBGQlw/cD9GFJM6YkQPkelfE9RrUtVdlOJrLKrDZh6VV/twr0VjmbofpO498fQP7SAGpTe4h2SJeitqAFCeEZD917qJI45ZbNz+ldqCfEwrqi5p6GqpqS6aopkUReUxWf7UOZwU94n+fD4rrabN7Av9OdqW7c5MWb02EAEJXjIYhbTxC5MYHCS9ORLpZGzgqAivdMV0OBvMu7MYFEfJH0e7RVi23IEd1VZdJnebdxFwezXNZjHB4JmqRDZVPvfX7NUWEbSmlyQYKmOR8TQSS2DrqIeihTTWZ7/MaCDgXhf523koSlFhOQmAziUyZcufgnUflksJBYXPfiQCaBe1dE0IBixsu3G9v/M5xh82qLyO1yKR8seu+7zxYodx8fHf+vnLH5Bl8FpA7gMJXjJ+8e3t8bYYHgBpknjElyUjQl8Fx662vK+A0YiOyT8DORTFxdUar6uczMDtVcQpJDBu1zOKJjWo7yl0IIPOhyR8lRpxF7cd9jrZTq7FsG5kq5GyQLv56PPGtRz2goXciTovJFx2v7eBpRUQ1BHghSAmwBSu6dJBh9oiS7dlLgF7Bmjyw3aqsO5T9BaET2esge8b3g211RpWPi0S8zHONbaMn+DT6ZSo4bE27n53xOO1hwhIsBGee7Y9MLHICZJ40+gX6SAasxXXA2bGBm9pIbnIkOQLO49+Ad5fAVozX8rpyKkp7qJEJ2eVYZ68kHD7Xoe89UJFfqyG3Kkk0qnrqdpHDtQJORV/clpIbpVdPn3APLG0+l51oM9wUCV6v3p/USkzeZ58Zp7n3iU078RzqqqYSh+uWFAD6mY/OK5/PJT4KBt1Mh6DufL1NHkd84m6zesfDY9qH+797fsO3viFn7/si3IevJYQAQk2wsM/2k5OanAXiIVTJ+CusRMdiREJ+tW5VpxIwdhJumYu/OeWSsNDe6KvPtku/REoLDAkRTMdjmf2RD6qkzDALa4d1lC7tECtwX+SL8VHzbPYdHKuepHbxYsWSmRZipmMqw/qVTdTu7GB2M6+O7/DiM+4QoNlC9pWY6ounCe3iEJDYZUz9kOVyvPcIafwreL743LOVi6f6MJ0DQa4jmKmQBrMptN4fNq76Tfvu/xelw5eg4iABBtj4pZPTXRzDCyIY5E0GKb4Cv/JezAGxYt8xGFmOvAkDUmY2qsKdCCSHRhdrGX17RqZ90QQI0iQwmIyFdHqVu8SCjZj0I8eFZnbKwugThJxr9ARw8zfTlb/eeAus3sqrHSKiyM0pupCqnIuBdMQX+YSDB5SIFF0PV8nBn702+v6+XGkzW8Bz5ob4bYri/75Hy8+1hmhDrIq+anzwlOKH4y69zf/wcEbf+O+bT0fLXjNIgISbIxfejuZ5c6Jk5/EMSIRU6OIdyGqFqGatCUiIkGyrMVBbEi6Ep3RShuwFlLEpwRproi0p5kgn6coFCYkyfvIUTf2illN1Gwl3ZhjJWjya5dk4ZFeqqsIs9ZG8egj6V4L6yhuW5N775POkzpZwoH/vb+wqPOkYjyPbIIbhvzetSnLP9fRQXtEEPStdqjP3a3uL2m6OlnnpLqvbSnotDk6pb77P//97XtcNHiNY+2THwSb4bYvrz7ehsXPmRl3iIbIUFvYlkyQDMWIGnlPr1xHGXHBD8iXl+uKfOmrSNJVdAIffJWTbWECOrTjEg5w4HwZLDygiYOujGKamdbtgo3awVp4WRRah7pg1q+5XWsUbOcb+pzh9uvKqapb+7xQzFdRyXzggkbZV9srHWdSZdg5uC4h4TXAuDCsdflDmWpL03IJbWGHJwbg7nWm+BmScMZ87iIdV3HpxLaTbbn6xOf/3vb98BwEhUQgwfeOxeL+iYY+Ra7BdAjG3x7t1uK6iHQWDzE2+FRHvBIKeZwGEvGDvFgYWSQ3VYd07ZlknShaBYWK9nsWVUOLwZVWLvw6Tyu1shl4Pwb7UmKl3jVOF5GplVhOsWEzKsNkbkKeMfgyYpj20T1c9hZX71nj7N8tU0GeZyTBqlpTmxoY6jyyVzVTxUjIasJjBkvaUw8VDKmicTw6KcmNEY/gfEgEErws8NN6vzB9ng7X9E3PNLPio8Y7t8FczufnzxELzWrEDrqsjybzhvqRJtOhnruF8sircq6K+qR7IkDidmQ/GI6DouuhirDnyJ7Cp3bSQdUFfi0VcB596aY6iKDqRoRTVfFYF+vKH+kZlfRohOsfjGRaf1xJ3Xsx3/eBE4cG4sARiCVSjynxeWIZ9I265GOW73e7s4e01THrcbsYvTBRx8txPDkd3vv5v5tLc4MXRyKQ4GUBr8patCOavgLDzfoBiMoxz449Ey7IrJHuGJ2QpJ2mregYnsB4tU7AArTtxqxMslDQ1WGohkdM0SGIWhGAx+ZNLtdb7LQdx0ClSbh2JCmdfSRVw6OoHu3uljgWVTO6UbLEY72/LqD2qS6+uq/uiJqAM2e/XHeSGZ2jGoYeqJPGtCoPdo3Lc+2NHR8e3v/0+LaIR/CdkAgkeFnxF77cPjYx0X0gLS3KivDEV02kitH2oFG/8jX6FTOCx0aN5nFIelNZ7GPEQ/JG+gCylJ2qwP0ojlJGjqIpEvyMc4SvZpRQad/fAdfTH2Gi6EJzTc1tYCO0o9E9y8lwFkWuj8yPQml9nUP5MBj4rJK+nuGqfAekLs1iJup371C21kcqeujH8ss1ErYbc1QD+yC1sm/b89zBte5Gl2iv+P9rU+Jf+fW/s31MlQbBt0cikOBlxcRFD0z8x/nyWv8ojuow/0E5FKl4VI1EM1xfkxD/uZinfUCQpRqOOkSbjmCKUFECwsFdZaFORSIUmR0DKEUlagew3uhyyxa6RjVBbWc5ZQ7sA3WLDamWyogNoK7xf/WDpO68kbwvY/afbma750P9kvACaouO2FP9WaHrZKtM2U959+1brG6KeAQvBYlAgpcdUxQCTnpkorSbe6JYTltsMAqvK6CcyDG0R/JKUCESu9PlghGLCVKi0V1XWYYhU9ZSZO3Peb/qyqTahYaPY+fQfk6nV7C501isIiNFJnN7R7hW9NG/Ukgg++8sz/7ADr97wocoys8cgThIYlv5FR14pyb9UH3VeajpKJHgLhYycL+lTpDqZNRBNauyOnvdX3t8Oa7u/PW7IxzBS0cikOBlx7/6kTaePdP+/ERVJ5gAojLDk8NA7GRBHZeNboYDd4r/KszQqyBXLMXIgseYynJmja7pw4GMDrmjIX2tSRjgUl2ZhP+VQ59spNIrGTvwYdJvMjIxK6Jy0fpFEfaXfVZ5Pk0Kt3szOinXeuWTevEfJQYFKsyhW+zBNZuvwwGaIeGtiMK2vY9doL2Ddki32j27x9WNEY9gU/hTHQQvP/jU3nF8ZNo9LK43RYPwwWY7PnsmzSaCE+05ImGaREVDc+ywEI24EZMLrImJlKLa127D4gj3SxbYFOxMI3glIK0KUojYgPKtH48ym6s93OIVEU61f4cfrz+gUL9XBL6X6nP9nG0JEe/RoE/WT81UQ/17HEyb/aqu521X9OVjRR9KH46uhuVdv/a3cid58L0hAhJ8XwERmT5ij4y4vBcJHi2bXxtfGS2skToZWWnMAymjHKZ0aiSP/Slk2TElNcNEjKpcEUSLxG1D70qwZMNWcbGdAme27uaaDuLBaOJ2D6oOT1lxSmyFp/yu/TpiLaTj0GmsX09W0fQXhANb29K9iR9d8dSW66NuKnyiHfUPuSzL3wNRPyAYFqHx5LS59z/+bK6uCl4eZAor+L4Cj36fGPm9g5/cSyYE4XGaBeDImrsg0EpDNvY5NTNgaqeEws99wgujGabS2FM+ckBBgiaBUqkjpG+1QTXAlusRKsP6sfUPP4nES7BU+gWQhqAebFwfXlGOOZrAQlvYH/eNhN6K/x1ioBz7pN/6kD9XLIHFTq+PzSpZou2amcaGkB3WtxiGh8+28caIR/ByIhFI8IpA01mMRN4KQiMNNpIgh9UaVGOUjWH0HKUAFY3Qnqypspjl4SgbKY5OJFBMUZ7G+t5BPlcM6MhmcxSjyprKu3IwvNPRgIo86M7lFKwgcvD3iW1EwlTfUo9kcR+lJFUxfNcUVLVVC+NstfqC7aDpKLltXFxhuttHd8M8fYa2ssvobnt8sRzvPPqzWecIXn4kAgleESASee4MI5H/7qS64Y4Dcv4HYVI8NDrXqLpHFZ3Tud/WcuCDLjj8ZsjCdRaaSUFk55+uwj/GBa6/ywf4W7VU5MH2MA/iI4dIV4tdAXL9Ils3VL9tIjFcz0ZLHUUwXz+4gf/M50MXGarguepqXkVa1X6WcJRDN903M3TDZhvvXzwz3hjxCL5f0LckCF4hMBJZtX890fANInAQnyIJkvcKfOoRdgNbc/w9j6y5wceW3NpH9KRZGLOQi7JMRR9Ox7799GPvi5slWxSPhrqnFy26i8hHByVeiKdIdF92xzRFQxJJ5VEgsQ6Dw7XFbwQOTETaSlrBwGU9aqk1DV5GrN/oqHUVmClhoTKr8bFhOd519G9EOILvLyIgwSuOD/8eSffnpmH2x8SQnuIx6YoUPRwHROYN+Y4bBKkJWZtm3tCQB/IHMy5ONxE6L5W1QnQBUTmsf+hS2lIQVcz/aCDNkMYF9XFtaomFmdePndQXxXv/VE7+LQQUh0qTUPW6YVPnxVNWaI3ao3L+hcAnx9XqgaMfy+PWg1cGEZDgVcNtv9/unpjxbjArmZKMDEb0LskYWSZ5vFhsMJAnUTsKkc0LBYg8DhKnGZ06Xy51Q598438JVCdvlylfLGX/SGC6SB2qwKu26jEmskVAsrMcKxwZbHjdBGWbLsWCDKzVX/tdqByJMLJZloDwXB2dEu+cxOMEqg6CVwIRkOBVxe1fOnfLcrH1z0csrpcQeB1k/mzOEQoJvnVupjDw2KY1cud/2lpUxNgid0xS9ahAoqHyJOK10b+OWZk2vnveeuXpqx7NQNVQDaaZrHu69BbJbAfnq1QG5dHHgeU4PQU7zo+5fcjGltGOhKK3haKEMsM3ps0njv5Mrq4KXnlkET14VfGL79x1dOu54b0TgT7KhLVF9LosV+LRwLr1nEERvbheJL8GXtJrofEWdD2rDUiZKx3KB2ezDP/ZwbovH9qkkcXtfwY82SfVY25fh3RCedzntVIUTN03iIwSyRI+XFegwqq7qqbk3D+eXV0f8QheLSQCCS4Y3Palc/eMbetvg+1JsBymtz7qZmQAkgaDIs1k7Ow5ff5Ij/4VQn7OWX7Nju54w0XPcFlEAF4cR9QCEi/BUFQC1keoUcKm6AB2jDjUAEYJ8NijDkdSjESYQ/GjOf2paexWX+tY29ZUWBseX47jnUd/OovkwauLCEhwQeH246evO7vY/cjWMBzuawl4HTXjAwJ1IKFPLo/9OdY+r5LSVJPykQdbCkgVcroIuXuzOKAKp+F/RQWjOJ5RC7f0wQWJHfbe6NEovsucay0UPxjIF8MOVcUXCATvTK/mQMhwa4zb3trJcVw8sNqzeuDoR7ZPueVB8KohAhJckLjtd85+bIpGPjrR6VuxDsA7u03Cugm9iXRrQ7FB0CKmpZBADcb5lwu7fe3vOKZuKEJorGC+5NZEjnRcoQW/iiCqDJ6CK8uKEjg1Zbf8iuHP6xpcbEceowyKCjVRc3MMvNaiEOe34eius+Odn/npLJIHFw4iIMEFi9uPt8Pn2tl7hmFxB471Se1XYZFtKRpkbl+ui/w+jaSIZUod/DGXQIDkvZDexURBjqwwfVWkz1LM6/v6Q4AhZmdDtFjehcZbhSxukxrqvO4HriwSvsO8BIt5q3Zs2t77yz+V6argwkMEJLjgcfvx04eXw567p8/qR0j8ngLiq2a5JAxrJN8FRHR83ggEWy9jywkJfY3wG7REeSrn/NERSvmc070WMjJ6UBSB8kNb8gm68Dn29Q+ZUuR0pZVbyyuvxvb4sNi693M/+fqHXH0QXHCIgAQXDT58/NzN00f27olcb640Ui2muLA/irS57sAFBk8X8WNOG33cLQ7gawmPggeIQglIRSH8dvBFwkVJgo2FpUSlHtHuMrNT5VMgrDcjHgxZ94Z4oR0mJSSPtxbhCC4ORECCiw5Hpohka9y6p7XFHSJxjfLByEXStd6APKyBcGGd01eyfWFEIq7HC+eeRPw2sa4gCeVLEFQfhYW5Kyz0q274KIGhDae0KEJMgw9o3GIKqVZ85vvwWFu2Bz73k9sRjuCiQQQkuGgBIdnV9twxfYg/Mn2MD0tIBF0l5akuKQsigqajtWkw6QDSdTUV9kz6fZqqbjxEHgREC/pzJEN7KAK1p9fLH56Cj1oHqTopIl6wX7ZjbTXc+5m/lDWO4OJDBCS4JPDh3zp382oY75hG9B+cyPogfh+cwqAlDpC2pp8sJkXkTptfmM4yDDvkQKKgH2nSkQWJEU4XJ5Ty4nf54obTVYw8WG7CycnXA8vh7Kf//Yevzq8CBhctIiDBJYcP/fbyg6vl8oMTUf94Q2QCymeEwfVrRQJc58Du2pQWQJZ3xFFfDWqEDhBMYA2jLvFd9yOxUBTULwGmqOB71k5OBw+N5859+jN/8apjLhwEFzUiIMEljSO/9vQNW7v2/PjE4zevxvGGKUI5XJEAKZ9Rwtr0lMSEKiIhoC5gD2KAJ/VyS2XgwjjCCy7PM5rhbJUe535yNa6+OIyLY4tzq0f/zYcyRRVceoiABK8pHPn86cPt7OqGtrX40enjf8NE99vTl+CGSQYOck1iZEwxRyFAKY3Eo69rSEmQP56Yjk9Nyce3hvH4uedWjz7T2omjH8zd4sGljQhIEBhHjk3i0tr0d27aDNjH/Rs7gRs6xnZq17A40ZZbp9rp06cejlAEr1FEQIIgCIKNkMe5B0EQBBshAhIEQRBshAhIEARBsBEiIEEQBMFGiIAEQRAEGyECEgRBEGyECEgQBEGwESIgQRAEwUaIgARBEAQbIQISBEEQbIQISBAEQbARIiBBEATBRoiABEEQBBshAhIEQRBshAhIEARBsBEiIEEQBMFGiIAEQRAEGyECEgRBEGyECEgQBEGwESIgQRAEwUaIgARBEAQbIQISBEEQbIQISBAEQbARIiBBEATBRoiABEEQBBshAhIEQRBshAhIEARBsBEiIEEQBMFGiIAEQRAEGyECEgRBEGyECEgQBEGwESIgQRAEwUaIgARBEAQbIQISBEEQbIQISBAEQbARIiBBEATBRoiABEEQBBshAhIEQRBshAhIEARBsBEiIEEQBMFGiIAEQRAEGyECEgRBEGyECEgQBEGwESIgQRAEwUaIgARBEAQbIQISBEEQbIQISBAEQbARIiBBEATBRoiABEEQBBshAhIEQRBshAhIEARBsBEiIEEQBMFGiIAEQRAEGyECEgRBEGyECEgQBEGwESIgQRAEwUaIgARBEAQbIQISBEEQbIQISBAEQbARIiBBEATBRoiABEEQBBshAhIEQRBshAhIEARBsBEiIEEQBMFGiIAEQRAEGyECEgRBEGyE/w86dBUof/ngdgAAAABJRU5ErkJggg==;fontSize=8;fontStyle=1;clipPath=inset(14.33% 23% 13.67% 31.67%);" vertex="1" parent="1">
          <mxGeometry x="82.78" y="442.5" width="47.22" height="75" as="geometry" />
        </mxCell>
        <mxCell id="E4g3zkUV0fPsjV3zWIB0-2" value="" style="rounded=1;whiteSpace=wrap;html=1;fillStyle=hatch;fillColor=#dae8fc;strokeColor=#6c8ebf;" vertex="1" parent="1">
          <mxGeometry x="160" y="310" width="520" height="300" as="geometry" />
        </mxCell>
        <mxCell id="E4g3zkUV0fPsjV3zWIB0-3" value="" style="shape=image;verticalLabelPosition=bottom;verticalAlign=top;imageAspect=0;aspect=fixed;image=data:image/svg+xml,PHN2ZyB4bWxucz0iaHR0cDovL3d3dy53My5vcmcvMjAwMC9zdmciIGZpbGw9Im5vbmUiIHZpZXdCb3g9IjAgMCAyNTYgMjU2IiBoZWlnaHQ9IjI1NiIgd2lkdGg9IjI1NiI+JiN4YTs8ZyBjbGlwLXBhdGg9InVybCgjY2xpcDBfMTI2M18xMjQ1OTApIj4mI3hhOzxwYXRoIGZpbGw9InVybCgjcGFpbnQwX2xpbmVhcl8xMjYzXzEyNDU5MCkiIGQ9Ik0xMC40OTYgMTc2LjYzNEw2Ljc0NjY5IDE5MC4zNTZDNS4zNDkzNyAxOTQuNzQ2IDMuMzkyMDUgMjAxLjE5NCAyLjMzNjA2IDIwNi45MzJDMC44MzIwNjkgMjEwLjkgMC4wMTA3NDIyIDIxNS4yMDQgMC4wMTA3NDIyIDIxOS43QzAuMDEwNzQyMiAyMzguMjM5IDE0LjAxNiAyNTMuNTAyIDMyLjAyMTIgMjU1LjQ5N0MzNy4wODc4IDI1Ni4yMjggNDIuODIxMSAyNTYuMTkgNDkuMjQ3NyAyNTUuMjQ2TDc4Ljc3MjggMjUxLjE3MkM4Ni4xOTY3IDI1MC4xNDggOTIuMjkyNyAyNDQuNzg4IDk0LjI2NiAyMzcuNTU2TDExNC41ODYgMTYyLjkyMkwxMC40OTYgMTc2LjYzNFoiIGNsaXAtcnVsZT0iZXZlbm9kZCIgZmlsbC1ydWxlPSJldmVub2RkIi8+JiN4YTs8cGF0aCBmaWxsPSJ1cmwoI3BhaW50MV9saW5lYXJfMTI2M18xMjQ1OTApIiBkPSJNMzkuMjk0MiAxODAuMTdDOC4xNzQ0NCAxODQuOTkxIDEuNzg1MTYgMjA4LjQ3NCAxLjc4NTE2IDIwOC40NzRMMzEuNTg3NiA5OC45NzA4TDE4Ny4zMTQgNzcuOTA0M0wxNjYuMDc3IDE1NS4wNEMxNjQuOTczIDE1OS4xNzMgMTYxLjUwMSAxNjIuMzQxIDE1Ny4xOTcgMTYyLjk5N0wxNTYuMzI4IDE2My4xNDFMMzguNDE5NSAxODAuMzJMMzkuMjk0MiAxODAuMTdaIi8+JiN4YTs8cGF0aCBmaWxsLW9wYWNpdHk9IjAuOCIgZmlsbD0idXJsKCNwYWludDJfbGluZWFyXzEyNjNfMTI0NTkwKSIgZD0iTTM5LjI5NDIgMTgwLjE3QzguMTc0NDQgMTg0Ljk5MSAxLjc4NTE2IDIwOC40NzQgMS43ODUxNiAyMDguNDc0TDMxLjU4NzYgOTguOTcwOEwxODcuMzE0IDc3LjkwNDNMMTY2LjA3NyAxNTUuMDRDMTY0Ljk3MyAxNTkuMTczIDE2MS41MDEgMTYyLjM0MSAxNTcuMTk3IDE2Mi45OTdMMTU2LjMyOCAxNjMuMTQxTDM4LjQxOTUgMTgwLjMyTDM5LjI5NDIgMTgwLjE3WiIvPiYjeGE7PHBhdGggZmlsbD0idXJsKCNwYWludDNfbGluZWFyXzEyNjNfMTI0NTkwKSIgZD0iTTU2Ljk1MzIgMTEwLjMwM0wyMjkuMzUyIDg0LjgzNjdDMjMzLjQ1MyA4NC4yNzY3IDIzNi43NzYgODEuMjc0IDIzNy44MjEgNzcuMzQzNEwyNTUuNjEzIDEyLjk1NDZDMjU1Ljg1OCAxMi4wNzk5IDI1NS45ODYgMTEuMTU3MiAyNTUuOTg2IDEwLjIwNzlDMjU1Ljk4NiA0LjU3MDYzIDI1MS40MjEgMCAyNDUuNzc4IDBDMjQ1LjM0MSAwIDI0NC45MDQgMC4wMjY2NjY1IDI0NC40ODIgMC4wNzk5OTk0TDc5Ljk4MjQgMjQuMzg5MUM2Mi4xMTU4IDI3LjI1ODUgNDcuNjg5MyA0MC40MzcgNDMuMDA2NyA1Ny42MjYyTDE5LjI4NDIgMTQzLjYwNEMyNC4wNDY4IDEyNi4yMTIgMjYuOTc0OCAxMTUuNzI3IDU2Ljk1MzIgMTEwLjMwM1oiLz4mI3hhOzxwYXRoIGZpbGw9InVybCgjcGFpbnQ0X2xpbmVhcl8xMjYzXzEyNDU5MCkiIGQ9Ik01Ni45NTMyIDExMC4zMDNMMjI5LjM1MiA4NC44MzY3QzIzMy40NTMgODQuMjc2NyAyMzYuNzc2IDgxLjI3NCAyMzcuODIxIDc3LjM0MzRMMjU1LjYxMyAxMi45NTQ2QzI1NS44NTggMTIuMDc5OSAyNTUuOTg2IDExLjE1NzIgMjU1Ljk4NiAxMC4yMDc5QzI1NS45ODYgNC41NzA2MyAyNTEuNDIxIDAgMjQ1Ljc3OCAwQzI0NS4zNDEgMCAyNDQuOTA0IDAuMDI2NjY2NSAyNDQuNDgyIDAuMDc5OTk5NEw3OS45ODI0IDI0LjM4OTFDNjIuMTE1OCAyNy4yNTg1IDQ3LjY4OTMgNDAuNDM3IDQzLjAwNjcgNTcuNjI2MkwxOS4yODQyIDE0My42MDRDMjQuMDQ2OCAxMjYuMjEyIDI2Ljk3NDggMTE1LjcyNyA1Ni45NTMyIDExMC4zMDNaIi8+JiN4YTs8cGF0aCBmaWxsPSJ1cmwoI3BhaW50NV9saW5lYXJfMTI2M18xMjQ1OTApIiBkPSJNNTYuOTUzMiAxMTAuMzAzTDIyOS4zNTIgODQuODM2N0MyMzMuNDUzIDg0LjI3NjcgMjM2Ljc3NiA4MS4yNzQgMjM3LjgyMSA3Ny4zNDM0TDI1NS42MTMgMTIuOTU0NkMyNTUuODU4IDEyLjA3OTkgMjU1Ljk4NiAxMS4xNTcyIDI1NS45ODYgMTAuMjA3OUMyNTUuOTg2IDQuNTcwNjMgMjUxLjQyMSAwIDI0NS43NzggMEMyNDUuMzQxIDAgMjQ0LjkwNCAwLjAyNjY2NjUgMjQ0LjQ4MiAwLjA3OTk5OTRMNzkuOTgyNCAyNC4zODkxQzYyLjExNTggMjcuMjU4NSA0Ny42ODkzIDQwLjQzNyA0My4wMDY3IDU3LjYyNjJMMTkuMjg0MiAxNDMuNjA0QzI0LjA0NjggMTI2LjIxMiAyNi45NzQ4IDExNS43MjcgNTYuOTUzMiAxMTAuMzAzWiIvPiYjeGE7PHBhdGggZmlsbD0idXJsKCNwYWludDZfbGluZWFyXzEyNjNfMTI0NTkwKSIgZD0iTTU2Ljk1MzIgMTEwLjMwM0wyMjkuMzUyIDg0LjgzNjdDMjMzLjQ1MyA4NC4yNzY3IDIzNi43NzYgODEuMjc0IDIzNy44MjEgNzcuMzQzNEwyNTUuNjEzIDEyLjk1NDZDMjU1Ljg1OCAxMi4wNzk5IDI1NS45ODYgMTEuMTU3MiAyNTUuOTg2IDEwLjIwNzlDMjU1Ljk4NiA0LjU3MDYzIDI1MS40MjEgMCAyNDUuNzc4IDBDMjQ1LjM0MSAwIDI0NC45MDQgMC4wMjY2NjY1IDI0NC40ODIgMC4wNzk5OTk0TDc5Ljk4MjQgMjQuMzg5MUM2Mi4xMTU4IDI3LjI1ODUgNDcuNjg5MyA0MC40MzcgNDMuMDA2NyA1Ny42MjYyTDE5LjI4NDIgMTQzLjYwNEMyNC4wNDY4IDEyNi4yMTIgMjYuOTc0OCAxMTUuNzI3IDU2Ljk1MzIgMTEwLjMwM1oiLz4mI3hhOzxwYXRoIGZpbGw9InVybCgjcGFpbnQ3X2xpbmVhcl8xMjYzXzEyNDU5MCkiIGQ9Ik01Ni45NTMyIDExMC4zMDNMMjI5LjM1MiA4NC44MzY3QzIzMy40NTMgODQuMjc2NyAyMzYuNzc2IDgxLjI3NCAyMzcuODIxIDc3LjM0MzRMMjU1LjYxMyAxMi45NTQ2QzI1NS44NTggMTIuMDc5OSAyNTUuOTg2IDExLjE1NzIgMjU1Ljk4NiAxMC4yMDc5QzI1NS45ODYgNC41NzA2MyAyNTEuNDIxIDAgMjQ1Ljc3OCAwQzI0NS4zNDEgMCAyNDQuOTA0IDAuMDI2NjY2NSAyNDQuNDgyIDAuMDc5OTk5NEw3OS45ODI0IDI0LjM4OTFDNjIuMTE1OCAyNy4yNTg1IDQ3LjY4OTMgNDAuNDM3IDQzLjAwNjcgNTcuNjI2MkwxOS4yODQyIDE0My42MDRDMjQuMDQ2OCAxMjYuMjEyIDI2Ljk3NDggMTE1LjcyNyA1Ni45NTMyIDExMC4zMDNaIi8+JiN4YTs8cGF0aCBmaWxsPSJ1cmwoI3BhaW50OF9saW5lYXJfMTI2M18xMjQ1OTApIiBkPSJNNTYuOTUzMiAxMTAuMzAzTDIyOS4zNTIgODQuODM2N0MyMzMuNDUzIDg0LjI3NjcgMjM2Ljc3NiA4MS4yNzQgMjM3LjgyMSA3Ny4zNDM0TDI1NS42MTMgMTIuOTU0NkMyNTUuODU4IDEyLjA3OTkgMjU1Ljk4NiAxMS4xNTcyIDI1NS45ODYgMTAuMjA3OUMyNTUuOTg2IDQuNTcwNjMgMjUxLjQyMSAwIDI0NS43NzggMEMyNDUuMzQxIDAgMjQ0LjkwNCAwLjAyNjY2NjUgMjQ0LjQ4MiAwLjA3OTk5OTRMNzkuOTgyNCAyNC4zODkxQzYyLjExNTggMjcuMjU4NSA0Ny42ODkzIDQwLjQzNyA0My4wMDY3IDU3LjYyNjJMMTkuMjg0MiAxNDMuNjA0QzI0LjA0NjggMTI2LjIxMiAyNi45NzQ4IDExNS43MjcgNTYuOTUzMiAxMTAuMzAzWiIvPiYjeGE7PHBhdGggZmlsbC1vcGFjaXR5PSIwLjQiIGZpbGw9InVybCgjcGFpbnQ5X2xpbmVhcl8xMjYzXzEyNDU5MCkiIGQ9Ik01Ni45NTMyIDExMC4zMDNMMjI5LjM1MiA4NC44MzY3QzIzMy40NTMgODQuMjc2NyAyMzYuNzc2IDgxLjI3NCAyMzcuODIxIDc3LjM0MzRMMjU1LjYxMyAxMi45NTQ2QzI1NS44NTggMTIuMDc5OSAyNTUuOTg2IDExLjE1NzIgMjU1Ljk4NiAxMC4yMDc5QzI1NS45ODYgNC41NzA2MyAyNTEuNDIxIDAgMjQ1Ljc3OCAwQzI0NS4zNDEgMCAyNDQuOTA0IDAuMDI2NjY2NSAyNDQuNDgyIDAuMDc5OTk5NEw3OS45ODI0IDI0LjM4OTFDNjIuMTE1OCAyNy4yNTg1IDQ3LjY4OTMgNDAuNDM3IDQzLjAwNjcgNTcuNjI2MkwxOS4yODQyIDE0My42MDRDMjQuMDQ2OCAxMjYuMjEyIDI2Ljk3NDggMTE1LjcyNyA1Ni45NTMyIDExMC4zMDNaIi8+JiN4YTs8cGF0aCBmaWxsPSJ1cmwoI3BhaW50MTBfbGluZWFyXzEyNjNfMTI0NTkwKSIgZD0iTTU2Ljk1MjcgMTEwLjMwOUMzMS45ODc2IDExNC44MjcgMjUuNzkwMyAxMjIuODY5IDIxLjY2MjMgMTM1LjQ3MkwxLjc4NTE2IDIwOC40OUMxLjc4NTE2IDIwOC40OSA4LjEzNzExIDE4NS4yNDIgMzguODc4MiAxODAuMjcxTDE1Ni4zMzMgMTYzLjE2MkwxNTcuMjAzIDE2My4wMThDMTYxLjUwNyAxNjIuMzYyIDE2NC45NzkgMTU5LjE4OSAxNjYuMDgzIDE1NS4wNjFMMTgzLjU1NCA5MS42MDU1TDU2Ljk1ODEgMTEwLjMwOUg1Ni45NTI3WiIvPiYjeGE7PHBhdGggZmlsbC1vcGFjaXR5PSIwLjIiIGZpbGw9InVybCgjcGFpbnQxMV9saW5lYXJfMTI2M18xMjQ1OTApIiBkPSJNNTYuOTUyNyAxMTAuMzA5QzMxLjk4NzYgMTE0LjgyNyAyNS43OTAzIDEyMi44NjkgMjEuNjYyMyAxMzUuNDcyTDEuNzg1MTYgMjA4LjQ5QzEuNzg1MTYgMjA4LjQ5IDguMTM3MTEgMTg1LjI0MiAzOC44NzgyIDE4MC4yNzFMMTU2LjMzMyAxNjMuMTYyTDE1Ny4yMDMgMTYzLjAxOEMxNjEuNTA3IDE2Mi4zNjIgMTY0Ljk3OSAxNTkuMTg5IDE2Ni4wODMgMTU1LjA2MUwxODMuNTU0IDkxLjYwNTVMNTYuOTU4MSAxMTAuMzA5SDU2Ljk1MjdaIi8+JiN4YTs8cGF0aCBmaWxsPSJ1cmwoI3BhaW50MTJfbGluZWFyXzEyNjNfMTI0NTkwKSIgZD0iTTM4Ljg3OTggMTgwLjI3MkMxMi45MDEzIDE4NC40NzUgNC4zNjgwNCAyMDEuNjggMi4zMzYwNiAyMDYuOTIzQzAuODMyMDY5IDIxMC45MDEgMC4wMTA3NDIyIDIxNS4yMDUgMC4wMTA3NDIyIDIxOS43MDFDMC4wMTA3NDIyIDIzOC4yNCAxNC4wMTYgMjUzLjUwNCAzMi4wMjEyIDI1NS40OThDMzcuMDg3OCAyNTYuMjI5IDQyLjgyMTEgMjU2LjE5MiA0OS4yNDc3IDI1NS4yNDhMNzguNzcyOCAyNTEuMTczQzg2LjE5NjcgMjUwLjE0OSA5Mi4yOTI3IDI0NC43ODkgOTQuMjY2IDIzNy41NTdMMTEyLjc4OSAxNjkuNTFMMzguODg1MSAxODAuMjc4TDM4Ljg3OTggMTgwLjI3MloiIGNsaXAtcnVsZT0iZXZlbm9kZCIgZmlsbC1ydWxlPSJldmVub2RkIi8+JiN4YTs8L2c+JiN4YTs8ZGVmcz4mI3hhOzxsaW5lYXJHcmFkaWVudCBncmFkaWVudFVuaXRzPSJ1c2VyU3BhY2VPblVzZSIgeTI9IjE2Mi45MjIiIHgyPSI1Ny4yOTU2IiB5MT0iMjU2LjAwNCIgeDE9IjU3LjI5NTYiIGlkPSJwYWludDBfbGluZWFyXzEyNjNfMTI0NTkwIj4mI3hhOzxzdG9wIHN0b3AtY29sb3I9IiMyQUFDOTQiIG9mZnNldD0iMC4wNTYiLz4mI3hhOzxzdG9wIHN0b3AtY29sb3I9IiMyMzlDODciIG9mZnNldD0iMC4xNTUiLz4mI3hhOzxzdG9wIHN0b3AtY29sb3I9IiMxNzdFNzEiIG9mZnNldD0iMC4zNzIiLz4mI3hhOzxzdG9wIHN0b3AtY29sb3I9IiMwRTY5NjEiIG9mZnNldD0iMC41ODgiLz4mI3hhOzxzdG9wIHN0b3AtY29sb3I9IiMwOTVENTciIG9mZnNldD0iMC43OTkiLz4mI3hhOzxzdG9wIHN0b3AtY29sb3I9IiMwODU5NTQiIG9mZnNldD0iMSIvPiYjeGE7PC9saW5lYXJHcmFkaWVudD4mI3hhOzxsaW5lYXJHcmFkaWVudCBncmFkaWVudFVuaXRzPSJ1c2VyU3BhY2VPblVzZSIgeTI9IjkwLjcwNDIiIHgyPSI4NS4wMzI1IiB5MT0iMTg4LjQ2NSIgeDE9IjE3NC45MTYiIGlkPSJwYWludDFfbGluZWFyXzEyNjNfMTI0NTkwIj4mI3hhOzxzdG9wIHN0b3AtY29sb3I9IiNBQkU4OEUiIG9mZnNldD0iMC4wNDE3NDc4Ii8+JiN4YTs8c3RvcCBzdG9wLWNvbG9yPSIjMkFBQTkyIiBvZmZzZXQ9IjAuNTQ4OTI2Ii8+JiN4YTs8c3RvcCBzdG9wLWNvbG9yPSIjMTE3ODY1IiBvZmZzZXQ9IjAuOTA2Ii8+JiN4YTs8L2xpbmVhckdyYWRpZW50PiYjeGE7PGxpbmVhckdyYWRpZW50IGdyYWRpZW50VW5pdHM9InVzZXJTcGFjZU9uVXNlIiB5Mj0iMTU0LjU0MiIgeDI9IjM5LjU3MTEiIHkxPSIxODMuNzEyIiB4MT0iLTQ1Ljk2NiIgaWQ9InBhaW50Ml9saW5lYXJfMTI2M18xMjQ1OTAiPiYjeGE7PHN0b3Agc3RvcC1jb2xvcj0iIzZBRDZGOSIvPiYjeGE7PHN0b3Agc3RvcC1vcGFjaXR5PSIwIiBzdG9wLWNvbG9yPSIjNkFENkY5IiBvZmZzZXQ9IjEiLz4mI3hhOzwvbGluZWFyR3JhZGllbnQ+JiN4YTs8bGluZWFyR3JhZGllbnQgZ3JhZGllbnRVbml0cz0idXNlclNwYWNlT25Vc2UiIHkyPSI3MS44MDIxIiB4Mj0iMjQ2Ljk2OCIgeTE9IjcxLjgwMjEiIHgxPSIxOS4yODQyIiBpZD0icGFpbnQzX2xpbmVhcl8xMjYzXzEyNDU5MCI+JiN4YTs8c3RvcCBzdG9wLWNvbG9yPSIjMjVGRkQ0IiBvZmZzZXQ9IjAuMDQzIi8+JiN4YTs8c3RvcCBzdG9wLWNvbG9yPSIjNTVEREI5IiBvZmZzZXQ9IjAuODc0Ii8+JiN4YTs8L2xpbmVhckdyYWRpZW50PiYjeGE7PGxpbmVhckdyYWRpZW50IGdyYWRpZW50VW5pdHM9InVzZXJTcGFjZU9uVXNlIiB5Mj0iMTE0LjYxMiIgeDI9IjE1NS43NDciIHkxPSI5LjkwOTI2IiB4MT0iMTA2LjkyMSIgaWQ9InBhaW50NF9saW5lYXJfMTI2M18xMjQ1OTAiPiYjeGE7PHN0b3Agc3RvcC1vcGFjaXR5PSIwLjYiIHN0b3AtY29sb3I9IiNGNEUwODQiLz4mI3hhOzxzdG9wIHN0b3Atb3BhY2l0eT0iMCIgc3RvcC1jb2xvcj0iI0Y0RTA4NCIgb2Zmc2V0PSIwLjUzNCIvPiYjeGE7PC9saW5lYXJHcmFkaWVudD4mI3hhOzxsaW5lYXJHcmFkaWVudCBncmFkaWVudFVuaXRzPSJ1c2VyU3BhY2VPblVzZSIgeTI9IjQ1LjgzNSIgeDI9IjI1My45OCIgeTE9Ii01NS4yNjQxIiB4MT0iMTg4LjE2MiIgaWQ9InBhaW50NV9saW5lYXJfMTI2M18xMjQ1OTAiPiYjeGE7PHN0b3Agc3RvcC1jb2xvcj0iI0FCRjVFMiIvPiYjeGE7PHN0b3Agc3RvcC1jb2xvcj0iIzRFRTZCRCIgb2Zmc2V0PSIxIi8+JiN4YTs8L2xpbmVhckdyYWRpZW50PiYjeGE7PGxpbmVhckdyYWRpZW50IGdyYWRpZW50VW5pdHM9InVzZXJTcGFjZU9uVXNlIiB5Mj0iMTQzLjYwNCIgeDI9IjEzNy42MzUiIHkxPSIwIiB4MT0iMTM3LjYzNSIgaWQ9InBhaW50Nl9saW5lYXJfMTI2M18xMjQ1OTAiPiYjeGE7PHN0b3Agc3RvcC1jb2xvcj0iIzFGOTM3RSIvPiYjeGE7PHN0b3Agc3RvcC1jb2xvcj0iIzlFRTA5RiIgb2Zmc2V0PSIxIi8+JiN4YTs8L2xpbmVhckdyYWRpZW50PiYjeGE7PGxpbmVhckdyYWRpZW50IGdyYWRpZW50VW5pdHM9InVzZXJTcGFjZU9uVXNlIiB5Mj0iMTQzLjYwNCIgeDI9IjEzNy42MzUiIHkxPSIwIiB4MT0iMTM3LjYzNSIgaWQ9InBhaW50N19saW5lYXJfMTI2M18xMjQ1OTAiPiYjeGE7PHN0b3Agc3RvcC1jb2xvcj0iIzFGOTM3RSIvPiYjeGE7PHN0b3Agc3RvcC1jb2xvcj0iI0MwRUNDNyIgb2Zmc2V0PSIxIi8+JiN4YTs8L2xpbmVhckdyYWRpZW50PiYjeGE7PGxpbmVhckdyYWRpZW50IGdyYWRpZW50VW5pdHM9InVzZXJTcGFjZU9uVXNlIiB5Mj0iMTM1LjIxNiIgeDI9IjIyNC4zODIiIHkxPSIzOS45NzgzIiB4MT0iMTkuMjg0MiIgaWQ9InBhaW50OF9saW5lYXJfMTI2M18xMjQ1OTAiPiYjeGE7PHN0b3Agc3RvcC1jb2xvcj0iIzZBRDZGOSIvPiYjeGE7PHN0b3Agc3RvcC1jb2xvcj0iIzYwRTlEMCIgb2Zmc2V0PSIwLjIyOTUwMSIvPiYjeGE7PHN0b3Agc3RvcC1jb2xvcj0iIzZERTlCQiIgb2Zmc2V0PSIwLjY1MDcxMSIvPiYjeGE7PHN0b3Agc3RvcC1jb2xvcj0iI0FCRTg4RSIgb2Zmc2V0PSIwLjk5MzU0Ii8+JiN4YTs8L2xpbmVhckdyYWRpZW50PiYjeGE7PGxpbmVhckdyYWRpZW50IGdyYWRpZW50VW5pdHM9InVzZXJTcGFjZU9uVXNlIiB5Mj0iODIuNDY2IiB4Mj0iMTQ5Ljc4MSIgeTE9IjU3LjgiIHgxPSIzOC4yNTgiIGlkPSJwYWludDlfbGluZWFyXzEyNjNfMTI0NTkwIj4mI3hhOzxzdG9wIHN0b3Atb3BhY2l0eT0iMCIgc3RvcC1jb2xvcj0id2hpdGUiLz4mI3hhOzxzdG9wIHN0b3AtY29sb3I9IndoaXRlIiBvZmZzZXQ9IjAuNDU4NTExIi8+JiN4YTs8c3RvcCBzdG9wLW9wYWNpdHk9IjAiIHN0b3AtY29sb3I9IndoaXRlIiBvZmZzZXQ9IjEiLz4mI3hhOzwvbGluZWFyR3JhZGllbnQ+JiN4YTs8bGluZWFyR3JhZGllbnQgZ3JhZGllbnRVbml0cz0idXNlclNwYWNlT25Vc2UiIHkyPSI3NS4xMzI4IiB4Mj0iNzcuODcyMiIgeTE9IjE1My4zNDEiIHgxPSI3NS4yMzciIGlkPSJwYWludDEwX2xpbmVhcl8xMjYzXzEyNDU5MCI+JiN4YTs8c3RvcCBzdG9wLW9wYWNpdHk9IjAiIHN0b3AtY29sb3I9IiMwNjNEM0IiIG9mZnNldD0iMC4yMDQ2NDIiLz4mI3hhOzxzdG9wIHN0b3Atb3BhY2l0eT0iMC4yMzY1ODciIHN0b3AtY29sb3I9IiMwNjNEM0IiIG9mZnNldD0iMC41ODU1MyIvPiYjeGE7PHN0b3Agc3RvcC1vcGFjaXR5PSIwLjc1IiBzdG9wLWNvbG9yPSIjMDYzRDNCIiBvZmZzZXQ9IjAuODcyMjg1Ii8+JiN4YTs8L2xpbmVhckdyYWRpZW50PiYjeGE7PGxpbmVhckdyYWRpZW50IGdyYWRpZW50VW5pdHM9InVzZXJTcGFjZU9uVXNlIiB5Mj0iMTYzLjQ4NyIgeDI9Ijg3LjY4NjEiIHkxPSIxNDUuNTYzIiB4MT0iLTcuNjE3OTciIGlkPSJwYWludDExX2xpbmVhcl8xMjYzXzEyNDU5MCI+JiN4YTs8c3RvcCBzdG9wLW9wYWNpdHk9IjAiIHN0b3AtY29sb3I9IndoaXRlIi8+JiN4YTs8c3RvcCBzdG9wLWNvbG9yPSJ3aGl0ZSIgb2Zmc2V0PSIwLjQ1ODUxMSIvPiYjeGE7PHN0b3Agc3RvcC1vcGFjaXR5PSIwIiBzdG9wLWNvbG9yPSJ3aGl0ZSIgb2Zmc2V0PSIxIi8+JiN4YTs8L2xpbmVhckdyYWRpZW50PiYjeGE7PGxpbmVhckdyYWRpZW50IGdyYWRpZW50VW5pdHM9InVzZXJTcGFjZU9uVXNlIiB5Mj0iMTM5LjI5MiIgeDI9IjQyLjYzNTkiIHkxPSIyMzAuMjEzIiB4MT0iNjEuMjI2MyIgaWQ9InBhaW50MTJfbGluZWFyXzEyNjNfMTI0NTkwIj4mI3hhOzxzdG9wIHN0b3Atb3BhY2l0eT0iMCIgc3RvcC1jb2xvcj0iIzA2M0QzQiIgb2Zmc2V0PSIwLjA2NCIvPiYjeGE7PHN0b3Agc3RvcC1vcGFjaXR5PSIwLjEzNSIgc3RvcC1jb2xvcj0iIzA2M0QzQiIgb2Zmc2V0PSIwLjE3Ii8+JiN4YTs8c3RvcCBzdG9wLW9wYWNpdHk9IjAuNTk5IiBzdG9wLWNvbG9yPSIjMDYzRDNCIiBvZmZzZXQ9IjAuNTYyIi8+JiN4YTs8c3RvcCBzdG9wLW9wYWNpdHk9IjAuOSIgc3RvcC1jb2xvcj0iIzA2M0QzQiIgb2Zmc2V0PSIwLjg1Ii8+JiN4YTs8c3RvcCBzdG9wLWNvbG9yPSIjMDYzRDNCIiBvZmZzZXQ9IjEiLz4mI3hhOzwvbGluZWFyR3JhZGllbnQ+JiN4YTs8Y2xpcFBhdGggaWQ9ImNsaXAwXzEyNjNfMTI0NTkwIj4mI3hhOzxyZWN0IGZpbGw9IndoaXRlIiBoZWlnaHQ9IjI1NS45OTgiIHdpZHRoPSIyNTUuOTk4Ii8+JiN4YTs8L2NsaXBQYXRoPiYjeGE7PC9kZWZzPiYjeGE7PC9zdmc+" vertex="1" parent="1">
          <mxGeometry x="130" y="298" width="80" height="80" as="geometry" />
        </mxCell>
        <mxCell id="E4g3zkUV0fPsjV3zWIB0-29" style="edgeStyle=orthogonalEdgeStyle;rounded=0;orthogonalLoop=1;jettySize=auto;html=1;entryX=0;entryY=0.5;entryDx=0;entryDy=0;flowAnimation=1;" edge="1" parent="1" source="E4g3zkUV0fPsjV3zWIB0-4" target="E4g3zkUV0fPsjV3zWIB0-8">
          <mxGeometry relative="1" as="geometry" />
        </mxCell>
        <mxCell id="E4g3zkUV0fPsjV3zWIB0-4" value="Data Factory" style="shape=image;verticalLabelPosition=bottom;verticalAlign=top;imageAspect=0;aspect=fixed;image=data:image/svg+xml,PHN2ZyB4bWxucz0iaHR0cDovL3d3dy53My5vcmcvMjAwMC9zdmciIGZpbGw9Im5vbmUiIHZpZXdCb3g9IjAgMCA0OCA0OCIgaGVpZ2h0PSI0OCIgd2lkdGg9IjQ4Ij4mI3hhOzxwYXRoIGZpbGw9InVybCgjcGFpbnQwX2xpbmVhcl8zNTc0OV8xMTI3OTgpIiBkPSJNMTUuNTU3NCA0NEMxNC43MjkgNDQgMTQuMDkwMyA0My4yNiAxNC4yMSA0Mi40NDAxQzE1Ljk4NjUgMzAuNDEwMSAyNi4yOTYxIDIxLjUwMDEgMzguNDMyMSAyMS41MDAxSDQwLjg4NzJDNDIuNTYzOSAyMS41MDAxIDQzLjc5MTUgMjAuNTAwMSA0My43OTE1IDE4LjgyMDJMNDMuOTMxMiAxOC4xNjAyVjI5LjgzMDFDNDMuOTMxMiAzMS42NzAxIDQyLjQ0NDEgMzMuMTYwMSA0MC42MDc4IDMzLjE2MDFIMzkuMjMwNUMzNC4xMjA2IDMzLjE2MDEgMjkuNjA5NSAzNi41MDAxIDI4LjEwMjUgNDEuNDAwMUwyNy42NjM0IDQyLjgyQzI3LjQ0MzggNDMuNTIgMjYuODA1MSA0NCAyNi4wNzY1IDQ0SDE1LjU3NzNIMTUuNTU3NFoiLz4mI3hhOzxwYXRoIGZpbGw9InVybCgjcGFpbnQxX2xpbmVhcl8zNTc0OV8xMTI3OTgpIiBkPSJNMTUuNTU3NCA0NEMxNC43MjkgNDQgMTQuMDkwMyA0My4yNiAxNC4yMSA0Mi40NDAxQzE1Ljk4NjUgMzAuNDEwMSAyNi4yOTYxIDIxLjUwMDEgMzguNDMyMSAyMS41MDAxSDQwLjg4NzJDNDIuNTYzOSAyMS41MDAxIDQzLjc5MTUgMjAuNTAwMSA0My43OTE1IDE4LjgyMDJMNDMuOTMxMiAxOC4xNjAyVjI5LjgzMDFDNDMuOTMxMiAzMS42NzAxIDQyLjQ0NDEgMzMuMTYwMSA0MC42MDc4IDMzLjE2MDFIMzkuMjMwNUMzNC4xMjA2IDMzLjE2MDEgMjkuNjA5NSAzNi41MDAxIDI4LjEwMjUgNDEuNDAwMUwyNy42NjM0IDQyLjgyQzI3LjQ0MzggNDMuNTIgMjYuODA1MSA0NCAyNi4wNzY1IDQ0SDE1LjU3NzNIMTUuNTU3NFoiLz4mI3hhOzxwYXRoIGZpbGw9InVybCgjcGFpbnQyX2xpbmVhcl8zNTc0OV8xMTI3OTgpIiBkPSJNNS42NjY3IDMwLjY2OTlDNC43NDg1MiAzMC42Njk5IDQgMjkuOTE5OSA0IDI4Ljk5OTlWMTguOTk5OUM0IDE4LjA4IDQuNzQ4NTIgMTcuMzMgNS42NjY3IDE3LjMzSDM1LjYwNzRDMzYuNTI1NiAxNy4zMyAzNy4yNzQxIDE4LjA4IDM3LjI3NDEgMTguOTk5OVYyOC45OTk5QzM3LjI3NDEgMjkuOTE5OSAzNi41MjU2IDMwLjY2OTkgMzUuNjA3NCAzMC42Njk5SDUuNjY2N1oiLz4mI3hhOzxwYXRoIGZpbGw9InVybCgjcGFpbnQzX3JhZGlhbF8zNTc0OV8xMTI3OTgpIiBkPSJNNS42NjY3IDMwLjY2OTlDNC43NDg1MiAzMC42Njk5IDQgMjkuOTE5OSA0IDI4Ljk5OTlWMTguOTk5OUM0IDE4LjA4IDQuNzQ4NTIgMTcuMzMgNS42NjY3IDE3LjMzSDM1LjYwNzRDMzYuNTI1NiAxNy4zMyAzNy4yNzQxIDE4LjA4IDM3LjI3NDEgMTguOTk5OVYyOC45OTk5QzM3LjI3NDEgMjkuOTE5OSAzNi41MjU2IDMwLjY2OTkgMzUuNjA3NCAzMC42Njk5SDUuNjY2N1oiLz4mI3hhOzxwYXRoIGZpbGw9InVybCgjcGFpbnQ0X2xpbmVhcl8zNTc0OV8xMTI3OTgpIiBkPSJNMTUuNTc3MSA0QzE0LjczODggNCAxNC4wOTAxIDQuNzUgMTQuMjA5OCA1LjU3OTk5QzE1Ljk4NjMgMTcuODI5OSAyNi40NjU2IDI2LjkwOTkgMzguODIxMSAyNi45MDk5SDQwLjg4N0M0Mi41NjM3IDI2LjkwOTkgNDMuOTIxIDI4LjI2OTkgNDMuOTIxIDI5Ljk0OTlWMTguMTY5OUM0My45MjEgMTYuMzI5OSA0Mi40MzQgMTQuODQgNDAuNTk3NiAxNC44NEgzOS4yMjAzQzM0LjExMDQgMTQuODQgMjkuNTk5NCAxMS41IDI4LjA5MjQgNi41OTk5OUwyNy42NTMyIDUuMTc5OTlDMjcuNDMzNyA0LjQ4IDI2Ljc5NDkgNCAyNi4wNjY0IDRIMTUuNTg3MUgxNS41NzcxWiIvPiYjeGE7PHBhdGggZmlsbD0idXJsKCNwYWludDVfbGluZWFyXzM1NzQ5XzExMjc5OCkiIGQ9Ik00MC41OTY5IDE0LjgzSDM5LjIxOTZDMzYuODU0MyAxNC44MyAzNC42MTg3IDE0LjExIDMyLjc1MjQgMTIuODVWMjYuMTVDMzQuNjk4NiAyNi42NCAzNi43MzQ2IDI2LjkxIDM4LjgzMDQgMjYuOTFINDAuODk2M0M0Mi41NzMgMjYuOTEgNDMuOTMwMyAyOC4yNyA0My45MzAzIDI5Ljk1VjE4LjE3QzQzLjkzMDMgMTYuMzMgNDIuNDQzMyAxNC44NCA0MC42MDY5IDE0Ljg0TDQwLjU5NjkgMTQuODNaIiBvcGFjaXR5PSIwLjQiLz4mI3hhOzxnIG9wYWNpdHk9IjAuNyI+JiN4YTs8cGF0aCBmaWxsPSJ1cmwoI3BhaW50Nl9saW5lYXJfMzU3NDlfMTEyNzk4KSIgZD0iTTE1LjY1NTkgNC4wMDAwNkMxNC44MTc1IDQuMDAwMDYgMTQuMTY4OCA0Ljc1MDA2IDE0LjI4ODYgNS41ODAwNUMxNi4wNjUxIDE3LjgzIDI2LjU0NDMgMjYuOTEgMzguODk5OCAyNi45MUg0MC45NjU4QzQyLjY0MjQgMjYuOTEgNDMuOTk5OCAyOC4yNyA0My45OTk4IDI5Ljk0OTlWMTguMTdDNDMuOTk5OCAxNi4zMyA0Mi41MTI3IDE0Ljg0IDQwLjY3NjMgMTQuODRIMzkuMjk5MUMzNC4xODkyIDE0Ljg0IDI5LjY3ODEgMTEuNSAyOC4xNzExIDYuNjAwMDVMMjcuNzMyIDUuMTgwMDZDMjcuNTEyNCA0LjQ4MDA2IDI2Ljg3MzcgNC4wMDAwNiAyNi4xNDUxIDQuMDAwMDZIMTUuNjY1OEgxNS42NTU5WiIvPiYjeGE7PC9nPiYjeGE7PGRlZnM+JiN4YTs8bGluZWFyR3JhZGllbnQgZ3JhZGllbnRVbml0cz0idXNlclNwYWNlT25Vc2UiIHkyPSIxOC40MDQ3IiB4Mj0iNDQuMTU1MiIgeTE9IjQ1Ljk2IiB4MT0iMTYuNTQ1NCIgaWQ9InBhaW50MF9saW5lYXJfMzU3NDlfMTEyNzk4Ij4mI3hhOzxzdG9wIHN0b3AtY29sb3I9IiMwRDcwMTIiIG9mZnNldD0iMC4yNiIvPiYjeGE7PHN0b3Agc3RvcC1jb2xvcj0iIzA4NTcxNCIgb2Zmc2V0PSIxIi8+JiN4YTs8L2xpbmVhckdyYWRpZW50PiYjeGE7PGxpbmVhckdyYWRpZW50IGdyYWRpZW50VW5pdHM9InVzZXJTcGFjZU9uVXNlIiB5Mj0iMzcuNzI2MyIgeDI9IjUuMDI4NDgiIHkxPSIyNi4xMTAxIiB4MT0iNTcuNDE0NSIgaWQ9InBhaW50MV9saW5lYXJfMzU3NDlfMTEyNzk4Ij4mI3hhOzxzdG9wIHN0b3AtY29sb3I9IiMxMTRBOEEiIG9mZnNldD0iMC4wNCIvPiYjeGE7PHN0b3Agc3RvcC1vcGFjaXR5PSIwIiBzdG9wLWNvbG9yPSIjMEM1OUEzIiBvZmZzZXQ9IjEiLz4mI3hhOzwvbGluZWFyR3JhZGllbnQ+JiN4YTs8bGluZWFyR3JhZGllbnQgZ3JhZGllbnRVbml0cz0idXNlclNwYWNlT25Vc2UiIHkyPSIyMy45OTk5IiB4Mj0iMzYuMjQ2MiIgeTE9IjIzLjk5OTkiIHgxPSItMTYuODU4NyIgaWQ9InBhaW50Ml9saW5lYXJfMzU3NDlfMTEyNzk4Ij4mI3hhOzxzdG9wIHN0b3AtY29sb3I9IiMxMDdDMTAiLz4mI3hhOzxzdG9wIHN0b3AtY29sb3I9IiM1NkI1MEUiIG9mZnNldD0iMC45NiIvPiYjeGE7PC9saW5lYXJHcmFkaWVudD4mI3hhOzxyYWRpYWxHcmFkaWVudCBncmFkaWVudFRyYW5zZm9ybT0idHJhbnNsYXRlKDMwLjQ3MjggMjEuODMwMikgcm90YXRlKC01Ni4zMjIyKSBzY2FsZSgxMC4xNjM4IDI1Ljg5OCkiIGdyYWRpZW50VW5pdHM9InVzZXJTcGFjZU9uVXNlIiByPSIxIiBjeT0iMCIgY3g9IjAiIGlkPSJwYWludDNfcmFkaWFsXzM1NzQ5XzExMjc5OCI+JiN4YTs8c3RvcCBzdG9wLW9wYWNpdHk9IjAuMyIvPiYjeGE7PHN0b3Agc3RvcC1vcGFjaXR5PSIwIiBvZmZzZXQ9IjEiLz4mI3hhOzwvcmFkaWFsR3JhZGllbnQ+JiN4YTs8bGluZWFyR3JhZGllbnQgZ3JhZGllbnRVbml0cz0idXNlclNwYWNlT25Vc2UiIHkyPSIwLjc5Nzk2NiIgeDI9IjE5Ljk2OTkiIHkxPSIzNy42NTk5IiB4MT0iNDUuODI3MiIgaWQ9InBhaW50NF9saW5lYXJfMzU3NDlfMTEyNzk4Ij4mI3hhOzxzdG9wIHN0b3AtY29sb3I9IiMzMzk4MEYiIG9mZnNldD0iMC4wNCIvPiYjeGE7PHN0b3Agc3RvcC1jb2xvcj0iI0JBRTg4NCIgb2Zmc2V0PSIxIi8+JiN4YTs8L2xpbmVhckdyYWRpZW50PiYjeGE7PGxpbmVhckdyYWRpZW50IGdyYWRpZW50VW5pdHM9InVzZXJTcGFjZU9uVXNlIiB5Mj0iMjEuNCIgeDI9IjQzLjgwMDYiIHkxPSIyMS40IiB4MT0iMzcuNzkyNSIgaWQ9InBhaW50NV9saW5lYXJfMzU3NDlfMTEyNzk4Ij4mI3hhOzxzdG9wIHN0b3Atb3BhY2l0eT0iMCIgc3RvcC1jb2xvcj0iI0U1RkFDMSIvPiYjeGE7PHN0b3Agc3RvcC1vcGFjaXR5PSIwLjUyIiBzdG9wLWNvbG9yPSIjRTVGQUMxIiBvZmZzZXQ9IjAuNTYiLz4mI3hhOzxzdG9wIHN0b3AtY29sb3I9IiNFNUZBQzEiIG9mZnNldD0iMSIvPiYjeGE7PC9saW5lYXJHcmFkaWVudD4mI3hhOzxsaW5lYXJHcmFkaWVudCBncmFkaWVudFVuaXRzPSJ1c2VyU3BhY2VPblVzZSIgeTI9IjEyLjAzMzQiIHgyPSIyOC41MzY1IiB5MT0iLTE0LjkwOTkiIHgxPSIxMi45NDEyIiBpZD0icGFpbnQ2X2xpbmVhcl8zNTc0OV8xMTI3OTgiPiYjeGE7PHN0b3Agc3RvcC1jb2xvcj0iI0ZERTEwMCIgb2Zmc2V0PSIwLjE0Ii8+JiN4YTs8c3RvcCBzdG9wLW9wYWNpdHk9IjAiIHN0b3AtY29sb3I9IiNGRkM2MDAiIG9mZnNldD0iMC45OCIvPiYjeGE7PC9saW5lYXJHcmFkaWVudD4mI3hhOzwvZGVmcz4mI3hhOzwvc3ZnPg==;fontSize=8;fontStyle=1" vertex="1" parent="1">
          <mxGeometry x="180" y="450" width="60" height="60" as="geometry" />
        </mxCell>
        <mxCell id="E4g3zkUV0fPsjV3zWIB0-5" value="" style="rounded=1;whiteSpace=wrap;html=1;fillStyle=hatch;fillColor=#dae8fc;strokeColor=#6c8ebf;" vertex="1" parent="1">
          <mxGeometry x="260" y="400" width="300" height="160" as="geometry" />
        </mxCell>
        <mxCell id="E4g3zkUV0fPsjV3zWIB0-6" value="One Lake" style="shape=image;verticalLabelPosition=bottom;verticalAlign=top;imageAspect=0;aspect=fixed;image=data:image/svg+xml,PHN2ZyB4bWxucz0iaHR0cDovL3d3dy53My5vcmcvMjAwMC9zdmciIHZpZXdCb3g9IjAgMCA0OCA0OSIgZmlsbD0iY3VycmVudENvbG9yIiBoZWlnaHQ9IjQ5IiB3aWR0aD0iNDgiPiYjeGE7ICA8bWFzayBzdHlsZT0ibWFzay10eXBlOmx1bWluYW5jZSIgbWFza1VuaXRzPSJ1c2VyU3BhY2VPblVzZSIgeT0iNCIgeD0iNCIgaGVpZ2h0PSI0MSIgd2lkdGg9IjQwIiBpZD0iYSI+JiN4YTsgICAgPHBhdGggZD0iTTQzLjQ4MSA0LjVINC41MnYzOS45ODVoMzguOTZWNC41WiIgZmlsbD0iI2ZmZiIvPiYjeGE7ICA8L21hc2s+JiN4YTsgIDxnIG1hc2s9InVybCgjYSkiPiYjeGE7ICAgIDxwYXRoIGQ9Ik0yMi4yMSAzMy4wNDFjNS40ODYtMy4xNjggNy4yOTMtMTAuMzEyIDQuMDMzLTE1Ljk1Ny0zLjI2LTUuNjQ2LTEwLjM1LTcuNjU0LTE1LjgzNi00LjQ4NkM0LjkyIDE1Ljc2NiAzLjExNCAyMi45MSA2LjM3MyAyOC41NTZjMy4yNiA1LjY0NSAxMC4zNSA3LjY1MyAxNS44MzYgNC40ODVaIiBmaWxsPSJ1cmwoI2IpIi8+JiN4YTsgICAgPHBhdGggZD0iTTI5LjM3MSAxNy4yMTVjMi44NDktMi44NSAyLjc4LTcuNTM2LS4xNTItMTAuNDY4QzI2LjI4NyAzLjgxNiAyMS42IDMuNzUgMTguNzUxIDYuNnMtMi43OCA3LjUzNy4xNTIgMTAuNDY4YzIuOTMzIDIuOTMyIDcuNjIgMi45OTggMTAuNDY4LjE0OFoiIGZpbGw9InVybCgjYykiLz4mI3hhOyAgICA8cGF0aCBkPSJNMjYuMjk5IDQzLjcyYzkuNDg3IDAgMTcuMTc4LTcuNjkxIDE3LjE3OC0xNy4xNzlTMzUuNzg3IDkuMzYyIDI2LjMgOS4zNjIgOS4xMiAxNy4wNTMgOS4xMiAyNi41NDEgMTYuODExIDQzLjcyIDI2LjMgNDMuNzJaIiBmaWxsPSJ1cmwoI2QpIi8+JiN4YTsgICAgPHBhdGggY2xpcC1ydWxlPSJldmVub2RkIiBkPSJNMTkuNTY5IDUuODg3Yy0xMC4wODUgNi4yMy0xMy42MSAxOS4zNS03LjgxNSAyOS44NDUuMzkuNzEuODE1IDEuMzkyIDEuMjc0IDIuMDM5bC40NS4wNjkgOS45NjYgMy4zMjcgOS40NjgtNi4zNDNjLTEuNTg1LjA1LTguMTgtMy42OTMtMTIuNDktMTEuODcyLTUuNC0xMC4yNDgtMy4xNzMtMTQuOTgyLS44NDMtMTcuMDY1aC0uMDFaIiBmaWxsLXJ1bGU9ImV2ZW5vZGQiIGZpbGw9InVybCgjZSkiLz4mI3hhOyAgICA8cGF0aCBjbGlwLXJ1bGU9ImV2ZW5vZGQiIGQ9Ik0xOS41NjkgNS44ODdjLTEwLjA4NSA2LjIzLTEzLjYxIDE5LjM1LTcuODE1IDI5Ljg0NS4zOS43MS44MTUgMS4zOTIgMS4yNzQgMi4wMzlsLjQ1LjA2OSA5Ljk2NiAzLjMyNyA5LjQ2OC02LjM0M2MtMS41ODUuMDUtOC4xOC0zLjY5My0xMi40OS0xMS44NzItNS40LTEwLjI0OC0zLjE3My0xNC45ODItLjg0My0xNy4wNjVoLS4wMVoiIGZpbGwtcnVsZT0iZXZlbm9kZCIgZmlsbC1vcGFjaXR5PSIuMiIgZmlsbD0idXJsKCNmKSIvPiYjeGE7ICAgIDxwYXRoIGNsaXAtcnVsZT0iZXZlbm9kZCIgZD0iTTM5LjM2NCAzNy42OTdhMTcuMjQgMTcuMjQgMCAwIDAgMy42MzgtNy4xMDljLTEuNzA4LTQuODc3LTguNTgtNi4yNDktMTIuMzQtMi40MzMtMi44ODkgMi45MjctNS44OSA1LjM4Ni04LjE0NiA1LjgyNUM5LjQ2OSAzNi41NDIgMy45MTkgMjUuNzg3IDQuODczIDIwLjg0YTE5LjgxIDE5LjgxIDAgMCAwIC4wNSA3LjczYzIuMTk2IDEwLjc2IDEyLjY5NiAxNy43IDIzLjQ1NyAxNS41MDVhMTkuODE0IDE5LjgxNCAwIDAgMCA4LjcyNy00LjE4MXMuMDQtLjAzLjA1NC0uMDQ1YTE5Ljc2IDE5Ljc2IDAgMCAwIDIuMjAyLTIuMTU3di4wMDVaIiBmaWxsLXJ1bGU9ImV2ZW5vZGQiIGZpbGw9InVybCgjZykiLz4mI3hhOyAgPC9nPiYjeGE7ICA8ZGVmcz4mI3hhOyAgICA8cmFkaWFsR3JhZGllbnQgZ3JhZGllbnRVbml0cz0idXNlclNwYWNlT25Vc2UiIGdyYWRpZW50VHJhbnNmb3JtPSJyb3RhdGUoMTM0LjgzIDE4LjExMyA4LjI5NCkgc2NhbGUoMjUuODkyNSAzMy40MDMzKSIgcj0iMSIgY3k9IjAiIGN4PSIwIiBpZD0iZCI+JiN4YTsgICAgICA8c3RvcCBzdG9wLWNvbG9yPSIjMDI4RkRDIiBvZmZzZXQ9Ii4zOSIvPiYjeGE7ICAgICAgPHN0b3Agc3RvcC1jb2xvcj0iIzAwNzhENCIgb2Zmc2V0PSIuNTkiLz4mI3hhOyAgICAgIDxzdG9wIHN0b3AtY29sb3I9IiMxQTUwOEIiIG9mZnNldD0iMSIvPiYjeGE7ICAgIDwvcmFkaWFsR3JhZGllbnQ+JiN4YTsgICAgPHJhZGlhbEdyYWRpZW50IGdyYWRpZW50VW5pdHM9InVzZXJTcGFjZU9uVXNlIiBncmFkaWVudFRyYW5zZm9ybT0icm90YXRlKDEzOS40NCAxMi41NCAxNC4xNDUpIHNjYWxlKDIzLjMwMDYgMjguNzQ5NSkiIHI9IjEiIGN5PSIwIiBjeD0iMCIgaWQ9ImUiPiYjeGE7ICAgICAgPHN0b3Agc3RvcC1jb2xvcj0iIzQwRDlGQSIgb2Zmc2V0PSIuNDYiLz4mI3hhOyAgICAgIDxzdG9wIHN0b3AtY29sb3I9IiMwMDk1RTYiIG9mZnNldD0iLjkiLz4mI3hhOyAgICA8L3JhZGlhbEdyYWRpZW50PiYjeGE7ICAgIDxyYWRpYWxHcmFkaWVudCBncmFkaWVudFVuaXRzPSJ1c2VyU3BhY2VPblVzZSIgZ3JhZGllbnRUcmFuc2Zvcm09Im1hdHJpeCgtMi42NTMwOCAyNC41ODE4NCAtMTcuNDU4MzEgLTEuODg0MjUgMTguNDA4IDExLjc2NCkiIHI9IjEiIGN5PSIwIiBjeD0iMCIgaWQ9ImYiPiYjeGE7ICAgICAgPHN0b3Agc3RvcC1vcGFjaXR5PSIwIiBvZmZzZXQ9Ii43NyIvPiYjeGE7ICAgICAgPHN0b3Agb2Zmc2V0PSIxIi8+JiN4YTsgICAgPC9yYWRpYWxHcmFkaWVudD4mI3hhOyAgICA8cmFkaWFsR3JhZGllbnQgZ3JhZGllbnRVbml0cz0idXNlclNwYWNlT25Vc2UiIGdyYWRpZW50VHJhbnNmb3JtPSJyb3RhdGUoODUuOTcgLTEuMDExIDMxLjIwOSkgc2NhbGUoMzguNDc0OSA3MC4xNTc4KSIgcj0iMSIgY3k9IjAiIGN4PSIwIiBpZD0iZyI+JiN4YTsgICAgICA8c3RvcCBzdG9wLWNvbG9yPSIjQkRGNUZGIiBvZmZzZXQ9Ii4xIi8+JiN4YTsgICAgICA8c3RvcCBzdG9wLWNvbG9yPSIjNDBEOUZBIiBvZmZzZXQ9Ii40NyIvPiYjeGE7ICAgIDwvcmFkaWFsR3JhZGllbnQ+JiN4YTsgICAgPGxpbmVhckdyYWRpZW50IGdyYWRpZW50VW5pdHM9InVzZXJTcGFjZU9uVXNlIiB5Mj0iMjUuNTU3IiB5MT0iMTcuNDczIiB4Mj0iNC40NDgiIHgxPSIzOS41MSIgaWQ9ImIiPiYjeGE7ICAgICAgPHN0b3Agc3RvcC1jb2xvcj0iIzAyOEZEQyIgb2Zmc2V0PSIuMiIvPiYjeGE7ICAgICAgPHN0b3Agc3RvcC1jb2xvcj0iIzAwNzhENCIgb2Zmc2V0PSIuNTEiLz4mI3hhOyAgICAgIDxzdG9wIHN0b3AtY29sb3I9IiMwQjMxNUIiIG9mZnNldD0iMSIvPiYjeGE7ICAgIDwvbGluZWFyR3JhZGllbnQ+JiN4YTsgICAgPGxpbmVhckdyYWRpZW50IGdyYWRpZW50VW5pdHM9InVzZXJTcGFjZU9uVXNlIiB5Mj0iNy4xMTIiIHkxPSIyOC4zNDEiIHgyPSIxOC44MzEiIHgxPSI0MS45OTUiIGlkPSJjIj4mI3hhOyAgICAgIDxzdG9wIHN0b3AtY29sb3I9IiMwMjhGREMiIG9mZnNldD0iLjA0Ii8+JiN4YTsgICAgICA8c3RvcCBzdG9wLWNvbG9yPSIjMDA3OEQ0IiBvZmZzZXQ9Ii40NiIvPiYjeGE7ICAgICAgPHN0b3Agc3RvcC1jb2xvcj0iIzBCMzE1QiIgb2Zmc2V0PSIxIi8+JiN4YTsgICAgPC9saW5lYXJHcmFkaWVudD4mI3hhOyAgPC9kZWZzPiYjeGE7PC9zdmc+;fontSize=8;fontStyle=1" vertex="1" parent="1">
          <mxGeometry x="385.02" y="540" width="49.96" height="51" as="geometry" />
        </mxCell>
        <mxCell id="E4g3zkUV0fPsjV3zWIB0-28" style="edgeStyle=orthogonalEdgeStyle;rounded=0;orthogonalLoop=1;jettySize=auto;html=1;entryX=0;entryY=0.5;entryDx=0;entryDy=0;flowAnimation=1;" edge="1" parent="1" source="E4g3zkUV0fPsjV3zWIB0-8" target="E4g3zkUV0fPsjV3zWIB0-10">
          <mxGeometry relative="1" as="geometry" />
        </mxCell>
        <mxCell id="E4g3zkUV0fPsjV3zWIB0-8" value="" style="ellipse;whiteSpace=wrap;html=1;aspect=fixed;fillStyle=hatch;" vertex="1" parent="1">
          <mxGeometry x="276" y="450" width="60" height="60" as="geometry" />
        </mxCell>
        <mxCell id="E4g3zkUV0fPsjV3zWIB0-9" value="" style="sketch=0;outlineConnect=0;fontColor=#232F3E;gradientColor=none;fillColor=#232F3D;strokeColor=none;dashed=0;verticalLabelPosition=bottom;verticalAlign=top;align=center;html=1;fontSize=12;fontStyle=0;aspect=fixed;pointerEvents=1;shape=mxgraph.aws4.json_script;" vertex="1" parent="1">
          <mxGeometry x="295.03999999999996" y="465" width="21.92" height="30" as="geometry" />
        </mxCell>
        <mxCell id="E4g3zkUV0fPsjV3zWIB0-27" style="edgeStyle=orthogonalEdgeStyle;rounded=0;orthogonalLoop=1;jettySize=auto;html=1;entryX=0;entryY=0.5;entryDx=0;entryDy=0;flowAnimation=1;" edge="1" parent="1" source="E4g3zkUV0fPsjV3zWIB0-10" target="E4g3zkUV0fPsjV3zWIB0-11">
          <mxGeometry relative="1" as="geometry" />
        </mxCell>
        <mxCell id="E4g3zkUV0fPsjV3zWIB0-10" value="" style="ellipse;whiteSpace=wrap;html=1;aspect=fixed;fillStyle=hatch;" vertex="1" parent="1">
          <mxGeometry x="380" y="450" width="60" height="60" as="geometry" />
        </mxCell>
        <mxCell id="E4g3zkUV0fPsjV3zWIB0-26" style="edgeStyle=orthogonalEdgeStyle;rounded=0;orthogonalLoop=1;jettySize=auto;html=1;entryX=0;entryY=0.5;entryDx=0;entryDy=0;flowAnimation=1;" edge="1" parent="1" source="E4g3zkUV0fPsjV3zWIB0-11" target="E4g3zkUV0fPsjV3zWIB0-17">
          <mxGeometry relative="1" as="geometry" />
        </mxCell>
        <mxCell id="E4g3zkUV0fPsjV3zWIB0-11" value="" style="ellipse;whiteSpace=wrap;html=1;aspect=fixed;fillStyle=hatch;" vertex="1" parent="1">
          <mxGeometry x="484" y="450" width="60" height="60" as="geometry" />
        </mxCell>
        <mxCell id="E4g3zkUV0fPsjV3zWIB0-12" value="" style="shape=image;verticalLabelPosition=bottom;verticalAlign=top;imageAspect=0;aspect=fixed;image=data:image/svg+xml,PHN2ZyB4bWxucz0iaHR0cDovL3d3dy53My5vcmcvMjAwMC9zdmciIGZpbGw9Im5vbmUiIHZpZXdCb3g9IjAgMCAzMiAzMyIgaGVpZ2h0PSIzMyIgd2lkdGg9IjMyIj4mI3hhOzxwYXRoIGZpbGw9ImJsYWNrIiBkPSJNMTIuNjI2IDQuMzkwMDJDMTMuMzk3IDMuNjYxNzQgMTQuNjAzIDMuNjYxNzQgMTUuMzc0IDQuMzkwMDJMMjUuMDYxIDEzLjU0MDNDMjUuNjYwNCAxNC4xMDY0IDI2IDE0Ljg5NDEgMjYgMTUuNzE4MlYxOC42MDYyQzI1Ljc5OSAxOC40MjY0IDI1LjU3NCAxOC4yNzQgMjUuMzMwNyAxOC4xNTM4QzI0LjkxNyAxNy45NDkyIDI0LjQ2MTUgMTcuODQzMiAyNCAxNy44NDM4VjE1LjcxODJDMjQgMTUuNDQzNSAyMy44ODY4IDE1LjE4MSAyMy42ODcgMTQuOTkyMkwxNCA1Ljg0MTk4TDQuMzEyOTkgMTQuOTkyMkM0LjExMzIgMTUuMTgxIDQgMTUuNDQzNSA0IDE1LjcxODJWMjYuODQ2NkM0IDI3LjM5ODMgNC40NDc3MiAyNy44NDU2IDUgMjcuODQ1Nkg4Ljc2MjNDOC4yNzI2NyAyOC4zOTM5IDggMjkuMTA0OCA4IDI5Ljg0MzhMNSAyOS44NDM4QzMuMzQzMTQgMjkuODQzOCAyIDI4LjUwMTkgMiAyNi44NDY2VjE1LjcxODJDMiAxNC44OTQxIDIuMzM5NjEgMTQuMTA2NCAyLjkzODk2IDEzLjU0MDNMMTIuNjI2IDQuMzkwMDJaIi8+JiN4YTs8cGF0aCBmaWxsPSJibGFjayIgZD0iTTI5IDIyLjg0MzdDMjguMzk3OSAyMi44NzczIDI3Ljc5NTIgMjIuNzg3NiAyNy4yMjg5IDIyLjU4QzI2LjY2MjcgMjIuMzcyNSAyNi4xNDQ4IDIyLjA1MTUgMjUuNzA3IDIxLjYzNjdDMjUuNDY1OCAyMS4zOTY0IDI1LjI1OTEgMjEuMTIzOCAyNS4wOTMgMjAuODI2N0MyNS4wNTI2IDIwLjc1MDYgMjUuMDE2MyAyMC42NzI1IDI0Ljk4NCAyMC41OTI3QzI0Ljk0OTMgMjAuNTA1OSAyNC45MDkyIDIwLjQyMTQgMjQuODY0IDIwLjMzOTdDMjQuODQzNyAyMC4zMDUgMjQuODIxNCAyMC4yNzE2IDI0Ljc5NyAyMC4yMzk3QzI0LjY3MTkgMjAuMDc1MyAyNC40OTkgMTkuOTUzNyAyNC4zMDIxIDE5Ljg5MTZDMjQuMTA1MSAxOS44Mjk1IDIzLjg5MzcgMTkuODI5OCAyMy42OTcgMTkuODkyN0gyMy42ODdDMjMuNDU2NiAxOS45NzA5IDIzLjI2MTggMjAuMTI5MiAyMy4xMzggMjAuMzM4N0MyMy4wODYxIDIwLjQzNTMgMjMuMDQxMyAyMC41MzU1IDIzLjAwNCAyMC42Mzg3TDIyLjk5MzUgMjAuNjY0OEMyMi45NjYxIDIwLjczMzIgMjIuOTM4NiAyMC44MDE5IDIyLjkwNCAyMC44NjY3QzIyLjc1NDEgMjEuMTY2IDIyLjU3MDkgMjEuNDQ3NCAyMi4zNTggMjEuNzA1N0MyMi4wNzY1IDIyLjA2MTEgMjEuNzE4MiAyMi4zNDgyIDIxLjMxMDEgMjIuNTQ1NUMyMC45MDE5IDIyLjc0MjkgMjAuNDU0NCAyMi44NDU0IDIwLjAwMSAyMi44NDU0QzE5LjU0NzYgMjIuODQ1NCAxOS4xMDAxIDIyLjc0MjkgMTguNjkxOSAyMi41NDU1QzE4LjI4MzggMjIuMzQ4MiAxNy45MjU1IDIyLjA2MTEgMTcuNjQ0IDIxLjcwNTdDMTcuNDMxMSAyMS40NDc0IDE3LjI0NzkgMjEuMTY2IDE3LjA5OCAyMC44NjY3QzE3LjA3MTEgMjAuODEzNiAxNy4wNDc5IDIwLjc1NzkgMTcuMDI0NiAyMC43MDE5QzE3LjAxNTggMjAuNjgwOCAxNy4wMDcgMjAuNjU5NyAxNi45OTggMjAuNjM4N0MxNi45NjA3IDIwLjUzNTUgMTYuOTE1OSAyMC40MzUzIDE2Ljg2NCAyMC4zMzg3QzE2Ljc0MDIgMjAuMTI5MiAxNi41NDU0IDE5Ljk3MDkgMTYuMzE1IDE5Ljg5MjdIMTYuMzA1QzE2LjEwODMgMTkuODI5OCAxNS44OTY5IDE5LjgyOTUgMTUuNjk5OSAxOS44OTE2QzE1LjUwMyAxOS45NTM3IDE1LjMzMDEgMjAuMDc1MyAxNS4yMDUgMjAuMjM5N0MxNS4xODA2IDIwLjI3MTYgMTUuMTU4MyAyMC4zMDUgMTUuMTM4IDIwLjMzOTdDMTUuMDkyOCAyMC40MjE0IDE1LjA1MjcgMjAuNTA1OSAxNS4wMTggMjAuNTkyN0MxNC45ODU3IDIwLjY3MjUgMTQuOTQ5NCAyMC43NTA2IDE0LjkwOSAyMC44MjY3QzE0Ljc0MjkgMjEuMTIzOCAxNC41MzYyIDIxLjM5NjQgMTQuMjk1IDIxLjYzNjdDMTMuODU3IDIyLjA1MTcgMTMuMzM4NyAyMi4zNzI5IDEyLjc3MjEgMjIuNTgwNEMxMi4yMDU1IDIyLjc4OCAxMS42MDI1IDIyLjg3NzYgMTEgMjIuODQzN0MxMC43MzQ4IDIyLjg0MzcgMTAuNDgwNCAyMi45NDkgMTAuMjkyOSAyMy4xMzY2QzEwLjEwNTQgMjMuMzI0MSAxMCAyMy41Nzg1IDEwIDIzLjg0MzdDMTAgMjQuMTA4OSAxMC4xMDU0IDI0LjM2MzIgMTAuMjkyOSAyNC41NTA4QzEwLjQ4MDQgMjQuNzM4MyAxMC43MzQ4IDI0Ljg0MzcgMTEgMjQuODQzN0MxMS44NjUgMjQuODc3OSAxMi43Mjc5IDI0LjczNjcgMTMuNTM2OSAyNC40Mjg2QzE0LjM0NTggMjQuMTIwNCAxNS4wODQgMjMuNjUxNyAxNS43MDcgMjMuMDUwN0MxNS43OTQgMjIuOTYzNyAxNS44NzYgMjIuODc2NyAxNS45NTIgMjIuNzg5N0MxNi4wMDEgMjIuODU0NyAxNi4wNTIgMjIuOTE4NyAxNi4xMDcgMjIuOTgzN0MxNi41NzU2IDIzLjU2NTEgMTcuMTY4NiAyNC4wMzQyIDE3Ljg0MjIgMjQuMzU2NUMxOC41MTU5IDI0LjY3ODggMTkuMjUzMiAyNC44NDYxIDIwIDI0Ljg0NjFDMjAuNzQ2OCAyNC44NDYxIDIxLjQ4NDEgMjQuNjc4OCAyMi4xNTc4IDI0LjM1NjVDMjIuODMxNCAyNC4wMzQyIDIzLjQyNDQgMjMuNTY1MSAyMy44OTMgMjIuOTgzN0MyMy45NDcgMjIuOTE4NyAyMy45OTkgMjIuODU0NyAyNC4wNDggMjIuNzg5N0MyNC4xMjQgMjIuODc2NyAyNC4yMDYgMjIuOTYzNyAyNC4yOTMgMjMuMDUwN0MyNC45MTYgMjMuNjUxNyAyNS42NTQyIDI0LjEyMDQgMjYuNDYzMSAyNC40Mjg2QzI3LjI3MjEgMjQuNzM2NyAyOC4xMzUgMjQuODc3OSAyOSAyNC44NDM3QzI5LjI2NTIgMjQuODQzNyAyOS41MTk2IDI0LjczODMgMjkuNzA3MSAyNC41NTA4QzI5Ljg5NDYgMjQuMzYzMiAzMCAyNC4xMDg5IDMwIDIzLjg0MzdDMzAgMjMuNTc4NSAyOS44OTQ2IDIzLjMyNDEgMjkuNzA3MSAyMy4xMzY2QzI5LjUxOTYgMjIuOTQ5IDI5LjI2NTIgMjIuODQzNyAyOSAyMi44NDM3WiIvPiYjeGE7PHBhdGggZmlsbD0iYmxhY2siIGQ9Ik0yOSAyOC44NDM3QzI4LjM5NzkgMjguODc3MyAyNy43OTUyIDI4Ljc4NzYgMjcuMjI4OSAyOC41OEMyNi42NjI3IDI4LjM3MjUgMjYuMTQ0OCAyOC4wNTE1IDI1LjcwNyAyNy42MzY3QzI1LjQ2NTggMjcuMzk2NCAyNS4yNTkxIDI3LjEyMzggMjUuMDkzIDI2LjgyNjdDMjUuMDUyNiAyNi43NTA2IDI1LjAxNjMgMjYuNjcyNSAyNC45ODQgMjYuNTkyN0MyNC45NDkzIDI2LjUwNTkgMjQuOTA5MiAyNi40MjE0IDI0Ljg2NCAyNi4zMzk3QzI0Ljg0MzcgMjYuMzA1IDI0LjgyMTQgMjYuMjcxNiAyNC43OTcgMjYuMjM5N0MyNC42NzE5IDI2LjA3NTMgMjQuNDk5IDI1Ljk1MzcgMjQuMzAyMSAyNS44OTE2QzI0LjEwNTEgMjUuODI5NSAyMy44OTM3IDI1LjgyOTggMjMuNjk3IDI1Ljg5MjdIMjMuNjg3QzIzLjQ1NjYgMjUuOTcwOSAyMy4yNjE4IDI2LjEyOTIgMjMuMTM4IDI2LjMzODdDMjMuMDg2MSAyNi40MzUzIDIzLjA0MTMgMjYuNTM1NSAyMy4wMDQgMjYuNjM4N0wyMi45OTM1IDI2LjY2NDhDMjIuOTY2MSAyNi43MzMyIDIyLjkzODYgMjYuODAxOSAyMi45MDQgMjYuODY2N0MyMi43NTQxIDI3LjE2NiAyMi41NzA5IDI3LjQ0NzQgMjIuMzU4IDI3LjcwNTdDMjIuMDc2NSAyOC4wNjExIDIxLjcxODIgMjguMzQ4MiAyMS4zMTAxIDI4LjU0NTVDMjAuOTAxOSAyOC43NDI5IDIwLjQ1NDQgMjguODQ1NCAyMC4wMDEgMjguODQ1NEMxOS41NDc2IDI4Ljg0NTQgMTkuMTAwMSAyOC43NDI5IDE4LjY5MTkgMjguNTQ1NUMxOC4yODM4IDI4LjM0ODIgMTcuOTI1NSAyOC4wNjExIDE3LjY0NCAyNy43MDU3QzE3LjQzMTEgMjcuNDQ3NCAxNy4yNDc5IDI3LjE2NiAxNy4wOTggMjYuODY2N0MxNy4wNzExIDI2LjgxMzYgMTcuMDQ3OSAyNi43NTc5IDE3LjAyNDYgMjYuNzAxOUMxNy4wMTU4IDI2LjY4MDggMTcuMDA3IDI2LjY1OTcgMTYuOTk4IDI2LjYzODdDMTYuOTYwNyAyNi41MzU1IDE2LjkxNTkgMjYuNDM1MyAxNi44NjQgMjYuMzM4N0MxNi43NDAyIDI2LjEyOTIgMTYuNTQ1NCAyNS45NzA5IDE2LjMxNSAyNS44OTI3SDE2LjMwNUMxNi4xMDgzIDI1LjgyOTggMTUuODk2OSAyNS44Mjk1IDE1LjY5OTkgMjUuODkxNkMxNS41MDMgMjUuOTUzNyAxNS4zMzAxIDI2LjA3NTMgMTUuMjA1IDI2LjIzOTdDMTUuMTgwNiAyNi4yNzE2IDE1LjE1ODMgMjYuMzA1IDE1LjEzOCAyNi4zMzk3QzE1LjA5MjggMjYuNDIxNCAxNS4wNTI3IDI2LjUwNTkgMTUuMDE4IDI2LjU5MjdDMTQuOTg1NyAyNi42NzI1IDE0Ljk0OTQgMjYuNzUwNiAxNC45MDkgMjYuODI2N0MxNC43NDI5IDI3LjEyMzggMTQuNTM2MiAyNy4zOTY0IDE0LjI5NSAyNy42MzY3QzEzLjg1NyAyOC4wNTE3IDEzLjMzODcgMjguMzcyOSAxMi43NzIxIDI4LjU4MDRDMTIuMjA1NSAyOC43ODggMTEuNjAyNSAyOC44Nzc2IDExIDI4Ljg0MzdDMTAuNzM0OCAyOC44NDM3IDEwLjQ4MDQgMjguOTQ5IDEwLjI5MjkgMjkuMTM2NkMxMC4xMDU0IDI5LjMyNDEgMTAgMjkuNTc4NSAxMCAyOS44NDM3QzEwIDMwLjEwODkgMTAuMTA1NCAzMC4zNjMyIDEwLjI5MjkgMzAuNTUwOEMxMC40ODA0IDMwLjczODMgMTAuNzM0OCAzMC44NDM3IDExIDMwLjg0MzdDMTEuODY1IDMwLjg3NzkgMTIuNzI3OSAzMC43MzY3IDEzLjUzNjkgMzAuNDI4NkMxNC4zNDU4IDMwLjEyMDQgMTUuMDg0IDI5LjY1MTcgMTUuNzA3IDI5LjA1MDdDMTUuNzk0IDI4Ljk2MzcgMTUuODc2IDI4Ljg3NjcgMTUuOTUyIDI4Ljc4OTdDMTYuMDAxIDI4Ljg1NDcgMTYuMDUyIDI4LjkxODcgMTYuMTA3IDI4Ljk4MzdDMTYuNTc1NiAyOS41NjUxIDE3LjE2ODYgMzAuMDM0MiAxNy44NDIyIDMwLjM1NjVDMTguNTE1OSAzMC42Nzg4IDE5LjI1MzIgMzAuODQ2MSAyMCAzMC44NDYxQzIwLjc0NjggMzAuODQ2MSAyMS40ODQxIDMwLjY3ODggMjIuMTU3OCAzMC4zNTY1QzIyLjgzMTQgMzAuMDM0MiAyMy40MjQ0IDI5LjU2NTEgMjMuODkzIDI4Ljk4MzdDMjMuOTQ3IDI4LjkxODcgMjMuOTk5IDI4Ljg1NDcgMjQuMDQ4IDI4Ljc4OTdDMjQuMTI0IDI4Ljg3NjcgMjQuMjA2IDI4Ljk2MzcgMjQuMjkzIDI5LjA1MDdDMjQuOTE2IDI5LjY1MTcgMjUuNjU0MiAzMC4xMjA0IDI2LjQ2MzEgMzAuNDI4NkMyNy4yNzIxIDMwLjczNjcgMjguMTM1IDMwLjg3NzkgMjkgMzAuODQzN0MyOS4yNjUyIDMwLjg0MzcgMjkuNTE5NiAzMC43MzgzIDI5LjcwNzEgMzAuNTUwOEMyOS44OTQ2IDMwLjM2MzIgMzAgMzAuMTA4OSAzMCAyOS44NDM3QzMwIDI5LjU3ODUgMjkuODk0NiAyOS4zMjQxIDI5LjcwNzEgMjkuMTM2NkMyOS41MTk2IDI4Ljk0OSAyOS4yNjUyIDI4Ljg0MzcgMjkgMjguODQzN1oiLz4mI3hhOzwvc3ZnPg==;imageBackground=none;imageBorder=none;" vertex="1" parent="1">
          <mxGeometry x="292.61" y="512.38" width="26.79" height="27.62" as="geometry" />
        </mxCell>
        <mxCell id="E4g3zkUV0fPsjV3zWIB0-13" value="" style="shape=image;verticalLabelPosition=bottom;verticalAlign=top;imageAspect=0;aspect=fixed;image=data:image/svg+xml,PHN2ZyB4bWxucz0iaHR0cDovL3d3dy53My5vcmcvMjAwMC9zdmciIGZpbGw9Im5vbmUiIHZpZXdCb3g9IjAgMCAzMiAzMyIgaGVpZ2h0PSIzMyIgd2lkdGg9IjMyIj4mI3hhOzxwYXRoIGZpbGw9ImJsYWNrIiBkPSJNMTIuNjI2IDQuMzkwMDJDMTMuMzk3IDMuNjYxNzQgMTQuNjAzIDMuNjYxNzQgMTUuMzc0IDQuMzkwMDJMMjUuMDYxIDEzLjU0MDNDMjUuNjYwNCAxNC4xMDY0IDI2IDE0Ljg5NDEgMjYgMTUuNzE4MlYxOC42MDYyQzI1Ljc5OSAxOC40MjY0IDI1LjU3NCAxOC4yNzQgMjUuMzMwNyAxOC4xNTM4QzI0LjkxNyAxNy45NDkyIDI0LjQ2MTUgMTcuODQzMiAyNCAxNy44NDM4VjE1LjcxODJDMjQgMTUuNDQzNSAyMy44ODY4IDE1LjE4MSAyMy42ODcgMTQuOTkyMkwxNCA1Ljg0MTk4TDQuMzEyOTkgMTQuOTkyMkM0LjExMzIgMTUuMTgxIDQgMTUuNDQzNSA0IDE1LjcxODJWMjYuODQ2NkM0IDI3LjM5ODMgNC40NDc3MiAyNy44NDU2IDUgMjcuODQ1Nkg4Ljc2MjNDOC4yNzI2NyAyOC4zOTM5IDggMjkuMTA0OCA4IDI5Ljg0MzhMNSAyOS44NDM4QzMuMzQzMTQgMjkuODQzOCAyIDI4LjUwMTkgMiAyNi44NDY2VjE1LjcxODJDMiAxNC44OTQxIDIuMzM5NjEgMTQuMTA2NCAyLjkzODk2IDEzLjU0MDNMMTIuNjI2IDQuMzkwMDJaIi8+JiN4YTs8cGF0aCBmaWxsPSJibGFjayIgZD0iTTI5IDIyLjg0MzdDMjguMzk3OSAyMi44NzczIDI3Ljc5NTIgMjIuNzg3NiAyNy4yMjg5IDIyLjU4QzI2LjY2MjcgMjIuMzcyNSAyNi4xNDQ4IDIyLjA1MTUgMjUuNzA3IDIxLjYzNjdDMjUuNDY1OCAyMS4zOTY0IDI1LjI1OTEgMjEuMTIzOCAyNS4wOTMgMjAuODI2N0MyNS4wNTI2IDIwLjc1MDYgMjUuMDE2MyAyMC42NzI1IDI0Ljk4NCAyMC41OTI3QzI0Ljk0OTMgMjAuNTA1OSAyNC45MDkyIDIwLjQyMTQgMjQuODY0IDIwLjMzOTdDMjQuODQzNyAyMC4zMDUgMjQuODIxNCAyMC4yNzE2IDI0Ljc5NyAyMC4yMzk3QzI0LjY3MTkgMjAuMDc1MyAyNC40OTkgMTkuOTUzNyAyNC4zMDIxIDE5Ljg5MTZDMjQuMTA1MSAxOS44Mjk1IDIzLjg5MzcgMTkuODI5OCAyMy42OTcgMTkuODkyN0gyMy42ODdDMjMuNDU2NiAxOS45NzA5IDIzLjI2MTggMjAuMTI5MiAyMy4xMzggMjAuMzM4N0MyMy4wODYxIDIwLjQzNTMgMjMuMDQxMyAyMC41MzU1IDIzLjAwNCAyMC42Mzg3TDIyLjk5MzUgMjAuNjY0OEMyMi45NjYxIDIwLjczMzIgMjIuOTM4NiAyMC44MDE5IDIyLjkwNCAyMC44NjY3QzIyLjc1NDEgMjEuMTY2IDIyLjU3MDkgMjEuNDQ3NCAyMi4zNTggMjEuNzA1N0MyMi4wNzY1IDIyLjA2MTEgMjEuNzE4MiAyMi4zNDgyIDIxLjMxMDEgMjIuNTQ1NUMyMC45MDE5IDIyLjc0MjkgMjAuNDU0NCAyMi44NDU0IDIwLjAwMSAyMi44NDU0QzE5LjU0NzYgMjIuODQ1NCAxOS4xMDAxIDIyLjc0MjkgMTguNjkxOSAyMi41NDU1QzE4LjI4MzggMjIuMzQ4MiAxNy45MjU1IDIyLjA2MTEgMTcuNjQ0IDIxLjcwNTdDMTcuNDMxMSAyMS40NDc0IDE3LjI0NzkgMjEuMTY2IDE3LjA5OCAyMC44NjY3QzE3LjA3MTEgMjAuODEzNiAxNy4wNDc5IDIwLjc1NzkgMTcuMDI0NiAyMC43MDE5QzE3LjAxNTggMjAuNjgwOCAxNy4wMDcgMjAuNjU5NyAxNi45OTggMjAuNjM4N0MxNi45NjA3IDIwLjUzNTUgMTYuOTE1OSAyMC40MzUzIDE2Ljg2NCAyMC4zMzg3QzE2Ljc0MDIgMjAuMTI5MiAxNi41NDU0IDE5Ljk3MDkgMTYuMzE1IDE5Ljg5MjdIMTYuMzA1QzE2LjEwODMgMTkuODI5OCAxNS44OTY5IDE5LjgyOTUgMTUuNjk5OSAxOS44OTE2QzE1LjUwMyAxOS45NTM3IDE1LjMzMDEgMjAuMDc1MyAxNS4yMDUgMjAuMjM5N0MxNS4xODA2IDIwLjI3MTYgMTUuMTU4MyAyMC4zMDUgMTUuMTM4IDIwLjMzOTdDMTUuMDkyOCAyMC40MjE0IDE1LjA1MjcgMjAuNTA1OSAxNS4wMTggMjAuNTkyN0MxNC45ODU3IDIwLjY3MjUgMTQuOTQ5NCAyMC43NTA2IDE0LjkwOSAyMC44MjY3QzE0Ljc0MjkgMjEuMTIzOCAxNC41MzYyIDIxLjM5NjQgMTQuMjk1IDIxLjYzNjdDMTMuODU3IDIyLjA1MTcgMTMuMzM4NyAyMi4zNzI5IDEyLjc3MjEgMjIuNTgwNEMxMi4yMDU1IDIyLjc4OCAxMS42MDI1IDIyLjg3NzYgMTEgMjIuODQzN0MxMC43MzQ4IDIyLjg0MzcgMTAuNDgwNCAyMi45NDkgMTAuMjkyOSAyMy4xMzY2QzEwLjEwNTQgMjMuMzI0MSAxMCAyMy41Nzg1IDEwIDIzLjg0MzdDMTAgMjQuMTA4OSAxMC4xMDU0IDI0LjM2MzIgMTAuMjkyOSAyNC41NTA4QzEwLjQ4MDQgMjQuNzM4MyAxMC43MzQ4IDI0Ljg0MzcgMTEgMjQuODQzN0MxMS44NjUgMjQuODc3OSAxMi43Mjc5IDI0LjczNjcgMTMuNTM2OSAyNC40Mjg2QzE0LjM0NTggMjQuMTIwNCAxNS4wODQgMjMuNjUxNyAxNS43MDcgMjMuMDUwN0MxNS43OTQgMjIuOTYzNyAxNS44NzYgMjIuODc2NyAxNS45NTIgMjIuNzg5N0MxNi4wMDEgMjIuODU0NyAxNi4wNTIgMjIuOTE4NyAxNi4xMDcgMjIuOTgzN0MxNi41NzU2IDIzLjU2NTEgMTcuMTY4NiAyNC4wMzQyIDE3Ljg0MjIgMjQuMzU2NUMxOC41MTU5IDI0LjY3ODggMTkuMjUzMiAyNC44NDYxIDIwIDI0Ljg0NjFDMjAuNzQ2OCAyNC44NDYxIDIxLjQ4NDEgMjQuNjc4OCAyMi4xNTc4IDI0LjM1NjVDMjIuODMxNCAyNC4wMzQyIDIzLjQyNDQgMjMuNTY1MSAyMy44OTMgMjIuOTgzN0MyMy45NDcgMjIuOTE4NyAyMy45OTkgMjIuODU0NyAyNC4wNDggMjIuNzg5N0MyNC4xMjQgMjIuODc2NyAyNC4yMDYgMjIuOTYzNyAyNC4yOTMgMjMuMDUwN0MyNC45MTYgMjMuNjUxNyAyNS42NTQyIDI0LjEyMDQgMjYuNDYzMSAyNC40Mjg2QzI3LjI3MjEgMjQuNzM2NyAyOC4xMzUgMjQuODc3OSAyOSAyNC44NDM3QzI5LjI2NTIgMjQuODQzNyAyOS41MTk2IDI0LjczODMgMjkuNzA3MSAyNC41NTA4QzI5Ljg5NDYgMjQuMzYzMiAzMCAyNC4xMDg5IDMwIDIzLjg0MzdDMzAgMjMuNTc4NSAyOS44OTQ2IDIzLjMyNDEgMjkuNzA3MSAyMy4xMzY2QzI5LjUxOTYgMjIuOTQ5IDI5LjI2NTIgMjIuODQzNyAyOSAyMi44NDM3WiIvPiYjeGE7PHBhdGggZmlsbD0iYmxhY2siIGQ9Ik0yOSAyOC44NDM3QzI4LjM5NzkgMjguODc3MyAyNy43OTUyIDI4Ljc4NzYgMjcuMjI4OSAyOC41OEMyNi42NjI3IDI4LjM3MjUgMjYuMTQ0OCAyOC4wNTE1IDI1LjcwNyAyNy42MzY3QzI1LjQ2NTggMjcuMzk2NCAyNS4yNTkxIDI3LjEyMzggMjUuMDkzIDI2LjgyNjdDMjUuMDUyNiAyNi43NTA2IDI1LjAxNjMgMjYuNjcyNSAyNC45ODQgMjYuNTkyN0MyNC45NDkzIDI2LjUwNTkgMjQuOTA5MiAyNi40MjE0IDI0Ljg2NCAyNi4zMzk3QzI0Ljg0MzcgMjYuMzA1IDI0LjgyMTQgMjYuMjcxNiAyNC43OTcgMjYuMjM5N0MyNC42NzE5IDI2LjA3NTMgMjQuNDk5IDI1Ljk1MzcgMjQuMzAyMSAyNS44OTE2QzI0LjEwNTEgMjUuODI5NSAyMy44OTM3IDI1LjgyOTggMjMuNjk3IDI1Ljg5MjdIMjMuNjg3QzIzLjQ1NjYgMjUuOTcwOSAyMy4yNjE4IDI2LjEyOTIgMjMuMTM4IDI2LjMzODdDMjMuMDg2MSAyNi40MzUzIDIzLjA0MTMgMjYuNTM1NSAyMy4wMDQgMjYuNjM4N0wyMi45OTM1IDI2LjY2NDhDMjIuOTY2MSAyNi43MzMyIDIyLjkzODYgMjYuODAxOSAyMi45MDQgMjYuODY2N0MyMi43NTQxIDI3LjE2NiAyMi41NzA5IDI3LjQ0NzQgMjIuMzU4IDI3LjcwNTdDMjIuMDc2NSAyOC4wNjExIDIxLjcxODIgMjguMzQ4MiAyMS4zMTAxIDI4LjU0NTVDMjAuOTAxOSAyOC43NDI5IDIwLjQ1NDQgMjguODQ1NCAyMC4wMDEgMjguODQ1NEMxOS41NDc2IDI4Ljg0NTQgMTkuMTAwMSAyOC43NDI5IDE4LjY5MTkgMjguNTQ1NUMxOC4yODM4IDI4LjM0ODIgMTcuOTI1NSAyOC4wNjExIDE3LjY0NCAyNy43MDU3QzE3LjQzMTEgMjcuNDQ3NCAxNy4yNDc5IDI3LjE2NiAxNy4wOTggMjYuODY2N0MxNy4wNzExIDI2LjgxMzYgMTcuMDQ3OSAyNi43NTc5IDE3LjAyNDYgMjYuNzAxOUMxNy4wMTU4IDI2LjY4MDggMTcuMDA3IDI2LjY1OTcgMTYuOTk4IDI2LjYzODdDMTYuOTYwNyAyNi41MzU1IDE2LjkxNTkgMjYuNDM1MyAxNi44NjQgMjYuMzM4N0MxNi43NDAyIDI2LjEyOTIgMTYuNTQ1NCAyNS45NzA5IDE2LjMxNSAyNS44OTI3SDE2LjMwNUMxNi4xMDgzIDI1LjgyOTggMTUuODk2OSAyNS44Mjk1IDE1LjY5OTkgMjUuODkxNkMxNS41MDMgMjUuOTUzNyAxNS4zMzAxIDI2LjA3NTMgMTUuMjA1IDI2LjIzOTdDMTUuMTgwNiAyNi4yNzE2IDE1LjE1ODMgMjYuMzA1IDE1LjEzOCAyNi4zMzk3QzE1LjA5MjggMjYuNDIxNCAxNS4wNTI3IDI2LjUwNTkgMTUuMDE4IDI2LjU5MjdDMTQuOTg1NyAyNi42NzI1IDE0Ljk0OTQgMjYuNzUwNiAxNC45MDkgMjYuODI2N0MxNC43NDI5IDI3LjEyMzggMTQuNTM2MiAyNy4zOTY0IDE0LjI5NSAyNy42MzY3QzEzLjg1NyAyOC4wNTE3IDEzLjMzODcgMjguMzcyOSAxMi43NzIxIDI4LjU4MDRDMTIuMjA1NSAyOC43ODggMTEuNjAyNSAyOC44Nzc2IDExIDI4Ljg0MzdDMTAuNzM0OCAyOC44NDM3IDEwLjQ4MDQgMjguOTQ5IDEwLjI5MjkgMjkuMTM2NkMxMC4xMDU0IDI5LjMyNDEgMTAgMjkuNTc4NSAxMCAyOS44NDM3QzEwIDMwLjEwODkgMTAuMTA1NCAzMC4zNjMyIDEwLjI5MjkgMzAuNTUwOEMxMC40ODA0IDMwLjczODMgMTAuNzM0OCAzMC44NDM3IDExIDMwLjg0MzdDMTEuODY1IDMwLjg3NzkgMTIuNzI3OSAzMC43MzY3IDEzLjUzNjkgMzAuNDI4NkMxNC4zNDU4IDMwLjEyMDQgMTUuMDg0IDI5LjY1MTcgMTUuNzA3IDI5LjA1MDdDMTUuNzk0IDI4Ljk2MzcgMTUuODc2IDI4Ljg3NjcgMTUuOTUyIDI4Ljc4OTdDMTYuMDAxIDI4Ljg1NDcgMTYuMDUyIDI4LjkxODcgMTYuMTA3IDI4Ljk4MzdDMTYuNTc1NiAyOS41NjUxIDE3LjE2ODYgMzAuMDM0MiAxNy44NDIyIDMwLjM1NjVDMTguNTE1OSAzMC42Nzg4IDE5LjI1MzIgMzAuODQ2MSAyMCAzMC44NDYxQzIwLjc0NjggMzAuODQ2MSAyMS40ODQxIDMwLjY3ODggMjIuMTU3OCAzMC4zNTY1QzIyLjgzMTQgMzAuMDM0MiAyMy40MjQ0IDI5LjU2NTEgMjMuODkzIDI4Ljk4MzdDMjMuOTQ3IDI4LjkxODcgMjMuOTk5IDI4Ljg1NDcgMjQuMDQ4IDI4Ljc4OTdDMjQuMTI0IDI4Ljg3NjcgMjQuMjA2IDI4Ljk2MzcgMjQuMjkzIDI5LjA1MDdDMjQuOTE2IDI5LjY1MTcgMjUuNjU0MiAzMC4xMjA0IDI2LjQ2MzEgMzAuNDI4NkMyNy4yNzIxIDMwLjczNjcgMjguMTM1IDMwLjg3NzkgMjkgMzAuODQzN0MyOS4yNjUyIDMwLjg0MzcgMjkuNTE5NiAzMC43MzgzIDI5LjcwNzEgMzAuNTUwOEMyOS44OTQ2IDMwLjM2MzIgMzAgMzAuMTA4OSAzMCAyOS44NDM3QzMwIDI5LjU3ODUgMjkuODk0NiAyOS4zMjQxIDI5LjcwNzEgMjkuMTM2NkMyOS41MTk2IDI4Ljk0OSAyOS4yNjUyIDI4Ljg0MzcgMjkgMjguODQzN1oiLz4mI3hhOzwvc3ZnPg==;imageBackground=none;imageBorder=none;" vertex="1" parent="1">
          <mxGeometry x="396.61" y="512.38" width="26.79" height="27.62" as="geometry" />
        </mxCell>
        <mxCell id="E4g3zkUV0fPsjV3zWIB0-14" value="" style="shape=image;verticalLabelPosition=bottom;verticalAlign=top;imageAspect=0;aspect=fixed;image=data:image/svg+xml,PHN2ZyB4bWxucz0iaHR0cDovL3d3dy53My5vcmcvMjAwMC9zdmciIGZpbGw9Im5vbmUiIHZpZXdCb3g9IjAgMCAzMiAzMyIgaGVpZ2h0PSIzMyIgd2lkdGg9IjMyIj4mI3hhOzxwYXRoIGZpbGw9ImJsYWNrIiBkPSJNMTIuNjI2IDQuMzkwMDJDMTMuMzk3IDMuNjYxNzQgMTQuNjAzIDMuNjYxNzQgMTUuMzc0IDQuMzkwMDJMMjUuMDYxIDEzLjU0MDNDMjUuNjYwNCAxNC4xMDY0IDI2IDE0Ljg5NDEgMjYgMTUuNzE4MlYxOC42MDYyQzI1Ljc5OSAxOC40MjY0IDI1LjU3NCAxOC4yNzQgMjUuMzMwNyAxOC4xNTM4QzI0LjkxNyAxNy45NDkyIDI0LjQ2MTUgMTcuODQzMiAyNCAxNy44NDM4VjE1LjcxODJDMjQgMTUuNDQzNSAyMy44ODY4IDE1LjE4MSAyMy42ODcgMTQuOTkyMkwxNCA1Ljg0MTk4TDQuMzEyOTkgMTQuOTkyMkM0LjExMzIgMTUuMTgxIDQgMTUuNDQzNSA0IDE1LjcxODJWMjYuODQ2NkM0IDI3LjM5ODMgNC40NDc3MiAyNy44NDU2IDUgMjcuODQ1Nkg4Ljc2MjNDOC4yNzI2NyAyOC4zOTM5IDggMjkuMTA0OCA4IDI5Ljg0MzhMNSAyOS44NDM4QzMuMzQzMTQgMjkuODQzOCAyIDI4LjUwMTkgMiAyNi44NDY2VjE1LjcxODJDMiAxNC44OTQxIDIuMzM5NjEgMTQuMTA2NCAyLjkzODk2IDEzLjU0MDNMMTIuNjI2IDQuMzkwMDJaIi8+JiN4YTs8cGF0aCBmaWxsPSJibGFjayIgZD0iTTI5IDIyLjg0MzdDMjguMzk3OSAyMi44NzczIDI3Ljc5NTIgMjIuNzg3NiAyNy4yMjg5IDIyLjU4QzI2LjY2MjcgMjIuMzcyNSAyNi4xNDQ4IDIyLjA1MTUgMjUuNzA3IDIxLjYzNjdDMjUuNDY1OCAyMS4zOTY0IDI1LjI1OTEgMjEuMTIzOCAyNS4wOTMgMjAuODI2N0MyNS4wNTI2IDIwLjc1MDYgMjUuMDE2MyAyMC42NzI1IDI0Ljk4NCAyMC41OTI3QzI0Ljk0OTMgMjAuNTA1OSAyNC45MDkyIDIwLjQyMTQgMjQuODY0IDIwLjMzOTdDMjQuODQzNyAyMC4zMDUgMjQuODIxNCAyMC4yNzE2IDI0Ljc5NyAyMC4yMzk3QzI0LjY3MTkgMjAuMDc1MyAyNC40OTkgMTkuOTUzNyAyNC4zMDIxIDE5Ljg5MTZDMjQuMTA1MSAxOS44Mjk1IDIzLjg5MzcgMTkuODI5OCAyMy42OTcgMTkuODkyN0gyMy42ODdDMjMuNDU2NiAxOS45NzA5IDIzLjI2MTggMjAuMTI5MiAyMy4xMzggMjAuMzM4N0MyMy4wODYxIDIwLjQzNTMgMjMuMDQxMyAyMC41MzU1IDIzLjAwNCAyMC42Mzg3TDIyLjk5MzUgMjAuNjY0OEMyMi45NjYxIDIwLjczMzIgMjIuOTM4NiAyMC44MDE5IDIyLjkwNCAyMC44NjY3QzIyLjc1NDEgMjEuMTY2IDIyLjU3MDkgMjEuNDQ3NCAyMi4zNTggMjEuNzA1N0MyMi4wNzY1IDIyLjA2MTEgMjEuNzE4MiAyMi4zNDgyIDIxLjMxMDEgMjIuNTQ1NUMyMC45MDE5IDIyLjc0MjkgMjAuNDU0NCAyMi44NDU0IDIwLjAwMSAyMi44NDU0QzE5LjU0NzYgMjIuODQ1NCAxOS4xMDAxIDIyLjc0MjkgMTguNjkxOSAyMi41NDU1QzE4LjI4MzggMjIuMzQ4MiAxNy45MjU1IDIyLjA2MTEgMTcuNjQ0IDIxLjcwNTdDMTcuNDMxMSAyMS40NDc0IDE3LjI0NzkgMjEuMTY2IDE3LjA5OCAyMC44NjY3QzE3LjA3MTEgMjAuODEzNiAxNy4wNDc5IDIwLjc1NzkgMTcuMDI0NiAyMC43MDE5QzE3LjAxNTggMjAuNjgwOCAxNy4wMDcgMjAuNjU5NyAxNi45OTggMjAuNjM4N0MxNi45NjA3IDIwLjUzNTUgMTYuOTE1OSAyMC40MzUzIDE2Ljg2NCAyMC4zMzg3QzE2Ljc0MDIgMjAuMTI5MiAxNi41NDU0IDE5Ljk3MDkgMTYuMzE1IDE5Ljg5MjdIMTYuMzA1QzE2LjEwODMgMTkuODI5OCAxNS44OTY5IDE5LjgyOTUgMTUuNjk5OSAxOS44OTE2QzE1LjUwMyAxOS45NTM3IDE1LjMzMDEgMjAuMDc1MyAxNS4yMDUgMjAuMjM5N0MxNS4xODA2IDIwLjI3MTYgMTUuMTU4MyAyMC4zMDUgMTUuMTM4IDIwLjMzOTdDMTUuMDkyOCAyMC40MjE0IDE1LjA1MjcgMjAuNTA1OSAxNS4wMTggMjAuNTkyN0MxNC45ODU3IDIwLjY3MjUgMTQuOTQ5NCAyMC43NTA2IDE0LjkwOSAyMC44MjY3QzE0Ljc0MjkgMjEuMTIzOCAxNC41MzYyIDIxLjM5NjQgMTQuMjk1IDIxLjYzNjdDMTMuODU3IDIyLjA1MTcgMTMuMzM4NyAyMi4zNzI5IDEyLjc3MjEgMjIuNTgwNEMxMi4yMDU1IDIyLjc4OCAxMS42MDI1IDIyLjg3NzYgMTEgMjIuODQzN0MxMC43MzQ4IDIyLjg0MzcgMTAuNDgwNCAyMi45NDkgMTAuMjkyOSAyMy4xMzY2QzEwLjEwNTQgMjMuMzI0MSAxMCAyMy41Nzg1IDEwIDIzLjg0MzdDMTAgMjQuMTA4OSAxMC4xMDU0IDI0LjM2MzIgMTAuMjkyOSAyNC41NTA4QzEwLjQ4MDQgMjQuNzM4MyAxMC43MzQ4IDI0Ljg0MzcgMTEgMjQuODQzN0MxMS44NjUgMjQuODc3OSAxMi43Mjc5IDI0LjczNjcgMTMuNTM2OSAyNC40Mjg2QzE0LjM0NTggMjQuMTIwNCAxNS4wODQgMjMuNjUxNyAxNS43MDcgMjMuMDUwN0MxNS43OTQgMjIuOTYzNyAxNS44NzYgMjIuODc2NyAxNS45NTIgMjIuNzg5N0MxNi4wMDEgMjIuODU0NyAxNi4wNTIgMjIuOTE4NyAxNi4xMDcgMjIuOTgzN0MxNi41NzU2IDIzLjU2NTEgMTcuMTY4NiAyNC4wMzQyIDE3Ljg0MjIgMjQuMzU2NUMxOC41MTU5IDI0LjY3ODggMTkuMjUzMiAyNC44NDYxIDIwIDI0Ljg0NjFDMjAuNzQ2OCAyNC44NDYxIDIxLjQ4NDEgMjQuNjc4OCAyMi4xNTc4IDI0LjM1NjVDMjIuODMxNCAyNC4wMzQyIDIzLjQyNDQgMjMuNTY1MSAyMy44OTMgMjIuOTgzN0MyMy45NDcgMjIuOTE4NyAyMy45OTkgMjIuODU0NyAyNC4wNDggMjIuNzg5N0MyNC4xMjQgMjIuODc2NyAyNC4yMDYgMjIuOTYzNyAyNC4yOTMgMjMuMDUwN0MyNC45MTYgMjMuNjUxNyAyNS42NTQyIDI0LjEyMDQgMjYuNDYzMSAyNC40Mjg2QzI3LjI3MjEgMjQuNzM2NyAyOC4xMzUgMjQuODc3OSAyOSAyNC44NDM3QzI5LjI2NTIgMjQuODQzNyAyOS41MTk2IDI0LjczODMgMjkuNzA3MSAyNC41NTA4QzI5Ljg5NDYgMjQuMzYzMiAzMCAyNC4xMDg5IDMwIDIzLjg0MzdDMzAgMjMuNTc4NSAyOS44OTQ2IDIzLjMyNDEgMjkuNzA3MSAyMy4xMzY2QzI5LjUxOTYgMjIuOTQ5IDI5LjI2NTIgMjIuODQzNyAyOSAyMi44NDM3WiIvPiYjeGE7PHBhdGggZmlsbD0iYmxhY2siIGQ9Ik0yOSAyOC44NDM3QzI4LjM5NzkgMjguODc3MyAyNy43OTUyIDI4Ljc4NzYgMjcuMjI4OSAyOC41OEMyNi42NjI3IDI4LjM3MjUgMjYuMTQ0OCAyOC4wNTE1IDI1LjcwNyAyNy42MzY3QzI1LjQ2NTggMjcuMzk2NCAyNS4yNTkxIDI3LjEyMzggMjUuMDkzIDI2LjgyNjdDMjUuMDUyNiAyNi43NTA2IDI1LjAxNjMgMjYuNjcyNSAyNC45ODQgMjYuNTkyN0MyNC45NDkzIDI2LjUwNTkgMjQuOTA5MiAyNi40MjE0IDI0Ljg2NCAyNi4zMzk3QzI0Ljg0MzcgMjYuMzA1IDI0LjgyMTQgMjYuMjcxNiAyNC43OTcgMjYuMjM5N0MyNC42NzE5IDI2LjA3NTMgMjQuNDk5IDI1Ljk1MzcgMjQuMzAyMSAyNS44OTE2QzI0LjEwNTEgMjUuODI5NSAyMy44OTM3IDI1LjgyOTggMjMuNjk3IDI1Ljg5MjdIMjMuNjg3QzIzLjQ1NjYgMjUuOTcwOSAyMy4yNjE4IDI2LjEyOTIgMjMuMTM4IDI2LjMzODdDMjMuMDg2MSAyNi40MzUzIDIzLjA0MTMgMjYuNTM1NSAyMy4wMDQgMjYuNjM4N0wyMi45OTM1IDI2LjY2NDhDMjIuOTY2MSAyNi43MzMyIDIyLjkzODYgMjYuODAxOSAyMi45MDQgMjYuODY2N0MyMi43NTQxIDI3LjE2NiAyMi41NzA5IDI3LjQ0NzQgMjIuMzU4IDI3LjcwNTdDMjIuMDc2NSAyOC4wNjExIDIxLjcxODIgMjguMzQ4MiAyMS4zMTAxIDI4LjU0NTVDMjAuOTAxOSAyOC43NDI5IDIwLjQ1NDQgMjguODQ1NCAyMC4wMDEgMjguODQ1NEMxOS41NDc2IDI4Ljg0NTQgMTkuMTAwMSAyOC43NDI5IDE4LjY5MTkgMjguNTQ1NUMxOC4yODM4IDI4LjM0ODIgMTcuOTI1NSAyOC4wNjExIDE3LjY0NCAyNy43MDU3QzE3LjQzMTEgMjcuNDQ3NCAxNy4yNDc5IDI3LjE2NiAxNy4wOTggMjYuODY2N0MxNy4wNzExIDI2LjgxMzYgMTcuMDQ3OSAyNi43NTc5IDE3LjAyNDYgMjYuNzAxOUMxNy4wMTU4IDI2LjY4MDggMTcuMDA3IDI2LjY1OTcgMTYuOTk4IDI2LjYzODdDMTYuOTYwNyAyNi41MzU1IDE2LjkxNTkgMjYuNDM1MyAxNi44NjQgMjYuMzM4N0MxNi43NDAyIDI2LjEyOTIgMTYuNTQ1NCAyNS45NzA5IDE2LjMxNSAyNS44OTI3SDE2LjMwNUMxNi4xMDgzIDI1LjgyOTggMTUuODk2OSAyNS44Mjk1IDE1LjY5OTkgMjUuODkxNkMxNS41MDMgMjUuOTUzNyAxNS4zMzAxIDI2LjA3NTMgMTUuMjA1IDI2LjIzOTdDMTUuMTgwNiAyNi4yNzE2IDE1LjE1ODMgMjYuMzA1IDE1LjEzOCAyNi4zMzk3QzE1LjA5MjggMjYuNDIxNCAxNS4wNTI3IDI2LjUwNTkgMTUuMDE4IDI2LjU5MjdDMTQuOTg1NyAyNi42NzI1IDE0Ljk0OTQgMjYuNzUwNiAxNC45MDkgMjYuODI2N0MxNC43NDI5IDI3LjEyMzggMTQuNTM2MiAyNy4zOTY0IDE0LjI5NSAyNy42MzY3QzEzLjg1NyAyOC4wNTE3IDEzLjMzODcgMjguMzcyOSAxMi43NzIxIDI4LjU4MDRDMTIuMjA1NSAyOC43ODggMTEuNjAyNSAyOC44Nzc2IDExIDI4Ljg0MzdDMTAuNzM0OCAyOC44NDM3IDEwLjQ4MDQgMjguOTQ5IDEwLjI5MjkgMjkuMTM2NkMxMC4xMDU0IDI5LjMyNDEgMTAgMjkuNTc4NSAxMCAyOS44NDM3QzEwIDMwLjEwODkgMTAuMTA1NCAzMC4zNjMyIDEwLjI5MjkgMzAuNTUwOEMxMC40ODA0IDMwLjczODMgMTAuNzM0OCAzMC44NDM3IDExIDMwLjg0MzdDMTEuODY1IDMwLjg3NzkgMTIuNzI3OSAzMC43MzY3IDEzLjUzNjkgMzAuNDI4NkMxNC4zNDU4IDMwLjEyMDQgMTUuMDg0IDI5LjY1MTcgMTUuNzA3IDI5LjA1MDdDMTUuNzk0IDI4Ljk2MzcgMTUuODc2IDI4Ljg3NjcgMTUuOTUyIDI4Ljc4OTdDMTYuMDAxIDI4Ljg1NDcgMTYuMDUyIDI4LjkxODcgMTYuMTA3IDI4Ljk4MzdDMTYuNTc1NiAyOS41NjUxIDE3LjE2ODYgMzAuMDM0MiAxNy44NDIyIDMwLjM1NjVDMTguNTE1OSAzMC42Nzg4IDE5LjI1MzIgMzAuODQ2MSAyMCAzMC44NDYxQzIwLjc0NjggMzAuODQ2MSAyMS40ODQxIDMwLjY3ODggMjIuMTU3OCAzMC4zNTY1QzIyLjgzMTQgMzAuMDM0MiAyMy40MjQ0IDI5LjU2NTEgMjMuODkzIDI4Ljk4MzdDMjMuOTQ3IDI4LjkxODcgMjMuOTk5IDI4Ljg1NDcgMjQuMDQ4IDI4Ljc4OTdDMjQuMTI0IDI4Ljg3NjcgMjQuMjA2IDI4Ljk2MzcgMjQuMjkzIDI5LjA1MDdDMjQuOTE2IDI5LjY1MTcgMjUuNjU0MiAzMC4xMjA0IDI2LjQ2MzEgMzAuNDI4NkMyNy4yNzIxIDMwLjczNjcgMjguMTM1IDMwLjg3NzkgMjkgMzAuODQzN0MyOS4yNjUyIDMwLjg0MzcgMjkuNTE5NiAzMC43MzgzIDI5LjcwNzEgMzAuNTUwOEMyOS44OTQ2IDMwLjM2MzIgMzAgMzAuMTA4OSAzMCAyOS44NDM3QzMwIDI5LjU3ODUgMjkuODk0NiAyOS4zMjQxIDI5LjcwNzEgMjkuMTM2NkMyOS41MTk2IDI4Ljk0OSAyOS4yNjUyIDI4Ljg0MzcgMjkgMjguODQzN1oiLz4mI3hhOzwvc3ZnPg==;imageBackground=none;imageBorder=none;" vertex="1" parent="1">
          <mxGeometry x="500.6" y="512.38" width="26.79" height="27.62" as="geometry" />
        </mxCell>
        <mxCell id="E4g3zkUV0fPsjV3zWIB0-15" value="" style="shape=image;verticalLabelPosition=bottom;verticalAlign=top;imageAspect=0;aspect=fixed;image=data:image/svg+xml,PHN2ZyB4bWxucz0iaHR0cDovL3d3dy53My5vcmcvMjAwMC9zdmciIGZpbGw9Im5vbmUiIHZpZXdCb3g9IjAgMCAzMiAzMyIgaGVpZ2h0PSIzMyIgd2lkdGg9IjMyIj4mI3hhOzxwYXRoIGZpbGw9ImJsYWNrIiBkPSJNOCA3LjkzNzU2QzggNy4xMDkxMyA4LjY3MTU3IDYuNDM3NTYgOS41IDYuNDM3NTZIMjEuNUMyMi4zMjg0IDYuNDM3NTYgMjMgNy4xMDkxMyAyMyA3LjkzNzU2VjEwLjkzNzZDMjMgMTEuNzY2IDIyLjMyODQgMTIuNDM3NiAyMS41IDEyLjQzNzZIOS41QzguNjcxNTcgMTIuNDM3NiA4IDExLjc2NiA4IDEwLjkzNzZWNy45Mzc1NlpNMTAgOC40Mzc1NlYxMC40Mzc2SDIxVjguNDM3NTZIMTBaTTQgNS42ODc1NkM0IDMuODkyNjMgNS40NTUwOCAyLjQzNzU2IDcuMjUgMi40Mzc1NkgyMy43NUMyNS41NDQ5IDIuNDM3NTYgMjcgMy44OTI2NCAyNyA1LjY4NzU2VjI3LjE4NzZDMjcgMjguOTgyNSAyNS41NDQ5IDMwLjQzNzYgMjMuNzUgMzAuNDM3Nkg3LjI1QzUuNDU1MDcgMzAuNDM3NiA0IDI4Ljk4MjUgNCAyNy4xODc2VjUuNjg3NTZaTTcuMjUgNC40Mzc1NkM2LjU1OTY0IDQuNDM3NTYgNiA0Ljk5NzIgNiA1LjY4NzU2VjI3LjE4NzZDNiAyNy44Nzc5IDYuNTU5NjQgMjguNDM3NiA3LjI1IDI4LjQzNzZIMjMuNzVDMjQuNDQwNCAyOC40Mzc2IDI1IDI3Ljg3NzkgMjUgMjcuMTg3NlY1LjY4NzU2QzI1IDQuOTk3MjEgMjQuNDQwNCA0LjQzNzU2IDIzLjc1IDQuNDM3NTZINy4yNVpNMjkuMjUgOC40Mzc1NkgyOFYxMi40Mzc2SDI5LjI1QzI5LjY2NDIgMTIuNDM3NiAzMCAxMi4xMDE4IDMwIDExLjY4NzZWOS4xODc1NkMzMCA4Ljc3MzM1IDI5LjY2NDIgOC40Mzc1NiAyOS4yNSA4LjQzNzU2Wk0yOCAxNC40Mzc2SDI5LjI1QzI5LjY2NDIgMTQuNDM3NiAzMCAxNC43NzMzIDMwIDE1LjE4NzZWMTcuNjg3NkMzMCAxOC4xMDE4IDI5LjY2NDIgMTguNDM3NiAyOS4yNSAxOC40Mzc2SDI4VjE0LjQzNzZaTTI5LjI1IDIwLjQzNzZIMjhWMjQuNDM3NkgyOS4yNUMyOS42NjQyIDI0LjQzNzYgMzAgMjQuMTAxOCAzMCAyMy42ODc2VjIxLjE4NzZDMzAgMjAuNzczMyAyOS42NjQyIDIwLjQzNzYgMjkuMjUgMjAuNDM3NloiLz4mI3hhOzwvc3ZnPg==" vertex="1" parent="1">
          <mxGeometry x="394" y="463.5" width="32" height="33" as="geometry" />
        </mxCell>
        <mxCell id="E4g3zkUV0fPsjV3zWIB0-16" value="" style="shape=image;verticalLabelPosition=bottom;verticalAlign=top;imageAspect=0;aspect=fixed;image=data:image/svg+xml,PHN2ZyB4bWxucz0iaHR0cDovL3d3dy53My5vcmcvMjAwMC9zdmciIGZpbGw9Im5vbmUiIHZpZXdCb3g9IjAgMCAzMiAzMyIgaGVpZ2h0PSIzMyIgd2lkdGg9IjMyIj4mI3hhOzxwYXRoIGZpbGw9ImJsYWNrIiBkPSJNOCA3LjkzNzU2QzggNy4xMDkxMyA4LjY3MTU3IDYuNDM3NTYgOS41IDYuNDM3NTZIMjEuNUMyMi4zMjg0IDYuNDM3NTYgMjMgNy4xMDkxMyAyMyA3LjkzNzU2VjEwLjkzNzZDMjMgMTEuNzY2IDIyLjMyODQgMTIuNDM3NiAyMS41IDEyLjQzNzZIOS41QzguNjcxNTcgMTIuNDM3NiA4IDExLjc2NiA4IDEwLjkzNzZWNy45Mzc1NlpNMTAgOC40Mzc1NlYxMC40Mzc2SDIxVjguNDM3NTZIMTBaTTQgNS42ODc1NkM0IDMuODkyNjMgNS40NTUwOCAyLjQzNzU2IDcuMjUgMi40Mzc1NkgyMy43NUMyNS41NDQ5IDIuNDM3NTYgMjcgMy44OTI2NCAyNyA1LjY4NzU2VjI3LjE4NzZDMjcgMjguOTgyNSAyNS41NDQ5IDMwLjQzNzYgMjMuNzUgMzAuNDM3Nkg3LjI1QzUuNDU1MDcgMzAuNDM3NiA0IDI4Ljk4MjUgNCAyNy4xODc2VjUuNjg3NTZaTTcuMjUgNC40Mzc1NkM2LjU1OTY0IDQuNDM3NTYgNiA0Ljk5NzIgNiA1LjY4NzU2VjI3LjE4NzZDNiAyNy44Nzc5IDYuNTU5NjQgMjguNDM3NiA3LjI1IDI4LjQzNzZIMjMuNzVDMjQuNDQwNCAyOC40Mzc2IDI1IDI3Ljg3NzkgMjUgMjcuMTg3NlY1LjY4NzU2QzI1IDQuOTk3MjEgMjQuNDQwNCA0LjQzNzU2IDIzLjc1IDQuNDM3NTZINy4yNVpNMjkuMjUgOC40Mzc1NkgyOFYxMi40Mzc2SDI5LjI1QzI5LjY2NDIgMTIuNDM3NiAzMCAxMi4xMDE4IDMwIDExLjY4NzZWOS4xODc1NkMzMCA4Ljc3MzM1IDI5LjY2NDIgOC40Mzc1NiAyOS4yNSA4LjQzNzU2Wk0yOCAxNC40Mzc2SDI5LjI1QzI5LjY2NDIgMTQuNDM3NiAzMCAxNC43NzMzIDMwIDE1LjE4NzZWMTcuNjg3NkMzMCAxOC4xMDE4IDI5LjY2NDIgMTguNDM3NiAyOS4yNSAxOC40Mzc2SDI4VjE0LjQzNzZaTTI5LjI1IDIwLjQzNzZIMjhWMjQuNDM3NkgyOS4yNUMyOS42NjQyIDI0LjQzNzYgMzAgMjQuMTAxOCAzMCAyMy42ODc2VjIxLjE4NzZDMzAgMjAuNzczMyAyOS42NjQyIDIwLjQzNzYgMjkuMjUgMjAuNDM3NloiLz4mI3hhOzwvc3ZnPg==" vertex="1" parent="1">
          <mxGeometry x="498" y="463.5" width="32" height="33" as="geometry" />
        </mxCell>
        <mxCell id="E4g3zkUV0fPsjV3zWIB0-17" value="Power BI" style="shape=image;verticalLabelPosition=bottom;verticalAlign=top;imageAspect=0;aspect=fixed;image=data:image/svg+xml,PHN2ZyB4bWxuczp4bGluaz0iaHR0cDovL3d3dy53My5vcmcvMTk5OS94bGluayIgeG1sbnM9Imh0dHA6Ly93d3cudzMub3JnLzIwMDAvc3ZnIiB2aWV3Qm94PSIwIDAgNDggNDgiIGhlaWdodD0iNDgiIHdpZHRoPSI0OCIgZGF0YS1uYW1lPSJMYXllciAxIiBpZD0idXVpZC05MmY1YTIzNi00YmY2LTQ1ZWUtODAwMC1iMDdhOTg3MzlmMjUiPiYjeGE7ICA8ZGVmcz4mI3hhOyAgICA8bGluZWFyR3JhZGllbnQgZ3JhZGllbnRVbml0cz0idXNlclNwYWNlT25Vc2UiIGdyYWRpZW50VHJhbnNmb3JtPSJtYXRyaXgoMSwgMCwgMCwgMSwgMCwgMCkiIHkyPSIzLjU5OSIgeDI9IjQzLjYyNSIgeTE9IjQ3LjczMyIgeDE9IjIyLjgwMyIgaWQ9InV1aWQtZmIxMzdkZTYtOGRmNC00MjEwLWIxNTUtOWE3YzMyN2E3N2I4Ij4mI3hhOyAgICAgIDxzdG9wIHN0b3AtY29sb3I9IiNjODdlMGUiIG9mZnNldD0iMCIvPiYjeGE7ICAgICAgPHN0b3Agc3RvcC1jb2xvcj0iI2U2YWQxMCIgb2Zmc2V0PSIxIi8+JiN4YTsgICAgPC9saW5lYXJHcmFkaWVudD4mI3hhOyAgICA8bGluZWFyR3JhZGllbnQgZ3JhZGllbnRVbml0cz0idXNlclNwYWNlT25Vc2UiIGdyYWRpZW50VHJhbnNmb3JtPSJtYXRyaXgoMSwgMCwgMCwgMSwgMCwgMCkiIHkyPSIxMy44MzEiIHgyPSIzMi43MjgiIHkxPSI0Ny42MzciIHgxPSIxNS4yOTYiIGlkPSJ1dWlkLWEzMWM2OTVmLTU4ZTctNDA2MS1hNGRiLTIxNzM1Njk2MzAzZCI+JiN4YTsgICAgICA8c3RvcCBzdG9wLWNvbG9yPSIjZTZhZDEwIiBvZmZzZXQ9IjAiLz4mI3hhOyAgICAgIDxzdG9wIHN0b3AtY29sb3I9IiNmNmQ3NTEiIG9mZnNldD0iMSIvPiYjeGE7ICAgIDwvbGluZWFyR3JhZGllbnQ+JiN4YTsgICAgPGxpbmVhckdyYWRpZW50IGdyYWRpZW50VW5pdHM9InVzZXJTcGFjZU9uVXNlIiBncmFkaWVudFRyYW5zZm9ybT0ibWF0cml4KDEsIDAsIDAsIDEsIDAsIDApIiB5Mj0iMjYuMzc5IiB4Mj0iMTguMzk2IiB5MT0iNDguNjAxIiB4MT0iOS4wMTkiIGlkPSJ1dWlkLTM3OWNmMDI1LTc3ZTItNDA5OC1hNTQ3LTZmNGQyMTI3ODAyMCI+JiN4YTsgICAgICA8c3RvcCBzdG9wLWNvbG9yPSIjZjZkNzUxIiBvZmZzZXQ9IjAiLz4mI3hhOyAgICAgIDxzdG9wIHN0b3AtY29sb3I9IiNmOWU1ODkiIG9mZnNldD0iMSIvPiYjeGE7ICAgIDwvbGluZWFyR3JhZGllbnQ+JiN4YTsgIDwvZGVmcz4mI3hhOyAgPHRleHQgZm9udC13ZWlnaHQ9IjcwMCIgZm9udC1zaXplPSI0OCIgZm9udC1mYW1pbHk9IlNlZ29lVUktU2VtaWJvbGQsICdTZWdvZSBVSSciIGZpbGw9IiNiNGI0YjQiIHRyYW5zZm9ybT0idHJhbnNsYXRlKDAgLTE4LjM0MSkiPjx0c3BhbiB5PSIwIiB4PSIwIj40OHg8L3RzcGFuPjwvdGV4dD4mI3hhOyAgPGc+JiN4YTsgICAgPHBhdGggZmlsbD0idXJsKCN1dWlkLWZiMTM3ZGU2LThkZjQtNDIxMC1iMTU1LTlhN2MzMjdhNzdiOCkiIGQ9Ik00Miw0Ni4wMDNWMS45OTdjLS4wMDItMS4xMDMtLjg5Ni0xLjk5Ny0yLTEuOTk3aC0xMmMtMS4xMDUsMC0yLC44OTUtMiwydjMuMTM2aDBWNDhoMTQuMDAxYzEuMTAzLDAsMS45OTctLjg5NCwxLjk5OS0xLjk5N1oiLz4mI3hhOyAgICA8cGF0aCBmaWxsPSJ1cmwoI3V1aWQtYTMxYzY5NWYtNThlNy00MDYxLWE0ZGItMjE3MzU2OTYzMDNkKSIgZD0iTTMwLDEyaC0xMi4wMDFjLTEuMTAzLDAtMS45OTcsLjg5NC0xLjk5OSwxLjk5OFY0OGgxNlYxNGMwLTEuMTA1LS44OTUtMi0yLTJaIi8+JiN4YTsgICAgPHBhdGggZmlsbD0idXJsKCN1dWlkLTM3OWNmMDI1LTc3ZTItNDA5OC1hNTQ3LTZmNGQyMTI3ODAyMCkiIGQ9Ik0yMCwyNEg4Yy0xLjEwNSwwLTIsLjg5NS0yLDJ2MjBjMCwxLjEwNCwuODk1LDIsMiwyaDE0VjI2YzAtMS4xMDUtLjg5NS0yLTItMloiLz4mI3hhOyAgPC9nPiYjeGE7PC9zdmc+;fontSize=8;fontStyle=1" vertex="1" parent="1">
          <mxGeometry x="570" y="456" width="48" height="48" as="geometry" />
        </mxCell>
        <mxCell id="E4g3zkUV0fPsjV3zWIB0-31" style="edgeStyle=orthogonalEdgeStyle;rounded=0;orthogonalLoop=1;jettySize=auto;html=1;exitX=1;exitY=0.5;exitDx=0;exitDy=0;flowAnimation=1;" edge="1" parent="1" source="E4g3zkUV0fPsjV3zWIB0-18" target="E4g3zkUV0fPsjV3zWIB0-24">
          <mxGeometry relative="1" as="geometry" />
        </mxCell>
        <mxCell id="E4g3zkUV0fPsjV3zWIB0-18" value="Data Activator" style="shape=image;verticalLabelPosition=top;verticalAlign=bottom;imageAspect=0;aspect=fixed;image=data:image/svg+xml,PHN2ZyB4bWxucz0iaHR0cDovL3d3dy53My5vcmcvMjAwMC9zdmciIHZpZXdCb3g9IjAgMCA0OCA0OCIgZmlsbD0ibm9uZSIgaGVpZ2h0PSI0OCIgd2lkdGg9IjQ4Ij4mI3hhOyAgPHBhdGggZD0iTTEwLjcxIDE2LjE3NGgxMy4yNTZhNy44MzUgNy44MzUgMCAwIDEgNy42MzcgNi4wNzlINDMuOTJDNDMuMDMzIDEyLjAyNiAzNC40NDEgNCAyMy45NjcgNEgxOS40MmMtLjQ4IDAtLjkxNC4xOTMtMS4yMjkuNTA2bC04LjcxNSA4LjcwMWExLjc0IDEuNzQgMCAwIDAgMS4yMzQgMi45NjdaIiBmaWxsPSIjNzMyNjJGIi8+JiN4YTsgIDxwYXRoIGQ9Ik0xMC43MSAxNi4xNzRoMTMuMjU2YTcuODM1IDcuODM1IDAgMCAxIDcuNjM3IDYuMDc5SDQzLjkyQzQzLjAzMyAxMi4wMjYgMzQuNDQxIDQgMjMuOTY3IDRIMTkuNDJjLS40OCAwLS45MTQuMTkzLTEuMjI5LjUwNmwtOC43MTUgOC43MDFhMS43NCAxLjc0IDAgMCAwIDEuMjM0IDIuOTY3WiIgZmlsbD0idXJsKCNhKSIvPiYjeGE7ICA8cGF0aCBkPSJNMzYuNTczIDguNDY2YTMuNDczIDMuNDczIDAgMCAxIC4yNDMgNS4xMzhsLTYuMjI0IDYuMjEzQTcuNzc5IDcuNzc5IDAgMCAxIDMxLjgwNiAyNGMwIDQuMzIyLTMuNTEgNy44MjYtNy44MzkgNy44MjZhNy44MDQgNy44MDQgMCAwIDEtNC43NjMtMS42MkwxMC42IDM4Ljg5M0ExOS45NzYgMTkuOTc2IDAgMCAwIDIzLjk2NiA0NEMzNS4wMzEgNDQgNDQgMzUuMDQ2IDQ0IDI0YzAtNi4yNzQtMi44OTktMTEuODY3LTcuNDI3LTE1LjUzNFoiIGZpbGw9InVybCgjYikiLz4mI3hhOyAgPHBhdGggZD0iTTI4LjUxMyAzMC4zNWE3Ljg1OCA3Ljg1OCAwIDAgMS04Ljc0MS4yNjhsLTUuNzAxIDUuNjkxYTMuNDczIDMuNDczIDAgMCAwIC45IDUuNTY5IDIwLjExOSAyMC4xMTkgMCAwIDAgMTMuNTQyIDEuNTg5VjMwLjM1WiIgZmlsbD0idXJsKCNjKSIvPiYjeGE7ICA8cGF0aCBkPSJNMTQuOTcxIDQxLjg4YTE5Ljk5OCAxOS45OTggMCAwIDEtNS4xOTEtMy43NDZBMTkuOTA5IDE5LjkwOSAwIDAgMSA0LjAwNyAyNS45NWEzLjQ2OSAzLjQ2OSAwIDAgMSAxLjAxNC0yLjY3OCAzLjQ3OCAzLjQ3OCAwIDAgMSAyLjQ3LTEuMDE5aDE2LjQ2NmExLjczOCAxLjczOCAwIDAgMSAxLjIyMSAyLjk2OUwxNC4wNzEgMzYuMzFhMy40NzMgMy40NzMgMCAwIDAgLjkgNS41N1oiIGZpbGw9InVybCgjZCkiLz4mI3hhOyAgPHBhdGggZD0ibTM2LjgxNiA4LjY4NS0uMDA3LS4wMDZDMzMuMzMxIDUuNzY4IDI4Ljg2MSA0IDIzLjk2NiA0aC0uOTI1djEyLjE3NGguOTI1YTcuODI0IDcuODI0IDAgMCAxIDYuNjIxIDMuNjQ3bC4wMDUtLjAwNCA2LjIyNC02LjIxM2EzLjQ3MyAzLjQ3MyAwIDAgMCAwLTQuOTE5WiIgZmlsbD0idXJsKCNlKSIvPiYjeGE7ICA8ZGVmcz4mI3hhOyAgICA8bGluZWFyR3JhZGllbnQgZ3JhZGllbnRVbml0cz0idXNlclNwYWNlT25Vc2UiIHkyPSIyMy41NzUiIHkxPSI2LjM2OSIgeDI9IjQzLjE1NiIgeDE9IjEzLjM1NSIgaWQ9ImEiPiYjeGE7ICAgICAgPHN0b3Agc3RvcC1vcGFjaXR5PSIuNSIgc3RvcC1jb2xvcj0iI0YwMzY0QyIgb2Zmc2V0PSIuMTIiLz4mI3hhOyAgICAgIDxzdG9wIHN0b3Atb3BhY2l0eT0iLjQ1NCIgc3RvcC1jb2xvcj0iI0YwMzY0QyIgb2Zmc2V0PSIuMjYxIi8+JiN4YTsgICAgICA8c3RvcCBzdG9wLW9wYWNpdHk9Ii4zMzMiIHN0b3AtY29sb3I9IiNGMDM2NEMiIG9mZnNldD0iLjUwNyIvPiYjeGE7ICAgICAgPHN0b3Agc3RvcC1vcGFjaXR5PSIuMjUiIHN0b3AtY29sb3I9IiNGMDM2NEMiIG9mZnNldD0iLjY1Ii8+JiN4YTsgICAgICA8c3RvcCBzdG9wLW9wYWNpdHk9IjAiIHN0b3AtY29sb3I9IiNGMDM2NEMiIG9mZnNldD0iMSIvPiYjeGE7ICAgIDwvbGluZWFyR3JhZGllbnQ+JiN4YTsgICAgPGxpbmVhckdyYWRpZW50IGdyYWRpZW50VW5pdHM9InVzZXJTcGFjZU9uVXNlIiB5Mj0iMjEuNzE3IiB5MT0iMzQuNjA3IiB4Mj0iNDQuNDU0IiB4MT0iOS4wMzgiIGlkPSJiIj4mI3hhOyAgICAgIDxzdG9wIHN0b3AtY29sb3I9IiM5MjBCMTgiIG9mZnNldD0iLjE2NiIvPiYjeGE7ICAgICAgPHN0b3Agc3RvcC1jb2xvcj0iI0YwMzY0QyIgb2Zmc2V0PSIuNTUiLz4mI3hhOyAgICAgIDxzdG9wIHN0b3AtY29sb3I9IiNGRjVDMzkiIG9mZnNldD0iLjgiLz4mI3hhOyAgICA8L2xpbmVhckdyYWRpZW50PiYjeGE7ICAgIDxsaW5lYXJHcmFkaWVudCBncmFkaWVudFVuaXRzPSJ1c2VyU3BhY2VPblVzZSIgeTI9IjM5LjUyIiB5MT0iMzIuNjIxIiB4Mj0iMjkuMDM3IiB4MT0iMTQuMjQxIiBpZD0iYyI+JiN4YTsgICAgICA8c3RvcCBzdG9wLW9wYWNpdHk9Ii43NSIgc3RvcC1jb2xvcj0iIzZFMDgxMSIgb2Zmc2V0PSIuMTE0Ii8+JiN4YTsgICAgICA8c3RvcCBzdG9wLW9wYWNpdHk9IjAiIHN0b3AtY29sb3I9IiM2RTA4MTEiIG9mZnNldD0iLjY5OSIvPiYjeGE7ICAgIDwvbGluZWFyR3JhZGllbnQ+JiN4YTsgICAgPGxpbmVhckdyYWRpZW50IGdyYWRpZW50VW5pdHM9InVzZXJTcGFjZU9uVXNlIiB5Mj0iMjQuOTA5IiB5MT0iMzUuNzk1IiB4Mj0iMjMuMTU2IiB4MT0iNC4zIiBpZD0iZCI+JiN4YTsgICAgICA8c3RvcCBzdG9wLWNvbG9yPSIjOTIwQjE4Ii8+JiN4YTsgICAgICA8c3RvcCBzdG9wLWNvbG9yPSIjQTQxMzIyIiBvZmZzZXQ9Ii4wMjYiLz4mI3hhOyAgICAgIDxzdG9wIHN0b3AtY29sb3I9IiNCRjFGMzEiIG9mZnNldD0iLjA3NCIvPiYjeGE7ICAgICAgPHN0b3Agc3RvcC1jb2xvcj0iI0Q1MjkzRCIgb2Zmc2V0PSIuMTI2Ii8+JiN4YTsgICAgICA8c3RvcCBzdG9wLWNvbG9yPSIjRTQzMDQ1IiBvZmZzZXQ9Ii4xODMiLz4mI3hhOyAgICAgIDxzdG9wIHN0b3AtY29sb3I9IiNFRDM0NEEiIG9mZnNldD0iLjI1Ii8+JiN4YTsgICAgICA8c3RvcCBzdG9wLWNvbG9yPSIjRjAzNjRDIiBvZmZzZXQ9Ii4zNSIvPiYjeGE7ICAgICAgPHN0b3Agc3RvcC1jb2xvcj0iI0ZGNUMzOSIgb2Zmc2V0PSIuNzUiLz4mI3hhOyAgICA8L2xpbmVhckdyYWRpZW50PiYjeGE7ICAgIDxsaW5lYXJHcmFkaWVudCBncmFkaWVudFVuaXRzPSJ1c2VyU3BhY2VPblVzZSIgeTI9IjE2LjMxNSIgeTE9IjUuNTU1IiB4Mj0iMzQuNTU5IiB4MT0iMjEuNzM2IiBpZD0iZSI+JiN4YTsgICAgICA8c3RvcCBzdG9wLW9wYWNpdHk9IjAiIHN0b3AtY29sb3I9IiM2RTA4MTEiIG9mZnNldD0iLjUiLz4mI3hhOyAgICAgIDxzdG9wIHN0b3Atb3BhY2l0eT0iLjA5MyIgc3RvcC1jb2xvcj0iIzZFMDgxMSIgb2Zmc2V0PSIuNTgxIi8+JiN4YTsgICAgICA8c3RvcCBzdG9wLW9wYWNpdHk9Ii4zNDIiIHN0b3AtY29sb3I9IiM2RTA4MTEiIG9mZnNldD0iLjcyIi8+JiN4YTsgICAgICA8c3RvcCBzdG9wLW9wYWNpdHk9Ii43NDQiIHN0b3AtY29sb3I9IiM2RTA4MTEiIG9mZnNldD0iLjg5OSIvPiYjeGE7ICAgICAgPHN0b3Agc3RvcC1jb2xvcj0iIzZFMDgxMSIgb2Zmc2V0PSIxIi8+JiN4YTsgICAgPC9saW5lYXJHcmFkaWVudD4mI3hhOyAgPC9kZWZzPiYjeGE7PC9zdmc+;fontSize=8;labelPosition=center;align=center;fontStyle=1" vertex="1" parent="1">
          <mxGeometry x="570" y="330" width="48" height="48" as="geometry" />
        </mxCell>
        <mxCell id="E4g3zkUV0fPsjV3zWIB0-19" value="Synapse Data Science" style="shape=image;verticalLabelPosition=top;verticalAlign=bottom;imageAspect=0;aspect=fixed;image=data:image/svg+xml,PHN2ZyB4bWxucz0iaHR0cDovL3d3dy53My5vcmcvMjAwMC9zdmciIGZpbGw9Im5vbmUiIHZpZXdCb3g9IjAgMCA0OCA0OCIgaGVpZ2h0PSI0OCIgd2lkdGg9IjQ4Ij4mI3hhOzxwYXRoIGZpbGw9InVybCgjcGFpbnQwX2xpbmVhcl8zNTc0OV8xMTMzMzUpIiBkPSJNMjUuMzI3NiA0My44MzQ1QzI0LjU5NzggNDQuMTE0NCAyMy43NDc5IDQ0LjA0NDQgMjMuMDU4IDQzLjU4NDVDMjEuOTA4MSA0Mi44MjQ2IDIxLjI0ODIgNDEuMDg0OSAyMi4wMTgxIDM5LjkzNUwzMS43NDY3IDI1LjQ2NzFMNDAuNjg1NSAzNS40OTU3QzQxLjI5NTQgMzYuMTg1NiA0MS4yMzU0IDM3LjIzNTQgNDAuNTQ1NSAzNy44NDUzQzQwLjQwNTUgMzcuOTc1MyA0MC4yNDU1IDM4LjA3NTMgNDAuMDc1NSAzOC4xNDUzTDI1LjMyNzYgNDMuODM0NVoiLz4mI3hhOzxwYXRoIGZpbGw9InVybCgjcGFpbnQxX2xpbmVhcl8zNTc0OV8xMTMzMzUpIiBkPSJNMTcuNDg4NCAyNi41MTY5TDguMDE5NzcgMTIuMjY4OUM3Ljg1OTc5IDEyLjAxOSA3Ljc2OTgxIDExLjcxOSA3Ljc2OTgxIDExLjM5OTFDNy43Njk4MSAxMC40NzkyIDguNTE5NyA5LjcyOTMgOS40Mzk1NyA5LjcyOTNDOS42Njk1MyA5LjcyOTMgOS45Nzk0OSA5LjY4OTMgMTAuMTc5NSA5Ljc2OTI5TDI1LjU3NzMgMTcuMDA4M0wyNC42OTc0IDE4Ljc1OEwxNy40ODg0IDI2LjUxNjlaIi8+JiN4YTs8cGF0aCBmaWxsPSJ1cmwoI3BhaW50Ml9saW5lYXJfMzU3NDlfMTEzMzM1KSIgZD0iTTIzLjU0OCA0My44NDQzQzIzLjM3OCA0My43ODQzIDIzLjIxOCA0My42OTQzIDIzLjA1OCA0My41OTQzQzIxLjkwODIgNDIuODM0NCAyMS41OTgzIDQxLjI3NDcgMjIuMzU4MSA0MC4xMjQ4TDQwLjg1NTUgMTIuMjc4OEM0MS4wMTU1IDEyLjAyODkgNDEuMTA1NSAxMS43Mjg5IDQxLjEwNTUgMTEuNDA5QzQxLjEwNTUgMTAuNzE5IDQwLjY4NTUgMTAuMTE5MSA0MC4wNzU2IDkuODY5MTdMMjUuMzI3NyA0LjE3OTk5QzI1LjA0NzggNC4wNyAyNC43NDc4IDQuMDEwMDEgMjQuNDM3OSA0LjAxMDAxQzI0LjEyNzkgNC4wMTAwMSAyMy44Mjc5IDQuMDcgMjMuNTQ4IDQuMTY5OTlMOC44MDAwOSA5Ljg1OTE3QzkuMDAwMDYgOS43NzkxOCA5LjIyMDAyIDkuNzI5MTkgOS40NDk5OSA5LjcyOTE5QzkuNjc5OTYgOS43MjkxOSA5Ljg4OTkzIDkuNzc5MTggMTAuMDg5OSA5Ljg1OTE3TDIxLjcyODIgMTUuNDY4NEMyMi41NzgxIDE1LjkwODMgMjMuMTc4IDE2LjcyODIgMjMuMTc4IDE3LjczOEMyMy4xNzggMTguMzY4IDIyLjk0ODEgMTguOTM3OSAyMi41NTgxIDE5LjM3NzhMOC4yMDAxNyAzNS40OTU1QzcuNTkwMjYgMzYuMTg1NCA3LjY1MDI1IDM3LjIzNTMgOC4zNDAxNSAzNy44NDUyQzguNDgwMTMgMzcuOTc1MSA4LjY0MDExIDM4LjA3NTEgOC44MTAwOCAzOC4xNDUxTDIzLjU1OCA0My44MzQzIi8+JiN4YTs8cGF0aCBmaWxsPSJ1cmwoI3BhaW50M19saW5lYXJfMzU3NDlfMTEzMzM1KSIgZD0iTTEwLjEyIDkuODU5MTZMMjEuNzU4MyAxNS40Njg0QzIyLjQ0ODIgMTUuODE4MyAyMi45NTgxIDE2LjQyODIgMjMuMTM4MSAxNy4xNzgxTDQxLjEwNTUgMTEuMTQ5QzQxLjAxNTUgMTAuNTY5MSA0MC42NDU2IDEwLjA3OTEgNDAuMTE1NyA5Ljg1OTE2TDI1LjM2NzggNC4xNjk5OEMyNS4wODc4IDQuMDU5OTkgMjQuNzg3OSA0IDI0LjQ3NzkgNEMyNC4xNjc5IDQgMjMuODY4IDQuMDU5OTkgMjMuNTg4IDQuMTU5OThMOC44NDAxNCA5Ljg0OTE2QzkuMDQwMTEgOS43NjkxNyA5LjI2MDA5IDkuNzE5MTggOS40OTAwNiA5LjcxOTE4QzkuNzIwMDIgOS43MTkxOCA5LjkyOTk5IDkuNzY5MTcgMTAuMTMgOS44NDkxNkwxMC4xMiA5Ljg1OTE2WiIvPiYjeGE7PGRlZnM+JiN4YTs8bGluZWFyR3JhZGllbnQgZ3JhZGllbnRVbml0cz0idXNlclNwYWNlT25Vc2UiIHkyPSI0MS42ODQ4IiB4Mj0iMzUuOTA2MSIgeTE9IjMyLjMyNjEiIHgxPSIyNC43NTc3IiBpZD0icGFpbnQwX2xpbmVhcl8zNTc0OV8xMTMzMzUiPiYjeGE7PHN0b3Agc3RvcC1jb2xvcj0iIzI5Mjk0MSIvPiYjeGE7PHN0b3Agc3RvcC1jb2xvcj0iIzExNEE4NSIgb2Zmc2V0PSIwLjIyIi8+JiN4YTs8c3RvcCBzdG9wLWNvbG9yPSIjMEE1QkEwIiBvZmZzZXQ9IjAuNDQiLz4mI3hhOzxzdG9wIHN0b3AtY29sb3I9IiMwNjY5QjYiIG9mZnNldD0iMC42NSIvPiYjeGE7PC9saW5lYXJHcmFkaWVudD4mI3hhOzxsaW5lYXJHcmFkaWVudCBncmFkaWVudFVuaXRzPSJ1c2VyU3BhY2VPblVzZSIgeTI9IjIzLjA1NzQiIHgyPSIyMi40Mjc3IiB5MT0iNy43Njk1OCIgeDE9IjExLjcyOTIiIGlkPSJwYWludDFfbGluZWFyXzM1NzQ5XzExMzMzNSI+JiN4YTs8c3RvcCBzdG9wLWNvbG9yPSIjMTE0QTg1IiBvZmZzZXQ9IjAuMjIiLz4mI3hhOzxzdG9wIHN0b3AtY29sb3I9IiMwNjY5QjYiIG9mZnNldD0iMC44NSIvPiYjeGE7PC9saW5lYXJHcmFkaWVudD4mI3hhOzxsaW5lYXJHcmFkaWVudCBncmFkaWVudFVuaXRzPSJ1c2VyU3BhY2VPblVzZSIgeTI9IjQuMDEwMDEiIHgyPSIyNC40Mzc4IiB5MT0iNDMuODQ0MyIgeDE9IjI0LjQzNzgiIGlkPSJwYWludDJfbGluZWFyXzM1NzQ5XzExMzMzNSI+JiN4YTs8c3RvcCBzdG9wLWNvbG9yPSIjMjg4Q0Q5IiBvZmZzZXQ9IjAuMSIvPiYjeGE7PHN0b3Agc3RvcC1jb2xvcj0iIzNDQzVFRSIgb2Zmc2V0PSIwLjc1Ii8+JiN4YTs8L2xpbmVhckdyYWRpZW50PiYjeGE7PGxpbmVhckdyYWRpZW50IGdyYWRpZW50VW5pdHM9InVzZXJTcGFjZU9uVXNlIiB5Mj0iMTYuMjY4MiIgeDI9IjI2LjUxNzYiIHkxPSI0LjIzOTk3IiB4MT0iMjMuMjg4MSIgaWQ9InBhaW50M19saW5lYXJfMzU3NDlfMTEzMzM1Ij4mI3hhOzxzdG9wIHN0b3Atb3BhY2l0eT0iMC45IiBzdG9wLWNvbG9yPSIjQTFFQ0ZGIi8+JiN4YTs8c3RvcCBzdG9wLW9wYWNpdHk9IjAiIHN0b3AtY29sb3I9IiNBMUVDRkYiIG9mZnNldD0iMC45MiIvPiYjeGE7PC9saW5lYXJHcmFkaWVudD4mI3hhOzwvZGVmcz4mI3hhOzwvc3ZnPg==;fontSize=8;labelPosition=center;align=center;fontStyle=1" vertex="1" parent="1">
          <mxGeometry x="490" y="330" width="48" height="48" as="geometry" />
        </mxCell>
        <mxCell id="E4g3zkUV0fPsjV3zWIB0-20" value="Synapse Data Engineering" style="shape=image;verticalLabelPosition=top;verticalAlign=bottom;imageAspect=0;aspect=fixed;image=data:image/svg+xml,PHN2ZyB4bWxucz0iaHR0cDovL3d3dy53My5vcmcvMjAwMC9zdmciIGZpbGw9Im5vbmUiIHZpZXdCb3g9IjAgMCA0OCA0OCIgaGVpZ2h0PSI0OCIgd2lkdGg9IjQ4Ij4mI3hhOzxnIGNsaXAtcGF0aD0idXJsKCNjbGlwMF8zNTc0OV8xMTM4NjQpIj4mI3hhOzxwYXRoIGZpbGw9IiM3Njc2NzYiIGQ9Ik0zOS4yNDA1IDE2LjYyNzNDNDAuOTI1NiAxNC4xNDg3IDQzLjk5NzQgMTUuODI5NSA0My45OTc0IDE4LjQ3OEw0My45OTc0IDI5LjM2ODVDNDMuOTQ4NCAzMC4zMSA0My41NDMgMzEuMjEzMSA0Mi44NzAzIDMxLjg3OUwzMy4wNTM3IDQxLjY1MThDMzIuMjk1NyA0Mi40MDIxIDMxLjIzNzcgNDIuNzI1OCAzMC4yMTEzIDQyLjUyMTNDMzAuMjExMyA0Mi41MjEzIDEuMTc2NzQgMzYuMzk5IDE2LjE0MDUgMzIuNjM2OEMzMS4xMDQzIDI4Ljg3NDcgMzkuMjQwNSAxNi42MjczIDM5LjI0MDUgMTYuNjI3M1oiIGNsaXAtcnVsZT0iZXZlbm9kZCIgZmlsbC1ydWxlPSJldmVub2RkIi8+JiN4YTs8cGF0aCBmaWxsPSJ1cmwoI3BhaW50MF9saW5lYXJfMzU3NDlfMTEzODY0KSIgZD0iTTM5LjI0MDUgMTYuNjI3M0M0MC45MjU2IDE0LjE0ODcgNDMuOTk3NCAxNS44Mjk1IDQzLjk5NzQgMTguNDc4TDQzLjk5NzQgMjkuMzY4NUM0My45NDg0IDMwLjMxIDQzLjU0MyAzMS4yMTMxIDQyLjg3MDMgMzEuODc5TDMzLjA1MzcgNDEuNjUxOEMzMi4yOTU3IDQyLjQwMjEgMzEuMjM3NyA0Mi43MjU4IDMwLjIxMTMgNDIuNTIxM0MzMC4yMTEzIDQyLjUyMTMgMS4xNzY3NCAzNi4zOTkgMTYuMTQwNSAzMi42MzY4QzMxLjEwNDMgMjguODc0NyAzOS4yNDA1IDE2LjYyNzMgMzkuMjQwNSAxNi42MjczWiIgY2xpcC1ydWxlPSJldmVub2RkIiBmaWxsLXJ1bGU9ImV2ZW5vZGQiLz4mI3hhOzxwYXRoIGZpbGw9InVybCgjcGFpbnQxX2xpbmVhcl8zNTc0OV8xMTM4NjQpIiBkPSJNMzkuMjQwNSAxNi42MjczQzQwLjkyNTYgMTQuMTQ4NyA0My45OTc0IDE1LjgyOTUgNDMuOTk3NCAxOC40NzhMNDMuOTk3NCAyOS4zNjg1QzQzLjk0ODQgMzAuMzEgNDMuNTQzIDMxLjIxMzEgNDIuODcwMyAzMS44NzlMMzMuMDUzNyA0MS42NTE4QzMyLjI5NTcgNDIuNDAyMSAzMS4yMzc3IDQyLjcyNTggMzAuMjExMyA0Mi41MjEzQzMwLjIxMTMgNDIuNTIxMyAxLjE3Njc0IDM2LjM5OSAxNi4xNDA1IDMyLjYzNjhDMzEuMTA0MyAyOC44NzQ3IDM5LjI0MDUgMTYuNjI3MyAzOS4yNDA1IDE2LjYyNzNaIiBjbGlwLXJ1bGU9ImV2ZW5vZGQiIGZpbGwtcnVsZT0iZXZlbm9kZCIvPiYjeGE7PHBhdGggZmlsbD0iIzRGMUExQSIgZD0iTTM1LjM3NiAzOS4zODAxTDM1LjM4NjEgMzkuMzkwN0w0Mi4wOTA5IDMyLjY5ODJDNDAuMTEzMiAzNC42ODE2IDM0Ljk0OCAzNC43MjEzIDMwLjE1MjUgMzIuMzUxM0MyNi45NTQxIDMwLjc3MDcgMjQuNzQzMyAyNy43MjYzIDIyLjc4MiAyNC42NTUzTDExLjk2MzIgNy41NTM0OEw0Ljk2MTA5IDE0Ljc0OEM0LjM2NjE1IDE1LjM1NiAzLjk3ODM0IDE2LjIwMzYgMy45NDIyOCAxNy4wOTIyTDMuOTgwOSAzMC45MjkzQzMuOTQzMDggMzEuODYxNCA0LjI3NjUxIDMyLjc2ODQgNC45MDIyOCAzMy40MzU1TDEzLjgwMjQgNDIuOTc3OUMxNC40MTQ0IDQzLjYzMDQgMTUuMjUzNiA0My45OTc0IDE2LjEyOTIgNDMuOTk1NUwyOS40MzE0IDQzLjk5NTVDMzAuMjUyNiA0My45OTM2IDMxLjA0NDYgNDMuNjM3NiAzMS42NDQgNDMuMDUyNUwzNS4zNzYgMzkuMzgwMVoiIGNsaXAtcnVsZT0iZXZlbm9kZCIgZmlsbC1ydWxlPSJldmVub2RkIi8+JiN4YTs8cGF0aCBmaWxsPSJ1cmwoI3BhaW50Ml9saW5lYXJfMzU3NDlfMTEzODY0KSIgZD0iTTM1LjM3NiAzOS4zODAxTDM1LjM4NjEgMzkuMzkwN0w0Mi4wOTA5IDMyLjY5ODJDNDAuMTEzMiAzNC42ODE2IDM0Ljk0OCAzNC43MjEzIDMwLjE1MjUgMzIuMzUxM0MyNi45NTQxIDMwLjc3MDcgMjQuNzQzMyAyNy43MjYzIDIyLjc4MiAyNC42NTUzTDExLjk2MzIgNy41NTM0OEw0Ljk2MTA5IDE0Ljc0OEM0LjM2NjE1IDE1LjM1NiAzLjk3ODM0IDE2LjIwMzYgMy45NDIyOCAxNy4wOTIyTDMuOTgwOSAzMC45MjkzQzMuOTQzMDggMzEuODYxNCA0LjI3NjUxIDMyLjc2ODQgNC45MDIyOCAzMy40MzU1TDEzLjgwMjQgNDIuOTc3OUMxNC40MTQ0IDQzLjYzMDQgMTUuMjUzNiA0My45OTc0IDE2LjEyOTIgNDMuOTk1NUwyOS40MzE0IDQzLjk5NTVDMzAuMjUyNiA0My45OTM2IDMxLjA0NDYgNDMuNjM3NiAzMS42NDQgNDMuMDUyNUwzNS4zNzYgMzkuMzgwMVoiIGNsaXAtcnVsZT0iZXZlbm9kZCIgZmlsbC1ydWxlPSJldmVub2RkIi8+JiN4YTs8cGF0aCBmaWxsPSJ1cmwoI3BhaW50M19saW5lYXJfMzU3NDlfMTEzODY0KSIgZD0iTTM1LjM3NiAzOS4zODAxTDM1LjM4NjEgMzkuMzkwN0w0Mi4wOTA5IDMyLjY5ODJDNDAuMTEzMiAzNC42ODE2IDM0Ljk0OCAzNC43MjEzIDMwLjE1MjUgMzIuMzUxM0MyNi45NTQxIDMwLjc3MDcgMjQuNzQzMyAyNy43MjYzIDIyLjc4MiAyNC42NTUzTDExLjk2MzIgNy41NTM0OEw0Ljk2MTA5IDE0Ljc0OEM0LjM2NjE1IDE1LjM1NiAzLjk3ODM0IDE2LjIwMzYgMy45NDIyOCAxNy4wOTIyTDMuOTgwOSAzMC45MjkzQzMuOTQzMDggMzEuODYxNCA0LjI3NjUxIDMyLjc2ODQgNC45MDIyOCAzMy40MzU1TDEzLjgwMjQgNDIuOTc3OUMxNC40MTQ0IDQzLjYzMDQgMTUuMjUzNiA0My45OTc0IDE2LjEyOTIgNDMuOTk1NUwyOS40MzE0IDQzLjk5NTVDMzAuMjUyNiA0My45OTM2IDMxLjA0NDYgNDMuNjM3NiAzMS42NDQgNDMuMDUyNUwzNS4zNzYgMzkuMzgwMVoiIGNsaXAtcnVsZT0iZXZlbm9kZCIgZmlsbC1ydWxlPSJldmVub2RkIi8+JiN4YTs8cGF0aCBmaWxsPSJ1cmwoI3BhaW50NF9saW5lYXJfMzU3NDlfMTEzODY0KSIgZD0iTTM1LjM3NiAzOS4zODAxTDM1LjM4NjEgMzkuMzkwN0w0Mi4wOTA5IDMyLjY5ODJDNDAuMTEzMiAzNC42ODE2IDM0Ljk0OCAzNC43MjEzIDMwLjE1MjUgMzIuMzUxM0MyNi45NTQxIDMwLjc3MDcgMjQuNzQzMyAyNy43MjYzIDIyLjc4MiAyNC42NTUzTDExLjk2MzIgNy41NTM0OEw0Ljk2MTA5IDE0Ljc0OEM0LjM2NjE1IDE1LjM1NiAzLjk3ODM0IDE2LjIwMzYgMy45NDIyOCAxNy4wOTIyTDMuOTgwOSAzMC45MjkzQzMuOTQzMDggMzEuODYxNCA0LjI3NjUxIDMyLjc2ODQgNC45MDIyOCAzMy40MzU1TDEzLjgwMjQgNDIuOTc3OUMxNC40MTQ0IDQzLjYzMDQgMTUuMjUzNiA0My45OTc0IDE2LjEyOTIgNDMuOTk1NUwyOS40MzE0IDQzLjk5NTVDMzAuMjUyNiA0My45OTM2IDMxLjA0NDYgNDMuNjM3NiAzMS42NDQgNDMuMDUyNUwzNS4zNzYgMzkuMzgwMVoiIGNsaXAtcnVsZT0iZXZlbm9kZCIgZmlsbC1ydWxlPSJldmVub2RkIi8+JiN4YTs8cGF0aCBmaWxsPSIjNTg1ODU4IiBkPSJNMTAuMjA5MSAyOS44NTA0QzEzLjEwMDMgMjQuMjcxOSAxNC4wMjUzIDI1Ljc1MTggMjQuNjIwMyAxNy40MzQ5QzI5LjUzNTggMTMuNTc2MyAzMi4zODg1IDkuMDMwMjEgMzMuNzc4NyA2LjMzMzIzQzM0LjM1MiA1LjIyMTAzIDMzLjU1NzUgMy45ODA3NCAzMi4zNDYgMy45ODA3TDE2Ljc2NiAzLjk4MDJDMTUuOTEzMyAzLjk4MDE4IDE1LjA5NDggNC4zMzAwMiAxNC40ODc3IDQuOTU0MDVMNC45MDYxNCAxNC44MDI4QzQuMjg4MDQgMTUuNDM4MiAzLjk0MDA4IDE2LjMwNTIgMy45NDAwOCAxNy4yMDk5TDMuOTQwMDcgMzEuMDExOUMzLjk0MDA3IDMxLjg5MjggNC4yNjk5NCAzMi43Mzg5IDQuODU5NDggMzMuMzcwMUwxMi41NjA5IDQxLjYxNkMxMi41NjA5IDQxLjYxNiA3LjEyNjcyIDM1Ljc5NzYgMTAuMjA5MSAyOS44NTA0WiIgY2xpcC1ydWxlPSJldmVub2RkIiBmaWxsLXJ1bGU9ImV2ZW5vZGQiLz4mI3hhOzxwYXRoIGZpbGw9InVybCgjcGFpbnQ1X2xpbmVhcl8zNTc0OV8xMTM4NjQpIiBkPSJNMTAuMjA5MSAyOS44NTA0QzEzLjEwMDMgMjQuMjcxOSAxNC4wMjUzIDI1Ljc1MTggMjQuNjIwMyAxNy40MzQ5QzI5LjUzNTggMTMuNTc2MyAzMi4zODg1IDkuMDMwMjEgMzMuNzc4NyA2LjMzMzIzQzM0LjM1MiA1LjIyMTAzIDMzLjU1NzUgMy45ODA3NCAzMi4zNDYgMy45ODA3TDE2Ljc2NiAzLjk4MDJDMTUuOTEzMyAzLjk4MDE4IDE1LjA5NDggNC4zMzAwMiAxNC40ODc3IDQuOTU0MDVMNC45MDYxNCAxNC44MDI4QzQuMjg4MDQgMTUuNDM4MiAzLjk0MDA4IDE2LjMwNTIgMy45NDAwOCAxNy4yMDk5TDMuOTQwMDcgMzEuMDExOUMzLjk0MDA3IDMxLjg5MjggNC4yNjk5NCAzMi43Mzg5IDQuODU5NDggMzMuMzcwMUwxMi41NjA5IDQxLjYxNkMxMi41NjA5IDQxLjYxNiA3LjEyNjcyIDM1Ljc5NzYgMTAuMjA5MSAyOS44NTA0WiIgY2xpcC1ydWxlPSJldmVub2RkIiBmaWxsLXJ1bGU9ImV2ZW5vZGQiLz4mI3hhOzxwYXRoIGZpbGw9InVybCgjcGFpbnQ2X2xpbmVhcl8zNTc0OV8xMTM4NjQpIiBkPSJNMTAuMjA5MSAyOS44NTA0QzEzLjEwMDMgMjQuMjcxOSAxNC4wMjUzIDI1Ljc1MTggMjQuNjIwMyAxNy40MzQ5QzI5LjUzNTggMTMuNTc2MyAzMi4zODg1IDkuMDMwMjEgMzMuNzc4NyA2LjMzMzIzQzM0LjM1MiA1LjIyMTAzIDMzLjU1NzUgMy45ODA3NCAzMi4zNDYgMy45ODA3TDE2Ljc2NiAzLjk4MDJDMTUuOTEzMyAzLjk4MDE4IDE1LjA5NDggNC4zMzAwMiAxNC40ODc3IDQuOTU0MDVMNC45MDYxNCAxNC44MDI4QzQuMjg4MDQgMTUuNDM4MiAzLjk0MDA4IDE2LjMwNTIgMy45NDAwOCAxNy4yMDk5TDMuOTQwMDcgMzEuMDExOUMzLjk0MDA3IDMxLjg5MjggNC4yNjk5NCAzMi43Mzg5IDQuODU5NDggMzMuMzcwMUwxMi41NjA5IDQxLjYxNkMxMi41NjA5IDQxLjYxNiA3LjEyNjcyIDM1Ljc5NzYgMTAuMjA5MSAyOS44NTA0WiIgY2xpcC1ydWxlPSJldmVub2RkIiBmaWxsLXJ1bGU9ImV2ZW5vZGQiLz4mI3hhOzxwYXRoIGZpbGw9InVybCgjcGFpbnQ3X2xpbmVhcl8zNTc0OV8xMTM4NjQpIiBkPSJNMTAuMjA5MSAyOS44NTA0QzEzLjEwMDMgMjQuMjcxOSAxNC4wMjUzIDI1Ljc1MTggMjQuNjIwMyAxNy40MzQ5QzI5LjUzNTggMTMuNTc2MyAzMi4zODg1IDkuMDMwMjEgMzMuNzc4NyA2LjMzMzIzQzM0LjM1MiA1LjIyMTAzIDMzLjU1NzUgMy45ODA3NCAzMi4zNDYgMy45ODA3TDE2Ljc2NiAzLjk4MDJDMTUuOTEzMyAzLjk4MDE4IDE1LjA5NDggNC4zMzAwMiAxNC40ODc3IDQuOTU0MDVMNC45MDYxNCAxNC44MDI4QzQuMjg4MDQgMTUuNDM4MiAzLjk0MDA4IDE2LjMwNTIgMy45NDAwOCAxNy4yMDk5TDMuOTQwMDcgMzEuMDExOUMzLjk0MDA3IDMxLjg5MjggNC4yNjk5NCAzMi43Mzg5IDQuODU5NDggMzMuMzcwMUwxMi41NjA5IDQxLjYxNkMxMi41NjA5IDQxLjYxNiA3LjEyNjcyIDM1Ljc5NzYgMTAuMjA5MSAyOS44NTA0WiIgY2xpcC1ydWxlPSJldmVub2RkIiBmaWxsLXJ1bGU9ImV2ZW5vZGQiLz4mI3hhOzwvZz4mI3hhOzxkZWZzPiYjeGE7PGxpbmVhckdyYWRpZW50IGdyYWRpZW50VW5pdHM9InVzZXJTcGFjZU9uVXNlIiB5Mj0iMTkuNTcyOSIgeDI9IjQ2Ljk3ODgiIHkxPSIzMi4zNzk4IiB4MT0iMzUuMTg2NyIgaWQ9InBhaW50MF9saW5lYXJfMzU3NDlfMTEzODY0Ij4mI3hhOzxzdG9wIHN0b3AtY29sb3I9IiMxMTRBODUiLz4mI3hhOzxzdG9wIHN0b3AtY29sb3I9IiMwMjhFREIiIG9mZnNldD0iMC43OTU2OTMiLz4mI3hhOzwvbGluZWFyR3JhZGllbnQ+JiN4YTs8bGluZWFyR3JhZGllbnQgZ3JhZGllbnRVbml0cz0idXNlclNwYWNlT25Vc2UiIHkyPSIxMC4xMzQ5IiB4Mj0iNTEuNDM2NSIgeTE9IjM1Ljg5MTEiIHgxPSIzNS42MTA2IiBpZD0icGFpbnQxX2xpbmVhcl8zNTc0OV8xMTM4NjQiPiYjeGE7PHN0b3Agc3RvcC1jb2xvcj0iIzExNEE4NSIvPiYjeGE7PHN0b3Agc3RvcC1jb2xvcj0iIzAyOEVEQiIgb2Zmc2V0PSIwLjY3Ii8+JiN4YTs8L2xpbmVhckdyYWRpZW50PiYjeGE7PGxpbmVhckdyYWRpZW50IGdyYWRpZW50VW5pdHM9InVzZXJTcGFjZU9uVXNlIiB5Mj0iMzEuMDExMyIgeDI9IjMyLjg1NDIiIHkxPSIzMC44NTkxIiB4MT0iMTEuODU0MyIgaWQ9InBhaW50Ml9saW5lYXJfMzU3NDlfMTEzODY0Ij4mI3hhOzxzdG9wIHN0b3AtY29sb3I9IiMwNjY5QjYiIG9mZnNldD0iMC4wNzQyMTgiLz4mI3hhOzxzdG9wIHN0b3AtY29sb3I9IiMwRTdGQ0IiIG9mZnNldD0iMC4yNjE4NDYiLz4mI3hhOzxzdG9wIHN0b3AtY29sb3I9IiMxNDhERDkiIG9mZnNldD0iMC41NDQ2NzQiLz4mI3hhOzxzdG9wIHN0b3AtY29sb3I9IiMzQ0M1RUUiIG9mZnNldD0iMC45NSIvPiYjeGE7PC9saW5lYXJHcmFkaWVudD4mI3hhOzxsaW5lYXJHcmFkaWVudCBncmFkaWVudFVuaXRzPSJ1c2VyU3BhY2VPblVzZSIgeTI9IjM1LjEyODMiIHgyPSIzNS41NjkzIiB5MT0iMzguNTkwMiIgeDE9IjExLjYxNDkiIGlkPSJwYWludDNfbGluZWFyXzM1NzQ5XzExMzg2NCI+JiN4YTs8c3RvcCBzdG9wLWNvbG9yPSIjMDA5NEU1IiBvZmZzZXQ9IjAuMzEiLz4mI3hhOzxzdG9wIHN0b3AtY29sb3I9IiM0MEQ4RjkiIG9mZnNldD0iMSIvPiYjeGE7PC9saW5lYXJHcmFkaWVudD4mI3hhOzxsaW5lYXJHcmFkaWVudCBncmFkaWVudFVuaXRzPSJ1c2VyU3BhY2VPblVzZSIgeTI9IjMyLjkzOTciIHgyPSIzMi41Mzg4IiB5MT0iMjYuMDI1NiIgeDE9IjkuMzIxMiIgaWQ9InBhaW50NF9saW5lYXJfMzU3NDlfMTEzODY0Ij4mI3hhOzxzdG9wIHN0b3Atb3BhY2l0eT0iMC4yIiBvZmZzZXQ9IjAuMDkiLz4mI3hhOzxzdG9wIHN0b3Atb3BhY2l0eT0iMCIgb2Zmc2V0PSIwLjU1Ii8+JiN4YTs8L2xpbmVhckdyYWRpZW50PiYjeGE7PGxpbmVhckdyYWRpZW50IGdyYWRpZW50VW5pdHM9InVzZXJTcGFjZU9uVXNlIiB5Mj0iMjEuNjY4MyIgeDI9IjYuMzM4MTIiIHkxPSI3LjkxNDM0IiB4MT0iMjYuNzcyIiBpZD0icGFpbnQ1X2xpbmVhcl8zNTc0OV8xMTM4NjQiPiYjeGE7PHN0b3Agc3RvcC1jb2xvcj0iI0JERjVGRiIvPiYjeGE7PHN0b3Agc3RvcC1jb2xvcj0iIzQwRDlGQSIgb2Zmc2V0PSIxIi8+JiN4YTs8L2xpbmVhckdyYWRpZW50PiYjeGE7PGxpbmVhckdyYWRpZW50IGdyYWRpZW50VW5pdHM9InVzZXJTcGFjZU9uVXNlIiB5Mj0iMTkuNTE0IiB4Mj0iMjUuNzQzNiIgeTE9IjMzLjU1MDUiIHgxPSI0LjYyOTIxIiBpZD0icGFpbnQ2X2xpbmVhcl8zNTc0OV8xMTM4NjQiPiYjeGE7PHN0b3Agc3RvcC1jb2xvcj0iIzNDQzVFRSIvPiYjeGE7PHN0b3Agc3RvcC1jb2xvcj0iIzUwRTBGRiIgb2Zmc2V0PSIxIi8+JiN4YTs8L2xpbmVhckdyYWRpZW50PiYjeGE7PGxpbmVhckdyYWRpZW50IGdyYWRpZW50VW5pdHM9InVzZXJTcGFjZU9uVXNlIiB5Mj0iMjcuMzE2IiB4Mj0iMTguNjk5NyIgeTE9IjIzLjI3OTciIHgxPSIxMC43NjU5IiBpZD0icGFpbnQ3X2xpbmVhcl8zNTc0OV8xMTM4NjQiPiYjeGE7PHN0b3Agc3RvcC1vcGFjaXR5PSIwIiBzdG9wLWNvbG9yPSIjQTFFQ0ZGIi8+JiN4YTs8c3RvcCBzdG9wLW9wYWNpdHk9IjAuOSIgc3RvcC1jb2xvcj0iI0ExRUNGRiIgb2Zmc2V0PSIwLjkiLz4mI3hhOzwvbGluZWFyR3JhZGllbnQ+JiN4YTs8Y2xpcFBhdGggaWQ9ImNsaXAwXzM1NzQ5XzExMzg2NCI+JiN4YTs8cmVjdCBmaWxsPSJ3aGl0ZSIgaGVpZ2h0PSI0OCIgd2lkdGg9IjQ4Ii8+JiN4YTs8L2NsaXBQYXRoPiYjeGE7PC9kZWZzPiYjeGE7PC9zdmc+;fontSize=8;labelPosition=center;align=center;fontStyle=1" vertex="1" parent="1">
          <mxGeometry x="386" y="330" width="48" height="48" as="geometry" />
        </mxCell>
        <mxCell id="E4g3zkUV0fPsjV3zWIB0-21" value="" style="endArrow=classic;html=1;rounded=0;entryX=0.5;entryY=0;entryDx=0;entryDy=0;flowAnimation=1;" edge="1" parent="1" source="E4g3zkUV0fPsjV3zWIB0-20" target="E4g3zkUV0fPsjV3zWIB0-10">
          <mxGeometry width="50" height="50" relative="1" as="geometry">
            <mxPoint x="410" y="400" as="sourcePoint" />
            <mxPoint x="410" y="380" as="targetPoint" />
          </mxGeometry>
        </mxCell>
        <mxCell id="E4g3zkUV0fPsjV3zWIB0-23" value="" style="endArrow=classic;html=1;rounded=0;exitX=0.5;exitY=1;exitDx=0;exitDy=0;entryX=0.5;entryY=0;entryDx=0;entryDy=0;flowAnimation=1;" edge="1" parent="1" source="E4g3zkUV0fPsjV3zWIB0-19" target="E4g3zkUV0fPsjV3zWIB0-11">
          <mxGeometry width="50" height="50" relative="1" as="geometry">
            <mxPoint x="520" y="450" as="sourcePoint" />
            <mxPoint x="570" y="400" as="targetPoint" />
          </mxGeometry>
        </mxCell>
        <mxCell id="E4g3zkUV0fPsjV3zWIB0-24" value="&lt;font style=&quot;font-size: 8px;&quot;&gt;&lt;b&gt;Outlook&lt;/b&gt;&lt;/font&gt;" style="shape=image;html=1;verticalAlign=top;verticalLabelPosition=bottom;labelBackgroundColor=#ffffff;imageAspect=0;aspect=fixed;image=https://cdn0.iconfinder.com/data/icons/logos-microsoft-office-365/128/Microsoft_Office-07-128.png" vertex="1" parent="1">
          <mxGeometry x="618" y="385" width="45" height="45" as="geometry" />
        </mxCell>
        <mxCell id="E4g3zkUV0fPsjV3zWIB0-25" value="" style="endArrow=classic;html=1;rounded=0;exitX=0.5;exitY=1;exitDx=0;exitDy=0;entryX=0.5;entryY=0;entryDx=0;entryDy=0;flowAnimation=1;" edge="1" parent="1" source="E4g3zkUV0fPsjV3zWIB0-18" target="E4g3zkUV0fPsjV3zWIB0-17">
          <mxGeometry width="50" height="50" relative="1" as="geometry">
            <mxPoint x="620" y="540" as="sourcePoint" />
            <mxPoint x="670" y="490" as="targetPoint" />
          </mxGeometry>
        </mxCell>
      </root>
    </mxGraphModel>
  </diagram>
</mxfile>
